<?xml version="1.0" encoding="utf-8"?>
<!-- Generator: Adobe Illustrator 16.0.0, SVG Export Plug-In . SVG Version: 6.00 Build 0)  -->
<!DOCTYPE svg PUBLIC "-//W3C//DTD SVG 1.1//EN" "http://www.w3.org/Graphics/SVG/1.1/DTD/svg11.dtd">
<svg version="1.1" id="Layer_1" xmlns="http://www.w3.org/2000/svg" xmlns:xlink="http://www.w3.org/1999/xlink" x="0px" y="0px"
	 width="982.579px" height="1320.474px" viewBox="51.71 296.738 982.579 1320.474"
	 enable-background="new 51.71 296.738 982.579 1320.474" xml:space="preserve">
<g id="bg" display="none">
	<rect display="inline" fill="#31A7DE" width="1080" height="1920"/>
</g>
<g id="Layer_1_1_">
	<g>
		<g>
			<path fill="#9875B1" d="M381.666,879.196c-49.941,0-99.885,0-149.826,0c-7.598,0-15.194,0-22.792,0
				c0.833,0.832,1.667,1.666,2.5,2.5c0-49.312,0-98.621,0-147.932c0-4.281,0-8.564,0-12.848c-0.833,0.834-1.667,1.668-2.5,2.5
				c0.001,0,0.002,0,0.003,0c3.225,0,3.225-5,0-5c-34.832,0-69.663,0-104.495,0c0.833,0.834,1.667,1.668,2.5,2.5
				c0-49.848,0-99.697,0-149.545c0-7.583,0-15.166,0-22.749c0-3.225-5-3.225-5,0c0,49.849,0,99.697,0,149.546
				c0,7.582,0,15.166,0,22.748c0,1.363,1.138,2.5,2.5,2.5c34.832,0,69.663,0,104.495,0c3.225,0,3.225-5,0-5
				c-0.001,0-0.002,0-0.003,0c-1.362,0-2.5,1.137-2.5,2.5c0,49.312,0,98.621,0,147.93c0,4.283,0,8.566,0,12.85
				c0,1.361,1.138,2.5,2.5,2.5c49.941,0,99.885,0,149.827,0c7.598,0,15.193,0,22.791,0
				C384.892,884.196,384.892,879.196,381.666,879.196L381.666,879.196z"/>
		</g>
	</g>
	<g>
		<g>
			<path fill="#9875B1" d="M679.521,884.196c49.502,0,99.004,0,148.505,0c16.268,0,32.532,0,48.8,0c1.361,0,2.5-1.139,2.5-2.5
				c0-49.312,0-98.621,0-147.932c0-4.281,0-8.564,0-12.848c-0.833,0.834-1.667,1.668-2.5,2.5c34.873,0,69.745,0,104.618,0
				c1.362,0,2.5-1.137,2.5-2.5c0-49.848,0-99.697,0-149.545c0-7.583,0-15.166,0-22.749c0-3.225-5-3.225-5,0
				c0,49.849,0,99.697,0,149.546c0,7.582,0,15.166,0,22.748c0.833-0.832,1.667-1.666,2.5-2.5c-34.873,0-69.745,0-104.618,0
				c-1.361,0-2.5,1.137-2.5,2.5c0,49.312,0,98.621,0,147.93c0,4.283,0,8.566,0,12.85c0.833-0.834,1.667-1.668,2.5-2.5
				c-49.502,0-99.004,0-148.505,0c-16.268,0-32.533,0-48.8,0C676.296,879.196,676.296,884.196,679.521,884.196L679.521,884.196z"/>
		</g>
	</g>
	<g>
		<g>
			<path fill="#9875B1" d="M398.524,813.799c-24.318,0-48.638,0-72.956,0c0.833,0.832,1.667,1.666,2.5,2.5
				c0-44.367-0.001-88.73-0.001-133.098c0-1.363-1.138-2.5-2.5-2.5c-20.403,0-40.806,0-61.209,0c0.833,0.832,1.667,1.666,2.5,2.5
				c0-8.418,0-16.834,0-25.25c0-3.227-5-3.227-5,0c0,8.417,0,16.833,0,25.25c0,1.363,1.139,2.5,2.5,2.5c20.403,0,40.806,0,61.209,0
				c-0.833-0.834-1.667-1.668-2.5-2.5c0,44.365,0.001,88.73,0.001,133.098c0,1.363,1.137,2.5,2.5,2.5c24.318,0,48.638,0,72.956,0
				C401.748,818.799,401.748,813.799,398.524,813.799L398.524,813.799z"/>
		</g>
	</g>
	<g>
		<g>
			<path fill="#9875B1" d="M660.562,818.799c24.573,0,49.146,0,73.72,0c1.361,0,2.5-1.137,2.5-2.5c0-44.367,0-88.73,0-133.098
				c-0.833,0.832-1.667,1.666-2.5,2.5c22.076,0,44.15,0,66.229,0c1.362,0,2.5-1.137,2.5-2.5c0-8.418,0-16.834,0-25.25
				c0-3.227-5-3.227-5,0c0,8.417,0,16.833,0,25.25c0.833-0.834,1.667-1.668,2.5-2.5c-22.076,0-44.15,0-66.229,0
				c-1.361,0-2.5,1.137-2.5,2.5c0,44.365,0,88.73,0,133.098c0.833-0.834,1.667-1.668,2.5-2.5c-24.572,0-49.146,0-73.72,0
				C657.339,813.799,657.339,818.799,660.562,818.799L660.562,818.799z"/>
		</g>
	</g>
	<g>
		<g>
			<path fill="#9875B1" d="M535.206,1409.2c0-38.355,0-76.709,0-115.062c0-61.467,0-122.936,0-184.4c0-14.564,0-29.127,0-43.691
				c0-3.225-5-3.225-5,0c0,38.354,0,76.707,0,115.062c0,61.467,0,122.936,0,184.4c0,14.564,0,29.127,0,43.691
				C530.206,1412.424,535.206,1412.424,535.206,1409.2L535.206,1409.2z"/>
		</g>
	</g>
	<g>
		<g>
			<path fill="#9875B1" d="M535.206,1499.879c0-14.365,0-28.729,0-43.096c0-3.225-5-3.225-5,0c0,14.365,0,28.729,0,43.096
				C530.206,1503.104,535.206,1503.104,535.206,1499.879L535.206,1499.879z"/>
		</g>
	</g>
	<g>
		<g>
			<path fill="#9875B1" d="M740.585,1418.071c-15.313,0-30.628,0-45.942,0c0.833,0.832,1.667,1.666,2.5,2.5
				c0-22.338,0-44.678,0-67.016c0-1.361-1.137-2.5-2.5-2.5c-49.45,0-98.901,0-148.354,0c-42.501,0-85.003,0-127.504,0
				c-16.59,0-33.181,0-49.771,0c-1.363,0-2.5,1.139-2.5,2.5c0,22.338,0,44.678,0,67.016c0.833-0.834,1.667-1.668,2.5-2.5
				c-15.314,0-30.628,0-45.942,0c-3.225,0-3.225,5,0,5c15.314,0,30.628,0,45.942,0c1.363,0,2.5-1.139,2.5-2.5
				c0-22.338,0-44.678,0-67.016c-0.833,0.832-1.667,1.666-2.5,2.5c49.451,0,98.902,0,148.354,0c42.501,0,85.003,0,127.504,0
				c16.591,0,33.182,0,49.771,0c-0.832-0.834-1.666-1.668-2.5-2.5c0,22.338,0,44.678,0,67.016c0,1.361,1.138,2.5,2.5,2.5
				c15.314,0,30.629,0,45.942,0C743.81,1423.071,743.81,1418.071,740.585,1418.071L740.585,1418.071z"/>
		</g>
	</g>
	<g>
		<g>
			<path fill="#9875B1" d="M354.916,1215.629c12.979,0,25.956,0,38.935,0c-0.833-0.834-1.667-1.668-2.5-2.5
				c0,22.338,0,44.676,0,67.014c0,1.363,1.138,2.5,2.5,2.5c45.838,0,91.677,0,137.515,0c45.544,0,91.088,0,136.633,0
				c0.604,0,1.205,0,1.809,0c1.361,0,2.5-1.137,2.5-2.5c0-22.338,0-44.676,0-67.014c-0.833,0.832-1.667,1.666-2.5,2.5
				c12.979,0,25.956,0,38.935,0c3.226,0,3.226-5,0-5c-12.979,0-25.956,0-38.935,0c-1.361,0-2.5,1.137-2.5,2.5
				c0,22.338,0,44.676,0,67.014c0.833-0.832,1.667-1.666,2.5-2.5c-45.838,0-91.677,0-137.516,0c-45.544,0-91.088,0-136.633,0
				c-0.603,0-1.205,0-1.808,0c0.833,0.834,1.667,1.668,2.5,2.5c0-22.338,0-44.676,0-67.014c0-1.363-1.138-2.5-2.5-2.5
				c-12.979,0-25.956,0-38.935,0C351.692,1210.629,351.692,1215.629,354.916,1215.629L354.916,1215.629z"/>
		</g>
	</g>
	<g>
		<g>
			<path fill="#9875B1" d="M138.664,1321.303c19.653,0,39.309,0,58.963,0c49.189,0,98.382,0,147.571,0c64.068,0,128.139,0,192.207,0
				c64.288,0,128.577,0,192.864,0c49.852,0,99.701,0,149.553,0c20.754,0,41.507,0,62.262,0c0.021,0,0.039,0,0.061,0
				c3.225,0,3.225-5,0-5c-19.654,0-39.311,0-58.964,0c-49.189,0-98.382,0-147.571,0c-64.069,0-128.139,0-192.206,0
				c-64.289,0-128.578,0-192.867,0c-49.85,0-99.699,0-149.551,0c-20.754,0-41.507,0-62.261,0c-0.02,0-0.04,0-0.06,0
				C135.439,1316.303,135.439,1321.303,138.664,1321.303L138.664,1321.303z"/>
		</g>
	</g>
	<g>
		<g>
			<path fill="#9875B1" d="M530.216,586.845c0,45.393,0,90.781,0,136.171c0,0.08,0,0.16,0,0.24c0,3.225,5,3.225,5,0
				c0-45.391,0-90.782,0-136.172c0-0.08,0-0.159,0-0.239C535.216,583.62,530.216,583.62,530.216,586.845L530.216,586.845z"/>
		</g>
	</g>
	<g>
		<g>
			<path fill="#9875B1" d="M300.679,422.928c0,11.515,0,23.025,0,34.538c0,1.363,1.138,2.5,2.5,2.5c26.28,0,52.561,0,78.841,0
				c-0.833-0.833-1.667-1.667-2.5-2.5c0,49.597,0,99.191,0,148.787c0,11.894,0,23.786,0,35.678c0,1.363,1.137,2.5,2.5,2.5
				c26.045,0,52.091,0,78.136,0c-0.833-0.833-1.667-1.667-2.5-2.5c0,38.22,0,76.439,0,114.656c0,3.225,5,3.225,5,0
				c0-38.219,0-76.438,0-114.656c0-1.361-1.139-2.5-2.5-2.5c-26.045,0-52.091,0-78.136,0c0.833,0.833,1.667,1.667,2.5,2.5
				c0-49.8,0-99.6,0-149.397c0-11.689,0-23.377,0-35.066c0-1.363-1.137-2.5-2.5-2.5c-26.28,0-52.561,0-78.841,0
				c0.833,0.833,1.667,1.667,2.5,2.5c0-11.513,0-23.023,0-34.538C305.679,419.704,300.679,419.704,300.679,422.928L300.679,422.928z
				"/>
		</g>
	</g>
	<g>
		<g>
			<path fill="#9875B1" d="M755.509,422.928c0,11.515,0,23.025,0,34.538c0.833-0.833,1.667-1.667,2.5-2.5
				c-26.28,0-52.562,0-78.841,0c-1.363,0-2.5,1.137-2.5,2.5c0,49.597,0,99.191,0,148.787c0,11.894,0,23.786,0,35.678
				c0.832-0.833,1.666-1.667,2.5-2.5c-26.046,0-52.092,0-78.137,0c-1.361,0-2.5,1.139-2.5,2.5c0,38.22,0,76.439,0,114.656
				c0,3.225,5,3.225,5,0c0-38.219,0-76.438,0-114.656c-0.833,0.833-1.667,1.667-2.5,2.5c26.045,0,52.091,0,78.137,0
				c1.362,0,2.5-1.137,2.5-2.5c0-49.8,0-99.6,0-149.397c0-11.689,0-23.377,0-35.066c-0.834,0.833-1.668,1.667-2.5,2.5
				c26.279,0,52.561,0,78.841,0c1.361,0,2.5-1.137,2.5-2.5c0-11.513,0-23.023,0-34.538
				C760.509,419.704,755.509,419.704,755.509,422.928L755.509,422.928z"/>
		</g>
	</g>
	<path fill="#5F267F" d="M599.666,1549.374c0,37.467-30.373,67.838-67.839,67.838c-37.467,0-67.838-30.371-67.838-67.838
		c0-37.469,30.371-67.84,67.838-67.84C569.293,1481.534,599.666,1511.905,599.666,1549.374z"/>
	<circle fill="#5F267F" cx="800.51" cy="1411.726" r="70.579"/>
	<circle fill="#5F267F" cx="531.827" cy="1281.529" r="91.067"/>
	<circle fill="#5F267F" cx="104.556" cy="1320.131" r="52.846"/>
	<circle fill="#5F267F" cx="307.449" cy="1184.188" r="63.094"/>
	<circle fill="#5F267F" cx="264.358" cy="1411.726" r="70.579"/>
	<circle fill="#5F267F" cx="981.443" cy="1320.131" r="52.846"/>
	<circle fill="#5F267F" cx="757.418" cy="1184.188" r="63.094"/>
	<g>
		<g>
			<g>
				<g>
					
						<rect x="462.064" y="814.292" transform="matrix(-0.5991 -0.8007 0.8007 -0.5991 88.6169 1685.9053)" fill="#60257E" width="8.633" height="12.95"/>
					
						<rect x="482.781" y="798.821" transform="matrix(-0.5992 -0.8006 0.8006 -0.5992 134.2916 1677.8164)" fill="#60257E" width="8.634" height="12.949"/>
					<polygon fill="#60257E" points="586.949,802.672 576.028,800.59 577.477,792.083 588.403,794.157 					"/>
					
						<rect x="551.132" y="788.734" transform="matrix(-0.9858 -0.168 0.168 -0.9858 974.0165 1668.5248)" fill="#60257E" width="12.948" height="8.632"/>
					<polygon fill="#60257E" points="526.403,783.37 539.172,785.547 537.724,794.061 524.954,791.885 					"/>
					
						<rect x="494.8" y="923.215" transform="matrix(-0.4892 -0.8721 0.8721 -0.4892 -62.4255 1818.5071)" fill="#60257E" width="12.948" height="8.635"/>
					
						<rect x="482.148" y="900.646" transform="matrix(-0.4898 -0.8718 0.8718 -0.4898 -61.0543 1774.1945)" fill="#60257E" width="12.948" height="8.634"/>
					
						<rect x="545.565" y="938.987" transform="matrix(-0.47 -0.8826 0.8826 -0.47 -26.1577 1875.217)" fill="#60257E" width="8.639" height="12.949"/>
					
						<rect x="568.4" y="926.872" transform="matrix(-0.4693 -0.883 0.883 -0.4693 17.3444 1877.1121)" fill="#60257E" width="8.637" height="12.945"/>
					
						<rect x="591.301" y="914.661" transform="matrix(-0.4696 -0.8829 0.8829 -0.4696 62.071 1879.5603)" fill="#60257E" width="8.634" height="12.948"/>
					<path fill="#60257E" d="M599.659,815.086L599.659,815.086l-1.578-0.018c-5.618,0-13.456-5.123-13.456-13.459
						c0-9.266,5.407-15.484,13.456-15.484c9.562,0,15.479,6.982,15.479,13.455c0,5.975-1.719,10.328-5.126,12.936
						C605.441,814.823,601.99,815.086,599.659,815.086z M598.081,794.756c-4.195,0-4.819,4.295-4.819,6.855
						c0,3.324,3.831,4.82,4.819,4.82l1.578,0.021l0,0c1.163,0,2.616-0.09,3.526-0.787c1.126-0.863,1.745-3.023,1.745-6.086
						C604.933,797.952,602.862,794.756,598.081,794.756z"/>
					<path fill="#60257E" d="M623.773,916.594L623.773,916.594l-1.577-0.02c-5.616,0-13.454-5.123-13.454-13.455
						c0-9.264,5.41-15.488,13.454-15.488c9.564,0,15.482,6.984,15.482,13.455c0,5.973-1.723,10.33-5.127,12.939
						C629.551,916.327,626.101,916.594,623.773,916.594z M622.196,896.268c-4.195,0-4.82,4.289-4.82,6.854
						c0,3.32,3.831,4.816,4.82,4.816l1.577,0.021l0,0c1.166,0,2.618-0.092,3.522-0.785c1.133-0.863,1.75-3.021,1.75-6.088
						C629.047,899.454,626.977,896.268,622.196,896.268z"/>
					<path fill="#60257E" d="M589.506,981.62L589.506,981.62l-1.58-0.02c-5.617,0-13.459-5.117-13.459-13.451
						c0-9.268,5.412-15.488,13.459-15.488c9.562,0,15.486,6.988,15.486,13.455c0,5.975-1.727,10.326-5.131,12.936
						C595.283,981.356,591.837,981.62,589.506,981.62z M587.926,961.292c-4.197,0-4.817,4.293-4.817,6.857
						c0,3.318,3.831,4.816,4.817,4.816l1.58,0.02l0,0c1.16,0,2.61-0.09,3.524-0.781c1.125-0.865,1.744-3.029,1.744-6.09
						C594.775,964.485,592.711,961.292,587.926,961.292z"/>
					<path fill="#60257E" d="M521.336,975.178L521.336,975.178l-1.578-0.021c-5.618,0-13.455-5.121-13.455-13.457
						c0-9.266,5.411-15.484,13.455-15.484c9.565,0,15.487,6.988,15.487,13.457c0,5.979-1.727,10.326-5.129,12.938
						C527.116,974.907,523.666,975.178,521.336,975.178z M519.758,954.846c-3.983,0-4.822,3.727-4.822,6.854
						c0,3.33,3.836,4.824,4.822,4.824l1.578,0.02l0,0c1.166,0,2.62-0.092,3.526-0.785c1.128-0.865,1.748-3.025,1.748-6.086
						C526.611,958.04,524.543,954.846,519.758,954.846z"/>
					<path fill="#60257E" d="M467.812,958.776L467.812,958.776l-1.582-0.023c-5.618,0-13.45-5.115-13.45-13.449
						c0-9.266,5.407-15.488,13.45-15.488c9.565,0,15.488,6.984,15.488,13.455c0,5.975-1.725,10.328-5.129,12.938
						C473.588,958.504,470.146,958.776,467.812,958.776z M466.23,938.444c-4.188,0-4.822,4.295-4.822,6.855
						c0,3.32,3.836,4.816,4.822,4.816l1.582,0.02l0,0c1.161,0,2.616-0.088,3.523-0.779c1.123-0.863,1.749-3.031,1.749-6.094
						C473.084,941.639,471.014,938.444,466.23,938.444z"/>
					<path fill="#60257E" d="M479.865,904.993L479.865,904.993l-1.578-0.023c-5.617,0-13.456-5.117-13.456-13.451
						c0-9.264,5.407-15.486,13.456-15.486c9.564,0,15.482,6.982,15.482,13.455c0,5.977-1.721,10.332-5.12,12.936
						C485.643,904.723,482.199,904.993,479.865,904.993z M478.287,884.661c-4.192,0-4.819,4.293-4.819,6.854
						c0,3.326,3.831,4.818,4.819,4.818l1.578,0.025l0,0c1.168,0,2.615-0.092,3.526-0.789c1.126-0.865,1.75-3.025,1.75-6.09
						C485.137,887.856,483.068,884.661,478.287,884.661z"/>
					<path fill="#60257E" d="M450.468,838.12l2.936-2.193l-5.178-6.912l-3.154,2.361
						C448.169,832.918,450.046,835.588,450.468,838.12z"/>
					<path fill="#60257E" d="M441.011,854.717L441.011,854.717l-1.581-0.021c-5.615,0-13.453-5.117-13.453-13.457
						c0-9.262,5.404-15.486,13.453-15.486c9.565,0,15.485,6.984,15.485,13.455c0,5.979-1.728,10.328-5.129,12.939
						C446.788,854.45,443.342,854.717,441.011,854.717z M439.43,834.385c-4.192,0-4.819,4.293-4.819,6.854
						c0,3.324,3.834,4.818,4.819,4.818l1.581,0.025l0,0c1.163,0,2.61-0.088,3.521-0.789c1.128-0.865,1.749-3.023,1.749-6.088
						C446.28,837.577,444.211,834.385,439.43,834.385z"/>
					<path fill="#60257E" d="M508.092,786.553c0-0.863,0.069-1.699,0.188-2.508l-8.22,6.154l5.18,6.91l5.663-4.236
						C509.3,791.366,508.092,789.264,508.092,786.553z"/>
					<path fill="#60257E" d="M518.809,800.03L518.809,800.03l-1.574-0.021c-5.621,0-13.458-5.119-13.458-13.455
						c-0.002-9.266,5.406-15.488,13.45-15.488c9.564,0,15.488,6.984,15.488,13.461c0,5.971-1.725,10.324-5.124,12.932
						C524.588,799.764,521.141,800.03,518.809,800.03z M517.227,779.7c-4.19,0-4.819,4.293-4.819,6.854
						c0,3.324,3.836,4.82,4.819,4.82l1.582,0.02l0,0c1.161,0,2.619-0.088,3.525-0.785c1.125-0.861,1.752-3.025,1.752-6.086
						C524.086,782.893,522.012,779.7,517.227,779.7z"/>
					<path fill="#60257E" d="M466.23,934.127c2.868,0,5.21,0.846,7.019,2.102l7.116-35.561c-0.806,0.016-1.527-0.018-2.077-0.018
						c-1.654,0-4.195-0.904-6.185-2.695l-7.271,36.318C465.288,934.209,465.736,934.127,466.23,934.127z"/>
					<path fill="#60257E" d="M519.209,950.586l-4.595-8.184l-7.528,4.232l4.877,8.684
						C513.315,952.575,515.729,950.766,519.209,950.586z"/>
					<path fill="#60257E" d="M510.823,963.502c-0.12-0.574-0.202-1.166-0.202-1.805c0-2.592,0.557-4.943,1.615-6.836l-34.856-11.785
						c0,0.061,0.023,0.129,0.023,0.189c0,3.984-0.876,6.545-2.151,8.201L510.823,963.502z"/>
					<path fill="#60257E" d="M530.928,959.67c0,0.289-0.022,0.535-0.033,0.812l3.874-2.066l-4.062-7.623l-3.729,1.988
						C529.521,954.633,530.928,957.311,530.928,959.67z"/>
					<path fill="#60257E" d="M613.771,906.512l-24.603,50.574c3.449,0.311,6.083,1.822,7.762,3.785l23.751-48.818
						C618.264,911.471,615.15,909.624,613.771,906.512z"/>
					<path fill="#60257E" d="M520.233,792.633l-8.476,1.662l6.479,33.047c3.557,0.176,6.606,0.934,9.205,2.086L520.233,792.633z"/>
					<path fill="#60257E" d="M486.449,883.325c1.957,1.789,3.005,4.1,3.005,6.156c0,0.719-0.029,1.379-0.085,2.002l17.675-8.055
						c-1.758-2.188-3.52-4.592-5.18-7.129L486.449,883.325z"/>
					<path fill="#60257E" d="M493.038,849.749l-42.64-7.662c-0.732,5.518-3.572,7.406-6.338,8.02l26.235,35.613
						c1.246-2.846,3.558-4.787,6.944-5.131l-21.142-28.703l37.787,6.789c-0.584-2.523-0.921-5.086-0.921-7.652
						C492.974,850.592,493.016,850.17,493.038,849.749z"/>
					<path fill="#60257E" d="M517.784,950.733c0.619-0.127,1.271-0.207,1.974-0.207c2.611,0,4.8,0.689,6.535,1.76l5.528-47.822
						c-1.968-0.248-4.251-1.297-8.187-4.395L517.784,950.733z"/>
					<path fill="#60257E" d="M580.295,961.491c1.421-2.662,3.852-4.406,7.381-4.49l-39.688-61.533
						c-2.109,1.977-4.413,3.943-6.704,5.541L580.295,961.491z"/>
					<polygon fill="#60257E" points="533.598,889.096 533.697,888.235 533.237,888.532 					"/>
					<path fill="#60257E" d="M606.927,808.272c-2.386,2.885-6.045,2.824-8.211,2.781l18.35,78.582l-48.666-20.969
						c-1.259,2.639-2.701,5.172-4.241,7.576l49.854,21.479c1.3-3.432,3.979-5.777,8.187-5.777c1.662,0,3.137,0.305,4.453,0.775
						L606.927,808.272z"/>
					<path fill="#60257E" d="M568.961,838.043l26.527-27.529c-2.429-0.889-5.156-2.914-6.152-6.064l-26.354,27.35
						C565.331,833.504,567.36,835.612,568.961,838.043z"/>
				</g>
				<path fill="#FFFFFF" d="M549.098,834.833c-13.492,0-16.188,11.873-16.188,11.873s-2.16-11.873-16.188-11.873
					c-8.945,0-16.191,7.246-16.191,16.189c0,21.135,29.504,45.961,32.38,45.961c3.956,0,32.38-25.096,32.38-45.961
					C565.287,842.079,558.036,834.833,549.098,834.833z"/>
			</g>
		</g>
		<g>
			<path fill="#FFFFFF" d="M469.99,1015.176c0,5.68-4.012,9.582-9.831,9.582c-5.854,0-9.865-3.902-9.865-9.582
				c0-5.713,4.011-9.582,9.865-9.582C465.979,1005.594,469.99,1009.463,469.99,1015.176z M454.373,1015.211
				c0,3.656,2.38,6.141,5.785,6.141c3.371,0,5.749-2.482,5.749-6.141c0-3.619-2.378-6.104-5.749-6.104
				C456.753,1009.108,454.373,1011.592,454.373,1015.211z"/>
			<path fill="#FFFFFF" d="M494.116,1015.247c0,5.643-3.549,9.512-8.943,9.512c-3.018,0-5.288-1.207-6.671-3.406v10.15h-4.082
				v-25.766h4.082V1009c1.383-2.199,3.653-3.406,6.602-3.406C490.461,1005.594,494.116,1009.499,494.116,1015.247z
				 M489.998,1015.104c0-3.514-2.377-6.104-5.747-6.104c-3.372,0-5.749,2.555-5.749,6.104c0,3.656,2.377,6.178,5.749,6.178
				C487.621,1021.28,489.998,1018.725,489.998,1015.104z"/>
			<path fill="#FFFFFF" d="M514.979,1016.739h-14.268c0.639,2.908,2.875,4.719,5.854,4.719c2.06,0,3.938-0.781,5.323-2.199
				l2.164,2.307c-1.847,2.021-4.543,3.193-7.809,3.193c-5.819,0-9.652-3.869-9.652-9.547c0-5.713,3.939-9.582,9.547-9.617
				C512.777,1005.594,515.475,1009.924,514.979,1016.739z M511.429,1013.756c-0.144-3.051-2.165-4.895-5.253-4.895
				c-2.979,0-5.074,1.881-5.536,4.895H511.429z"/>
			<path fill="#FFFFFF" d="M537.295,1012.87v11.746h-4.082v-10.611c0-2.84-1.703-4.578-4.543-4.578
				c-3.122,0.037-5.074,2.201-5.357,5.146v10.045h-4.081v-18.881h4.081v3.621c1.349-2.629,3.762-3.766,6.955-3.766
				C534.668,1005.594,537.295,1008.364,537.295,1012.87z"/>
			<path fill="#60257E" d="M558.299,1008.682l-2.236,2.627c-1.313-1.35-3.123-2.166-5.396-2.131c-3.265,0-5.604,2.449-5.604,6.033
				s2.342,6.033,5.604,6.033c2.38,0,4.295-0.779,5.572-2.271l2.271,2.271c-1.702,2.236-4.436,3.514-8.021,3.514
				c-5.606,0-9.511-3.869-9.511-9.547c0-5.713,3.902-9.617,9.511-9.617C553.896,1005.594,556.56,1006.694,558.299,1008.682z"/>
			<path fill="#60257E" d="M573.305,1022.309c-1.351,1.67-3.514,2.484-6.246,2.484c-4.08,0-6.636-2.52-6.636-5.854
				c0-3.443,2.59-5.646,7.133-5.682h5.714v-0.564c0-2.379-1.524-3.801-4.507-3.801c-1.811,0-3.69,0.641-5.571,1.918l-1.668-2.84
				c2.627-1.562,4.541-2.379,8.125-2.379c4.863,0,7.596,2.484,7.633,6.639l0.035,12.387h-4.012V1022.309L573.305,1022.309z
				 M573.27,1017.981v-1.74h-5.11c-2.661,0-3.902,0.711-3.902,2.52c0,1.705,1.384,2.807,3.654,2.807
				C570.82,1021.565,573.057,1020.038,573.27,1017.981z"/>
			<path fill="#60257E" d="M586.856,1009.499c1.276-2.557,3.549-3.904,6.529-3.904v3.904c-3.798-0.213-6.211,2.02-6.529,5.252v9.865
				h-4.081v-18.879h4.081V1009.499z"/>
			<path fill="#60257E" d="M613.363,1016.739h-14.269c0.641,2.908,2.875,4.719,5.854,4.719c2.061,0,3.938-0.781,5.324-2.199
				l2.163,2.307c-1.845,2.021-4.542,3.193-7.808,3.193c-5.819,0-9.652-3.869-9.652-9.547c0-5.713,3.938-9.582,9.548-9.617
				C611.161,1005.594,613.859,1009.924,613.363,1016.739z M609.814,1013.756c-0.144-3.051-2.166-4.895-5.254-4.895
				c-2.98,0-5.074,1.881-5.535,4.895H609.814z"/>
		</g>
	</g>
	<circle fill="#5F267F" cx="800.51" cy="587.37" r="70.58"/>
	<circle fill="#5F267F" cx="531.827" cy="495.776" r="91.068"/>
	<circle fill="#5F267F" cx="104.556" cy="495.775" r="52.846"/>
	<circle fill="#5F267F" cx="307.449" cy="359.832" r="63.094"/>
	<circle fill="#5F267F" cx="264.358" cy="587.37" r="70.58"/>
	<circle fill="#5F267F" cx="981.443" cy="495.775" r="52.846"/>
	<path fill="#5F267F" d="M694.323,359.833c0,34.848,28.248,63.096,63.095,63.096c34.846,0,63.094-28.248,63.094-63.096
		c0-34.85-28.248-63.096-63.094-63.096S694.323,324.983,694.323,359.833z"/>
	<path fill="#E4E6F0" d="M516.689,1272.795l27.771-48.092c-4.072-0.871-8.267-1.396-12.63-1.396
		c-13.975,0-26.782,4.951-36.801,13.102l21.312,36.971L516.689,1272.795z M587.365,1264.063
		c-5.353-16.996-18.328-30.625-34.935-36.91l-21.301,36.91H587.365z M588.883,1269.885h-43.606l1.69,2.91l27.709,48.033
		c9.551-10.363,15.373-24.107,15.373-39.299C590.049,1277.512,589.639,1273.668,588.883,1269.885z M511.678,1281.53l-22.696-39.299
		c-9.49,10.361-15.373,24.105-15.373,39.299c0,4.018,0.409,7.859,1.17,11.645h43.604L511.678,1281.53z M476.29,1298.997
		c5.353,16.996,18.328,30.625,34.935,36.91l21.302-36.91H476.29z M541.896,1298.997l-22.699,39.359
		c4.072,0.869,8.267,1.395,12.633,1.395c13.972,0,26.779-4.951,36.798-13.1l-21.312-36.975L541.896,1298.997z"/>
	<g>
		<path fill="#5F267F" d="M505.729,390.168h-5.615v-9.936l-8.712-15.229h6.084l5.437,9.359l5.438-9.359h6.084l-8.712,15.229
			L505.729,390.168L505.729,390.168z"/>
		<path fill="#5F267F" d="M537.407,386.693c-2.544,2.483-5.677,3.727-9.396,3.727c-3.721,0-6.854-1.242-9.396-3.727
			c-2.545-2.484-3.815-5.574-3.815-9.271s1.271-6.787,3.815-9.27c2.543-2.484,5.676-3.728,9.396-3.728s6.853,1.242,9.396,3.728
			c2.544,2.481,3.815,5.573,3.815,9.27C541.224,381.119,539.951,384.209,537.407,386.693z M535.5,377.441
			c0-2.244-0.72-4.158-2.16-5.742c-1.438-1.584-3.209-2.375-5.31-2.375c-2.103,0-3.871,0.791-5.312,2.375
			c-1.439,1.584-2.16,3.498-2.16,5.742c0,2.243,0.722,4.151,2.16,5.725s3.209,2.357,5.312,2.357c2.101,0,3.869-0.785,5.31-2.357
			C534.781,381.594,535.5,379.686,535.5,377.441z"/>
		<path fill="#5F267F" d="M552.636,383.67c0.938,1.164,2.195,1.746,3.78,1.746c1.584,0,2.838-0.582,3.762-1.746
			s1.388-2.754,1.388-4.77v-13.896h5.614v14.076c0,3.648-1.008,6.449-3.022,8.406c-2.018,1.955-4.597,2.934-7.739,2.934
			c-3.146,0-5.729-0.984-7.759-2.953c-2.028-1.967-3.043-4.764-3.043-8.387v-14.076h5.617V378.9
			C551.232,380.916,551.698,382.506,552.636,383.67z"/>
	</g>
	<g>
		<path fill="#5F267F" d="M485.215,1433.754h5.65v8.93c-2.496,2.783-5.952,4.178-10.368,4.178c-3.694,0-6.798-1.227-9.306-3.674
			c-2.51-2.447-3.764-5.537-3.764-9.271c0-3.73,1.278-6.846,3.835-9.342s5.641-3.744,9.252-3.744c3.612,0,6.75,1.188,9.413,3.562
			l-2.915,4.215c-1.128-0.984-2.167-1.662-3.114-2.035c-0.947-0.371-1.975-0.559-3.077-0.559c-2.138,0-3.937,0.727-5.399,2.18
			c-1.465,1.449-2.195,3.363-2.195,5.74c0,2.375,0.701,4.277,2.104,5.705c1.404,1.43,3.078,2.145,5.021,2.145
			c1.944,0,3.562-0.373,4.86-1.117L485.215,1433.754L485.215,1433.754z"/>
		<path fill="#5F267F" d="M517.038,1443.098c-2.545,2.482-5.677,3.727-9.396,3.727c-3.721,0-6.854-1.242-9.396-3.727
			c-2.544-2.482-3.815-5.572-3.815-9.271c0-3.695,1.271-6.785,3.815-9.271c2.545-2.482,5.677-3.727,9.396-3.727
			c3.72,0,6.853,1.242,9.396,3.727s3.815,5.574,3.815,9.271S519.581,1440.614,517.038,1443.098z M515.131,1433.846
			c0-2.244-0.722-4.158-2.16-5.742c-1.439-1.584-3.211-2.375-5.312-2.375s-3.868,0.791-5.311,2.375
			c-1.441,1.584-2.159,3.498-2.159,5.742s0.72,4.152,2.159,5.725c1.439,1.57,3.21,2.357,5.311,2.357s3.87-0.787,5.312-2.357
			C514.409,1437.999,515.131,1436.09,515.131,1433.846z"/>
		<path fill="#5F267F" d="M542.777,1446.571l-2.341-5.438H529.89l-2.341,5.438h-5.977l10.871-25.164h5.438l10.871,25.164H542.777z
			 M535.182,1428.897l-3.168,7.307h6.302L535.182,1428.897z"/>
		<path fill="#5F267F" d="M551.67,1446.571v-25.164h5.615v20.16h10.729v5.004H551.67L551.67,1446.571z"/>
		<path fill="#5F267F" d="M578.003,1426.43c-0.54,0.443-0.811,1.031-0.811,1.766c0,0.73,0.329,1.311,0.989,1.746
			c0.659,0.432,2.185,0.939,4.571,1.527c2.387,0.59,4.241,1.473,5.562,2.646c1.318,1.176,1.979,2.893,1.979,5.146
			c0,2.258-0.847,4.088-2.538,5.49c-1.69,1.404-3.918,2.105-6.679,2.105c-3.983,0-7.571-1.479-10.765-4.43l3.349-4.104
			c2.713,2.377,5.221,3.562,7.523,3.562c1.031,0,1.843-0.221,2.431-0.666c0.588-0.441,0.882-1.043,0.882-1.801
			c0-0.756-0.312-1.354-0.937-1.799c-0.625-0.443-1.859-0.896-3.707-1.352c-2.93-0.695-5.07-1.604-6.427-2.719
			c-1.355-1.115-2.034-2.867-2.034-5.256s0.857-4.229,2.574-5.525c1.715-1.297,3.856-1.943,6.426-1.943
			c1.681,0,3.359,0.289,5.04,0.865c1.681,0.574,3.145,1.393,4.393,2.445l-2.844,4.105c-2.186-1.656-4.439-2.484-6.77-2.484
			C579.281,1425.764,578.543,1425.985,578.003,1426.43z"/>
	</g>
	<path fill="#E4E8F1" d="M531.827,495.776c15.25,0,27.595-12.353,27.595-27.596c0-15.241-12.345-27.594-27.595-27.594
		c-15.254,0-27.594,12.353-27.594,27.594C504.234,483.425,516.573,495.776,531.827,495.776z M531.827,509.573
		c-18.414,0-55.188,9.243-55.188,27.594v13.797h110.375v-13.797C587.016,518.816,550.241,509.573,531.827,509.573z"/>
</g>
<g id="Icone">
	<path fill="#E4E6F0" d="M346.144,1209.256l-32.824-32.818c3.248-8.301,1.445-18.035-5.41-24.891
		c-7.213-7.215-18.031-8.658-26.687-4.688l15.507,15.508l-10.818,10.82l-15.871-15.51c-4.326,8.654-2.521,19.477,4.69,26.689
		c6.853,6.854,16.59,8.656,24.884,5.41l32.824,32.822c1.441,1.441,3.607,1.441,5.049,0l8.295-8.295
		C347.585,1212.864,347.585,1210.338,346.144,1209.256z"/>
	<path fill="#E4E6F0" d="M302.504,1409.258h-5.832v-15.551c0-4.279-3.5-7.775-7.775-7.775h-15.551v-5.832
		c0-5.367-4.354-9.721-9.719-9.721c-5.365,0-9.721,4.354-9.721,9.721v5.832h-15.552c-4.274,0-7.735,3.496-7.735,7.775v14.768h5.793
		c5.793,0,10.498,4.709,10.498,10.502s-4.705,10.494-10.498,10.494h-5.832v14.775c0,4.275,3.5,7.775,7.774,7.775h14.773v-5.83
		c0-5.795,4.703-10.502,10.498-10.502c5.793,0,10.496,4.707,10.496,10.502v5.83h14.772c4.275,0,7.775-3.5,7.775-7.775v-15.551h5.832
		c5.364,0,9.719-4.357,9.719-9.721C312.223,1413.608,307.868,1409.258,302.504,1409.258z"/>
	<path fill="#E4E6F0" d="M838.509,1387.239h-8.444v37.996h-54.884v8.441c0,2.318,1.901,4.223,4.224,4.223h46.438l16.887,16.887
		v-63.324C842.729,1389.141,840.824,1387.239,838.509,1387.239z M821.621,1412.569v-37.994c0-2.32-1.901-4.225-4.223-4.225h-54.884
		c-2.319,0-4.223,1.902-4.223,4.225v59.104l16.887-16.887h42.22C819.72,1416.792,821.621,1414.889,821.621,1412.569z"/>
	<path fill="#E4E6F0" d="M977.584,1281.53v77.205c-19.572-1.932-34.744-18.492-34.744-38.604
		C942.84,1300.018,958.012,1283.459,977.584,1281.53z M985.42,1281.53v34.701h34.627
		C1018.232,1297.936,1003.68,1283.344,985.42,1281.53z M985.42,1324.034v34.701c18.301-1.814,32.812-16.406,34.627-34.701H985.42z"
		/>
	<path fill="#E4E6F0" d="M516.689,1272.795l27.771-48.092c-4.072-0.871-8.267-1.396-12.63-1.396
		c-13.975,0-26.782,4.951-36.801,13.102l21.312,36.971L516.689,1272.795z M587.365,1264.063
		c-5.353-16.996-18.328-30.625-34.935-36.91l-21.301,36.91H587.365z M588.883,1269.885h-43.606l1.69,2.91l27.709,48.033
		c9.551-10.363,15.373-24.107,15.373-39.299C590.049,1277.512,589.639,1273.668,588.883,1269.885z M511.678,1281.53l-22.696-39.299
		c-9.49,10.361-15.373,24.105-15.373,39.299c0,4.018,0.409,7.859,1.17,11.645h43.604L511.678,1281.53z M476.29,1298.997
		c5.353,16.996,18.328,30.625,34.935,36.91l21.302-36.91H476.29z M541.896,1298.997l-22.699,39.359
		c4.072,0.869,8.267,1.395,12.633,1.395c13.972,0,26.779-4.951,36.798-13.1l-21.312-36.975L541.896,1298.997z"/>
	<path fill="#E4E8F1" d="M531.827,495.776c15.25,0,27.595-12.353,27.595-27.596c0-15.241-12.345-27.594-27.595-27.594
		c-15.254,0-27.594,12.353-27.594,27.594C504.234,483.425,516.573,495.776,531.827,495.776z M531.827,509.573
		c-18.414,0-55.188,9.243-55.188,27.594v13.797h110.375v-13.797C587.016,518.816,550.241,509.573,531.827,509.573z"/>
	<path fill="#E4E8F1" d="M307.45,354.896c-2.733,0-4.935,2.199-4.935,4.938c0,2.734,2.2,4.935,4.935,4.935
		c2.733,0,4.935-2.199,4.935-4.935C312.385,357.096,310.185,354.896,307.45,354.896z M307.45,314.958
		c-24.77,0-44.875,20.104-44.875,44.875c0,24.77,20.105,44.875,44.875,44.875c24.769,0,44.874-20.105,44.874-44.875
		C352.324,335.062,332.219,314.958,307.45,314.958z M317.275,369.658l-36.749,17.1l17.1-36.752l36.748-17.098L317.275,369.658z"/>
	<path fill="#E4E8F1" d="M129.565,500.924c0.139-1.074,0.238-2.15,0.238-3.295s-0.101-2.223-0.238-3.298l7.1-5.554
		c0.642-0.504,0.812-1.414,0.407-2.154l-6.729-11.643c-0.408-0.741-1.312-1.012-2.057-0.741l-8.377,3.366
		c-1.756-1.35-3.639-2.457-5.689-3.301l-1.278-8.919c-0.096-0.809-0.808-1.413-1.646-1.413H97.832c-0.844,0-1.553,0.604-1.647,1.413
		l-1.281,8.919c-2.049,0.844-3.935,1.986-5.687,3.301l-8.378-3.366c-0.776-0.306-1.647,0-2.056,0.741l-6.731,11.643
		c-0.433,0.74-0.231,1.65,0.408,2.154l7.098,5.554c-0.135,1.075-0.235,2.187-0.235,3.298c0,1.11,0.102,2.221,0.235,3.295
		l-7.098,5.559c-0.641,0.504-0.812,1.408-0.408,2.153l6.731,11.642c0.407,0.742,1.31,1.012,2.056,0.742l8.378-3.363
		c1.752,1.346,3.638,2.453,5.687,3.295l1.281,8.922c0.096,0.807,0.806,1.411,1.647,1.411h13.462c0.84,0,1.552-0.604,1.646-1.411
		l1.278-8.922c2.052-0.842,3.935-1.984,5.689-3.295l8.377,3.363c0.774,0.305,1.647,0,2.057-0.742l6.729-11.642
		c0.403-0.745,0.233-1.649-0.407-2.153L129.565,500.924z M104.562,509.407c-6.494,0-11.776-5.284-11.776-11.778
		s5.282-11.779,11.776-11.779s11.779,5.285,11.779,11.779S111.056,509.407,104.562,509.407z"/>
	<path fill="#E4E8F1" d="M1010.402,478.321h-57.918c-3.54,0-6.435,2.896-6.435,6.436v25.742c0,3.54,2.895,6.436,6.435,6.436h57.918
		c3.539,0,6.436-2.896,6.436-6.436v-25.742C1016.837,481.217,1013.942,478.321,1010.402,478.321z M978.225,500.846h-9.65v9.653
		h-6.436v-9.653h-9.653v-6.436h9.653v-9.653h6.436v9.653h9.65V500.846z M992.704,507.28c-2.672,0-4.825-2.152-4.825-4.826
		c0-2.672,2.153-4.826,4.825-4.826c2.673,0,4.826,2.154,4.826,4.826C997.531,505.128,995.377,507.28,992.704,507.28z
		 M1005.575,497.628c-2.672,0-4.825-2.156-4.825-4.826c0-2.672,2.153-4.826,4.825-4.826c2.673,0,4.826,2.154,4.826,4.826
		C1010.402,495.472,1008.248,497.628,1005.575,497.628z"/>
	<path fill="#E4E8F1" d="M827.849,542.146h-54.68c-5.012,0-9.112,4.099-9.112,9.111v72.902c0,5.013,4.103,9.111,9.112,9.111h54.68
		c5.012,0,9.114-4.101,9.114-9.111v-72.9C836.963,546.245,832.859,542.146,827.849,542.146z M773.169,551.26h22.782v36.45
		l-11.394-6.834l-11.391,6.834L773.169,551.26L773.169,551.26z"/>
</g>
<g id="Scritte">
	<g>
		<path fill="#E4E8F1" d="M733.432,351.578l-0.989,2.449h-2.936l5.475-12.604h2.936l5.384,12.604h-3.043l-0.99-2.449H733.432z
			 M736.365,344.394l-1.998,4.897h3.979L736.365,344.394z"/>
		<path fill="#E4E8F1" d="M752.46,346.285l-1.873,1.35c-0.521-0.647-1.261-1.044-2.214-1.025c-1.352,0-2.306,1.044-2.306,2.593
			c0,1.566,0.954,2.629,2.306,2.629c0.989,0,1.764-0.378,2.25-1.134l1.908,1.296c-0.812,1.351-2.322,2.143-4.305,2.143
			c-2.935,0-4.934-1.979-4.934-4.916c0-2.971,1.999-4.969,4.97-4.969C750.118,344.25,751.596,344.988,752.46,346.285z"/>
		<path fill="#E4E8F1" d="M760.253,353.487c-0.721,0.414-1.62,0.666-2.521,0.666c-1.729,0-3.043-0.99-3.043-2.989v-4.483h-1.352
			v-1.909h1.352v-2.664h2.755v2.664h2.629v1.928h-2.629v3.997c0,0.81,0.342,1.134,0.938,1.115c0.358,0,0.792-0.126,1.296-0.359
			L760.253,353.487z"/>
		<path fill="#E4E8F1" d="M764.806,341.585c0,0.9-0.611,1.549-1.493,1.549c-0.883,0-1.494-0.647-1.494-1.549
			c0-0.9,0.611-1.548,1.494-1.548C764.194,340.037,764.806,340.685,764.806,341.585z M761.925,354.027v-9.688h2.772v9.688H761.925z"
			/>
		<path fill="#E4E8F1" d="M769.646,354.027l-3.673-9.669l2.862-0.019l2.286,7.059l2.27-7.059h2.756l-3.655,9.688H769.646z"/>
		<path fill="#E4E8F1" d="M785.956,350.03h-6.949c0.323,1.224,1.261,1.943,2.503,1.943c0.918,0,1.781-0.359,2.447-1.025l1.459,1.477
			c-0.973,1.081-2.395,1.71-4.142,1.71c-3.098,0-5.061-1.979-5.061-4.916c0-2.988,2.034-4.969,4.986-4.969
			C784.606,344.25,786.191,346.5,785.956,350.03z M783.364,348.391c-0.036-1.277-0.863-2.105-2.144-2.105
			c-1.226,0-2.053,0.828-2.27,2.105H783.364z"/>
		<path fill="#E4E8F1" d="M738.519,370.874c0,2.863-1.801,4.826-4.536,4.826c-1.53,0-2.684-0.612-3.386-1.729v5.149h-2.07v-13.072
			h2.07v1.657c0.702-1.116,1.854-1.729,3.35-1.729C736.663,365.976,738.519,367.957,738.519,370.874z M736.43,370.802
			c0-1.783-1.206-3.097-2.916-3.097c-1.711,0-2.917,1.296-2.917,3.097c0,1.854,1.206,3.133,2.917,3.133
			C735.224,373.935,736.43,372.638,736.43,370.802z"/>
		<path fill="#E4E8F1" d="M749.104,371.63h-7.238c0.324,1.478,1.458,2.396,2.972,2.396c1.045,0,1.999-0.396,2.7-1.116l1.1,1.17
			c-0.938,1.026-2.306,1.621-3.962,1.621c-2.952,0-4.896-1.963-4.896-4.844c0-2.899,1.999-4.861,4.845-4.88
			C747.986,365.976,749.354,368.173,749.104,371.63z M747.302,370.117c-0.071-1.548-1.1-2.484-2.665-2.484
			c-1.512,0-2.573,0.954-2.81,2.484H747.302z"/>
		<path fill="#E4E8F1" d="M760.354,370.837c0,2.881-2.034,4.862-4.987,4.862c-2.972,0-5.006-1.981-5.006-4.862
			c0-2.898,2.034-4.861,5.006-4.861C758.318,365.976,760.354,367.938,760.354,370.837z M752.431,370.855
			c0,1.854,1.206,3.114,2.936,3.114c1.711,0,2.917-1.261,2.917-3.114c0-1.837-1.206-3.098-2.917-3.098
			C753.637,367.759,752.431,369.019,752.431,370.855z"/>
		<path fill="#E4E8F1" d="M772.593,370.874c0,2.863-1.802,4.826-4.537,4.826c-1.529,0-2.683-0.612-3.385-1.729v5.149H762.6v-13.072
			h2.071v1.657c0.701-1.116,1.854-1.729,3.349-1.729C770.738,365.976,772.593,367.957,772.593,370.874z M770.504,370.802
			c0-1.783-1.206-3.097-2.916-3.097c-1.711,0-2.917,1.296-2.917,3.097c0,1.854,1.206,3.133,2.917,3.133
			C769.298,373.935,770.504,372.638,770.504,370.802z"/>
		<path fill="#E4E8F1" d="M774.84,375.627v-13.36h2.07v13.36H774.84z"/>
		<path fill="#E4E8F1" d="M788.486,371.63h-7.237c0.323,1.478,1.459,2.396,2.971,2.396c1.045,0,1.999-0.396,2.701-1.116l1.099,1.17
			c-0.937,1.026-2.305,1.621-3.962,1.621c-2.951,0-4.896-1.963-4.896-4.844c0-2.899,1.999-4.861,4.845-4.88
			C787.369,365.976,788.738,368.173,788.486,371.63z M786.686,370.117c-0.071-1.548-1.098-2.484-2.664-2.484
			c-1.513,0-2.574,0.954-2.81,2.484H786.686z"/>
	</g>
	<g>
		<path fill="#E4E8F1" d="M217.398,570.24c3.169,0,4.988,1.565,4.988,4.304c0,2.845-1.819,4.501-4.988,4.501H214.5v3.799h-2.125
			V570.24H217.398z M214.5,577.137h2.809c1.944,0,3.043-0.829,3.043-2.539c0-1.654-1.099-2.447-3.043-2.447H214.5V577.137z"/>
		<path fill="#E4E8F1" d="M232.79,578.847h-7.238c0.324,1.478,1.458,2.396,2.971,2.396c1.045,0,1.999-0.396,2.701-1.116l1.099,1.17
			c-0.938,1.026-2.305,1.62-3.962,1.62c-2.951,0-4.896-1.962-4.896-4.843c0-2.899,1.999-4.861,4.844-4.879
			C231.674,573.193,233.042,575.39,232.79,578.847z M230.989,577.334c-0.071-1.548-1.099-2.485-2.664-2.485
			c-1.513,0-2.574,0.955-2.81,2.485H230.989z"/>
		<path fill="#E4E8F1" d="M244.04,578.055c0,2.881-2.034,4.861-4.987,4.861c-2.971,0-5.006-1.98-5.006-4.861
			c0-2.897,2.035-4.859,5.006-4.859C242.006,573.193,244.04,575.156,244.04,578.055z M236.118,578.073
			c0,1.854,1.206,3.114,2.935,3.114c1.711,0,2.917-1.261,2.917-3.114c0-1.836-1.206-3.099-2.917-3.099
			C237.324,574.976,236.118,576.236,236.118,578.073z"/>
		<path fill="#E4E8F1" d="M256.28,578.091c0,2.863-1.801,4.825-4.536,4.825c-1.53,0-2.684-0.612-3.386-1.729v5.148h-2.07v-13.072
			h2.07v1.656c0.702-1.116,1.854-1.729,3.35-1.729C254.426,573.193,256.28,575.174,256.28,578.091z M254.191,578.019
			c0-1.78-1.206-3.097-2.916-3.097c-1.711,0-2.917,1.296-2.917,3.097c0,1.855,1.206,3.135,2.917,3.135
			C252.985,581.152,254.191,579.855,254.191,578.019z"/>
		<path fill="#E4E8F1" d="M258.527,582.844v-13.358h2.071v13.358H258.527z"/>
		<path fill="#E4E8F1" d="M272.174,578.847h-7.238c0.324,1.478,1.459,2.396,2.972,2.396c1.045,0,1.998-0.396,2.7-1.116l1.1,1.17
			c-0.938,1.026-2.306,1.62-3.962,1.62c-2.952,0-4.897-1.962-4.897-4.843c0-2.899,1.999-4.861,4.844-4.879
			C271.058,573.193,272.426,575.39,272.174,578.847z M270.373,577.334c-0.072-1.548-1.099-2.485-2.665-2.485
			c-1.513,0-2.574,0.955-2.81,2.485H270.373z"/>
		<path fill="#E4E8F1" d="M287.978,582.844l-2.431-7.094l-2.431,7.094h-2.125l-3.529-9.579h2.125l2.483,7.526l2.413-7.526h2.144
			l2.431,7.526l2.449-7.526h2.105l-3.492,9.579H287.978z"/>
		<path fill="#E4E8F1" d="M297.281,570.528c0,0.721-0.521,1.243-1.205,1.243c-0.686,0-1.206-0.522-1.206-1.243
			c0-0.738,0.521-1.262,1.206-1.262C296.76,569.268,297.281,569.791,297.281,570.528z M295.049,582.844v-9.579h2.053v9.579H295.049z
			"/>
		<path fill="#E4E8F1" d="M305.58,582.232c-0.757,0.448-1.549,0.7-2.357,0.7c-1.44,0-2.685-0.827-2.685-2.791v-4.97h-1.35v-1.548
			h1.35v-2.629h2.054v2.629h2.827v1.548h-2.827v4.591c0,0.991,0.378,1.297,1.025,1.297c0.434,0,0.884-0.145,1.44-0.413
			L305.58,582.232z"/>
		<path fill="#E4E8F1" d="M316.76,576.884v5.96h-2.07v-5.384c0-1.44-0.864-2.323-2.305-2.323c-1.71,0.02-2.736,1.297-2.736,2.989
			v4.717h-2.071v-13.358h2.071v5.651c0.684-1.35,1.908-1.942,3.547-1.942C315.428,573.193,316.76,574.598,316.76,576.884z"/>
		<path fill="#E4E8F1" d="M211.163,595.712l-0.954,1.891c-1.062-0.594-2.144-0.937-2.953-0.937c-0.648,0-1.116,0.216-1.116,0.72
			c0,1.458,5.113,0.72,5.096,4.143c0,1.979-1.747,3.023-3.942,3.023c-1.566,0-3.098-0.468-4.195-1.35l0.9-1.873
			c1.008,0.772,2.305,1.206,3.366,1.206c0.702,0,1.225-0.234,1.225-0.756c0-1.548-5.023-0.722-5.023-4.123
			c0-1.999,1.711-3.025,3.817-3.025C208.714,594.631,210.083,595.027,211.163,595.712z"/>
		<path fill="#E4E8F1" d="M223.565,599.655c0,2.935-1.781,4.896-4.501,4.896c-1.351,0-2.413-0.54-3.114-1.512v4.896h-2.772v-13.18
			h2.772v1.422c0.685-0.972,1.745-1.512,3.061-1.512C221.729,594.667,223.565,596.666,223.565,599.655z M220.757,599.565
			c0-1.55-0.973-2.665-2.396-2.665c-1.423,0-2.412,1.099-2.412,2.665c0,1.603,0.989,2.683,2.412,2.683
			C219.784,602.248,220.757,601.149,220.757,599.565z"/>
		<path fill="#E4E8F1" d="M234.311,600.447h-6.95c0.324,1.224,1.262,1.942,2.503,1.942c0.919,0,1.782-0.358,2.448-1.024l1.459,1.477
			c-0.973,1.081-2.395,1.71-4.142,1.71c-3.097,0-5.061-1.979-5.061-4.916c0-2.989,2.035-4.969,4.987-4.969
			C232.96,594.667,234.545,596.918,234.311,600.447z M231.718,598.809c-0.036-1.276-0.864-2.104-2.143-2.104
			c-1.226,0-2.054,0.828-2.27,2.104H231.718z"/>
		<path fill="#E4E8F1" d="M244.48,596.702l-1.873,1.35c-0.521-0.646-1.26-1.044-2.214-1.024c-1.351,0-2.305,1.044-2.305,2.593
			c0,1.564,0.954,2.628,2.305,2.628c0.99,0,1.766-0.378,2.25-1.134l1.909,1.296c-0.811,1.351-2.323,2.143-4.304,2.143
			c-2.936,0-4.935-1.979-4.935-4.916c0-2.971,1.999-4.969,4.971-4.969C242.14,594.667,243.616,595.406,244.48,596.702z"/>
		<path fill="#E4E8F1" d="M249.158,592.002c0,0.9-0.611,1.549-1.494,1.549c-0.882,0-1.494-0.646-1.494-1.549
			c0-0.9,0.612-1.548,1.494-1.548C248.547,590.454,249.158,591.104,249.158,592.002z M246.277,604.444v-9.688h2.773v9.688H246.277z"
			/>
		<path fill="#E4E8F1" d="M257.331,603.31c-0.648,0.812-1.692,1.262-3.043,1.262c-2.07,0-3.331-1.262-3.331-3.025
			c0-1.818,1.313-2.897,3.69-2.917h2.664v-0.18c0-1.026-0.684-1.621-2.017-1.621c-0.864,0-1.872,0.288-2.881,0.846l-0.864-1.909
			c1.439-0.72,2.684-1.114,4.376-1.114c2.593,0,4.087,1.296,4.104,3.475l0.02,6.32h-2.719L257.331,603.31L257.331,603.31z
			 M257.312,601.131v-0.864h-2.178c-1.062,0-1.585,0.324-1.585,1.1c0,0.736,0.576,1.225,1.513,1.225
			C256.232,602.59,257.15,601.959,257.312,601.131z"/>
		<path fill="#E4E8F1" d="M262.531,604.444v-13.36h2.772v13.36H262.531z"/>
		<path fill="#E4E8F1" d="M282.081,598.358v6.086h-2.772v-5.275c0-1.225-0.721-1.981-1.908-1.981
			c-1.387,0.02-2.215,1.062-2.215,2.485v4.771h-2.772v-9.688h2.772v1.693c0.685-1.207,1.836-1.783,3.35-1.803
			C280.695,594.649,282.081,596.09,282.081,598.358z"/>
		<path fill="#E4E8F1" d="M293.385,600.447h-6.95c0.324,1.224,1.261,1.942,2.503,1.942c0.918,0,1.782-0.358,2.448-1.024l1.459,1.477
			c-0.973,1.081-2.395,1.71-4.142,1.71c-3.098,0-5.061-1.979-5.061-4.916c0-2.989,2.035-4.969,4.987-4.969
			C292.034,594.667,293.619,596.918,293.385,600.447z M290.792,598.809c-0.036-1.276-0.864-2.104-2.144-2.104
			c-1.225,0-2.053,0.828-2.269,2.104H290.792z"/>
		<path fill="#E4E8F1" d="M304.131,600.447h-6.95c0.324,1.224,1.261,1.942,2.503,1.942c0.918,0,1.782-0.358,2.448-1.024l1.459,1.477
			c-0.974,1.081-2.396,1.71-4.143,1.71c-3.097,0-5.06-1.979-5.06-4.916c0-2.989,2.035-4.969,4.987-4.969
			C302.78,594.667,304.365,596.918,304.131,600.447z M301.537,598.809c-0.035-1.276-0.863-2.104-2.143-2.104
			c-1.225,0-2.053,0.828-2.269,2.104H301.537z"/>
		<path fill="#E4E8F1" d="M315.525,604.444h-2.755v-1.423c-0.685,0.989-1.729,1.529-3.062,1.529c-2.755,0-4.572-1.999-4.572-4.985
			c0-2.953,1.801-4.916,4.502-4.916c1.368,0,2.431,0.54,3.133,1.528v-5.095h2.755L315.525,604.444L315.525,604.444z
			 M312.771,599.637c0-1.584-0.99-2.683-2.413-2.683c-1.439,0-2.431,1.116-2.448,2.683c0.019,1.584,0.99,2.685,2.448,2.685
			C311.78,602.32,312.771,601.221,312.771,599.637z"/>
		<path fill="#E4E8F1" d="M325.353,595.712l-0.954,1.891c-1.062-0.594-2.143-0.937-2.953-0.937c-0.647,0-1.116,0.216-1.116,0.72
			c0,1.458,5.113,0.72,5.097,4.143c0,1.979-1.747,3.023-3.943,3.023c-1.566,0-3.097-0.468-4.195-1.35l0.9-1.873
			c1.008,0.772,2.305,1.206,3.367,1.206c0.702,0,1.224-0.234,1.224-0.756c0-1.548-5.022-0.722-5.022-4.123
			c0-1.999,1.711-3.025,3.816-3.025C322.903,594.631,324.272,595.027,325.353,595.712z"/>
	</g>
	<g>
		<path fill="#E4E8F1" d="M734.172,1168.399l-1.1,2.357c-1.332-0.791-2.917-1.297-3.925-1.297c-0.954,0-1.604,0.342-1.604,1.027
			c0,2.322,6.716,1.023,6.697,5.562c0,2.467-2.144,3.799-4.935,3.799c-2.069,0-4.143-0.793-5.562-2l1.135-2.32
			c1.297,1.15,3.133,1.891,4.466,1.891c1.17,0,1.872-0.432,1.872-1.207c0-2.377-6.716-0.99-6.716-5.455
			c0-2.287,1.963-3.729,4.88-3.729C731.146,1167.03,732.91,1167.571,734.172,1168.399z"/>
		<path fill="#E4E8F1" d="M745.962,1173.674v6.086h-2.771v-5.273c0-1.227-0.722-1.982-1.909-1.982
			c-1.387,0.02-2.231,1.062-2.231,2.486v4.77h-2.771v-13.359h2.771v5.383c0.686-1.207,1.837-1.801,3.35-1.818
			C744.574,1169.965,745.962,1171.407,745.962,1173.674z"/>
		<path fill="#E4E8F1" d="M753.951,1178.625c-0.647,0.811-1.691,1.26-3.043,1.26c-2.069,0-3.331-1.26-3.331-3.023
			c0-1.818,1.313-2.898,3.69-2.916h2.664v-0.182c0-1.025-0.685-1.621-2.018-1.621c-0.863,0-1.872,0.287-2.881,0.848l-0.863-1.91
			c1.439-0.721,2.684-1.115,4.376-1.115c2.593,0,4.087,1.295,4.104,3.475l0.02,6.32h-2.72L753.951,1178.625L753.951,1178.625z
			 M753.934,1176.448v-0.865h-2.178c-1.062,0-1.585,0.324-1.585,1.098c0,0.738,0.575,1.227,1.513,1.227
			C752.854,1177.907,753.771,1177.276,753.934,1176.448z"/>
		<path fill="#E4E8F1" d="M761.835,1171.821c0.666-1.189,1.765-1.836,3.204-1.855v2.611c-1.98-0.182-3.204,0.883-3.204,2.521v4.664
			h-2.772v-9.688h2.772V1171.821z"/>
		<path fill="#E4E8F1" d="M775.462,1175.762h-6.95c0.324,1.227,1.262,1.945,2.503,1.945c0.918,0,1.782-0.361,2.448-1.027
			l1.459,1.479c-0.974,1.082-2.396,1.711-4.143,1.711c-3.098,0-5.061-1.98-5.061-4.916c0-2.99,2.034-4.971,4.986-4.971
			C774.111,1169.983,775.696,1172.235,775.462,1175.762z M772.868,1174.125c-0.036-1.279-0.863-2.105-2.144-2.105
			c-1.225,0-2.053,0.826-2.269,2.105H772.868z"/>
		<path fill="#E4E8F1" d="M786.856,1179.76h-2.756v-1.422c-0.685,0.99-1.729,1.529-3.062,1.529c-2.755,0-4.572-1.998-4.572-4.986
			c0-2.953,1.801-4.916,4.502-4.916c1.368,0,2.432,0.539,3.133,1.529v-5.094h2.756L786.856,1179.76L786.856,1179.76z
			 M784.102,1174.954c0-1.584-0.989-2.684-2.412-2.684c-1.44,0-2.432,1.115-2.448,2.684c0.019,1.584,0.989,2.682,2.448,2.682
			C783.111,1177.635,784.102,1176.538,784.102,1174.954z"/>
		<path fill="#E4E8F1" d="M714.549,1193.69c0.647-1.297,1.801-1.98,3.312-1.98v1.98c-1.928-0.107-3.15,1.025-3.312,2.666v5.004
			h-2.07v-9.578h2.07V1193.69z"/>
		<path fill="#E4E8F1" d="M727.996,1197.364h-7.237c0.323,1.477,1.458,2.395,2.972,2.395c1.045,0,1.998-0.396,2.7-1.115l1.1,1.17
			c-0.938,1.025-2.306,1.621-3.962,1.621c-2.952,0-4.896-1.965-4.896-4.846c0-2.896,1.999-4.859,4.844-4.879
			C726.881,1191.709,728.248,1193.907,727.996,1197.364z M726.196,1195.85c-0.072-1.547-1.1-2.482-2.665-2.482
			c-1.513,0-2.573,0.955-2.81,2.482H726.196z"/>
		<path fill="#E4E8F1" d="M730.461,1190.954c0-1.855,1.367-3.152,3.312-3.133c0.631,0.018,1.313,0.162,1.782,0.414l-0.055,1.801
			c-0.396-0.309-0.883-0.469-1.332-0.469c-0.954-0.02-1.656,0.684-1.656,1.691v0.863h2.521l-0.02,1.531h-2.502v7.707h-2.053v-7.707
			h-1.261l0.02-1.531h1.242V1190.954L730.461,1190.954z M738.635,1201.36h-2.069V1188h2.069V1201.36z"/>
		<path fill="#E4E8F1" d="M750.209,1197.364h-7.238c0.324,1.477,1.459,2.395,2.972,2.395c1.045,0,1.999-0.396,2.7-1.115l1.1,1.17
			c-0.938,1.025-2.305,1.621-3.962,1.621c-2.952,0-4.896-1.965-4.896-4.846c0-2.896,1.999-4.859,4.845-4.879
			C749.093,1191.709,750.461,1193.907,750.209,1197.364z M748.407,1195.85c-0.071-1.547-1.099-2.482-2.665-2.482
			c-1.512,0-2.573,0.955-2.81,2.482H748.407z"/>
		<path fill="#E4E8F1" d="M760.253,1193.276l-1.136,1.334c-0.666-0.686-1.584-1.102-2.735-1.082c-1.657,0-2.846,1.244-2.846,3.061
			c0,1.818,1.188,3.062,2.846,3.062c1.206,0,2.179-0.396,2.825-1.152l1.152,1.152c-0.864,1.135-2.25,1.781-4.068,1.781
			c-2.846,0-4.825-1.963-4.825-4.844c0-2.898,1.979-4.879,4.825-4.879C758.021,1191.709,759.369,1192.268,760.253,1193.276z"/>
		<path fill="#E4E8F1" d="M767.938,1200.749c-0.757,0.449-1.549,0.701-2.357,0.701c-1.439,0-2.684-0.828-2.684-2.791v-4.969h-1.351
			v-1.549h1.351v-2.631h2.053v2.631h2.827v1.549h-2.827v4.59c0,0.99,0.378,1.297,1.025,1.297c0.434,0,0.884-0.146,1.439-0.414
			L767.938,1200.749z"/>
		<path fill="#E4E8F1" d="M772.076,1189.045c0,0.719-0.521,1.242-1.206,1.242s-1.206-0.523-1.206-1.242
			c0-0.738,0.521-1.262,1.206-1.262C771.556,1187.784,772.076,1188.307,772.076,1189.045z M769.845,1201.36v-9.578h2.054v9.578
			H769.845z"/>
		<path fill="#E4E8F1" d="M784.05,1196.571c0,2.881-2.034,4.863-4.987,4.863c-2.971,0-5.006-1.982-5.006-4.863
			c0-2.898,2.035-4.861,5.006-4.861C782.016,1191.709,784.05,1193.672,784.05,1196.571z M776.128,1196.588
			c0,1.855,1.206,3.115,2.935,3.115c1.712,0,2.918-1.26,2.918-3.115c0-1.836-1.206-3.096-2.918-3.096
			C777.334,1193.493,776.128,1194.752,776.128,1196.588z"/>
		<path fill="#E4E8F1" d="M795.371,1195.401v5.959h-2.069v-5.385c0-1.439-0.864-2.32-2.306-2.32
			c-1.585,0.018-2.574,1.113-2.72,2.607v5.098h-2.069v-9.578h2.069v1.836c0.686-1.332,1.908-1.908,3.528-1.908
			C794.038,1191.709,795.371,1193.114,795.371,1195.401z"/>
		<path fill="#E4E8F1" d="M804.354,1192.665l-0.757,1.531c-0.847-0.523-1.908-0.848-2.755-0.848c-0.812,0-1.403,0.271-1.403,0.953
			c0,1.768,5.096,0.812,5.076,4.285c0,1.963-1.745,2.846-3.673,2.846c-1.403,0-2.898-0.469-3.854-1.334l0.738-1.477
			c0.827,0.738,2.16,1.188,3.204,1.188c0.883,0,1.565-0.305,1.565-1.023c0-1.963-5.041-0.865-5.021-4.322
			c0-1.945,1.691-2.771,3.528-2.771C802.21,1191.692,803.488,1192.051,804.354,1192.665z"/>
	</g>
	<g>
		<path fill="#E4E8F1" d="M74.211,1326.301v-8.498l-3.35,7.221h-1.854l-3.35-7.221v8.498h-2.574v-12.604h3.187l3.673,7.707
			l3.655-7.707h3.169v12.604H74.211z"/>
		<path fill="#E4E8F1" d="M88.412,1322.305h-6.95c0.324,1.225,1.261,1.943,2.503,1.943c0.918,0,1.782-0.359,2.448-1.025l1.459,1.479
			c-0.974,1.08-2.396,1.709-4.143,1.709c-3.097,0-5.06-1.98-5.06-4.916c0-2.988,2.035-4.969,4.987-4.969
			C87.062,1316.526,88.646,1318.776,88.412,1322.305z M85.819,1320.667c-0.035-1.279-0.863-2.105-2.143-2.105
			c-1.225,0-2.053,0.826-2.269,2.105H85.819z"/>
		<path fill="#E4E8F1" d="M99.158,1322.305h-6.95c0.324,1.225,1.261,1.943,2.503,1.943c0.918,0,1.782-0.359,2.448-1.025l1.459,1.479
			c-0.974,1.08-2.396,1.709-4.143,1.709c-3.097,0-5.06-1.98-5.06-4.916c0-2.988,2.035-4.969,4.986-4.969
			C97.808,1316.526,99.393,1318.776,99.158,1322.305z M96.565,1320.667c-0.036-1.279-0.863-2.105-2.143-2.105
			c-1.226,0-2.053,0.826-2.27,2.105H96.565z"/>
		<path fill="#E4E8F1" d="M106.987,1325.762c-0.72,0.414-1.619,0.666-2.521,0.666c-1.729,0-3.043-0.99-3.043-2.988v-4.482h-1.352
			v-1.91h1.352v-2.664h2.755v2.664h2.629v1.928h-2.629v3.996c0,0.812,0.342,1.135,0.938,1.117c0.358,0,0.792-0.127,1.296-0.361
			L106.987,1325.762z"/>
		<path fill="#E4E8F1" d="M111.54,1313.86c0,0.898-0.612,1.549-1.494,1.549c-0.882,0-1.494-0.648-1.494-1.549
			s0.612-1.547,1.494-1.547C110.928,1312.313,111.54,1312.959,111.54,1313.86z M108.659,1326.301v-9.686h2.772v9.686H108.659z"/>
		<path fill="#E4E8F1" d="M123.764,1320.215v6.086h-2.771v-5.273c0-1.227-0.722-1.98-1.908-1.98
			c-1.388,0.02-2.215,1.062-2.215,2.484v4.771h-2.773v-9.688h2.773v1.691c0.684-1.207,1.836-1.781,3.349-1.801
			C122.378,1316.506,123.764,1317.948,123.764,1320.215z"/>
		<path fill="#E4E8F1" d="M135.229,1325.401c0,2.756-2.069,4.502-5.168,4.502c-1.638,0-3.097-0.523-4.213-1.279l1.026-1.945
			c0.882,0.631,1.908,0.975,3.007,0.975c1.584,0,2.593-0.846,2.593-2.16v-1.1c-0.647,0.898-1.639,1.402-2.917,1.402
			c-2.503,0-4.23-1.871-4.23-4.68c0-2.738,1.691-4.592,4.158-4.592c1.314-0.02,2.323,0.504,2.989,1.402v-1.312h2.755V1325.401z
			 M132.475,1321.188c0-1.492-0.918-2.521-2.269-2.521c-1.352,0-2.27,1.045-2.287,2.521c0.019,1.479,0.919,2.504,2.287,2.504
			C131.557,1323.692,132.475,1322.665,132.475,1321.188z"/>
		<path fill="#E4E8F1" d="M144.822,1317.569l-0.953,1.891c-1.062-0.594-2.144-0.936-2.953-0.936c-0.648,0-1.116,0.215-1.116,0.719
			c0,1.459,5.113,0.721,5.096,4.141c0,1.982-1.747,3.025-3.942,3.025c-1.566,0-3.098-0.467-4.195-1.352l0.9-1.873
			c1.008,0.775,2.305,1.207,3.366,1.207c0.702,0,1.225-0.232,1.225-0.756c0-1.549-5.023-0.721-5.023-4.125
			c0-1.998,1.711-3.023,3.817-3.023C142.373,1316.489,143.742,1316.885,144.822,1317.569z"/>
	</g>
	<g>
		<path fill="#E4E8F1" d="M490.529,1539.573c0,3.637-2.917,6.428-6.771,6.428c-3.854,0-6.771-2.773-6.771-6.428
			c0-3.674,2.917-6.395,6.771-6.395C487.612,1533.18,490.529,1535.917,490.529,1539.573z M479.906,1539.573
			c0,2.213,1.781,3.939,3.89,3.939c2.106,0,3.816-1.729,3.816-3.939c0-2.215-1.711-3.908-3.816-3.908
			C481.671,1535.665,479.906,1537.358,479.906,1539.573z"/>
		<path fill="#E4E8F1" d="M502.822,1541.084c0,2.936-1.782,4.896-4.501,4.896c-1.352,0-2.413-0.539-3.115-1.514v4.898h-2.771
			v-13.184h2.771v1.424c0.686-0.973,1.746-1.514,3.062-1.514C500.985,1536.096,502.822,1538.096,502.822,1541.084z
			 M500.014,1540.995c0-1.549-0.973-2.666-2.396-2.666s-2.413,1.1-2.413,2.666c0,1.602,0.99,2.682,2.413,2.682
			C499.04,1543.676,500.014,1542.579,500.014,1540.995z"/>
		<path fill="#E4E8F1" d="M513.568,1541.877h-6.95c0.324,1.223,1.262,1.943,2.503,1.943c0.918,0,1.782-0.359,2.448-1.025
			l1.459,1.477c-0.974,1.08-2.396,1.711-4.143,1.711c-3.098,0-5.061-1.98-5.061-4.916c0-2.988,2.035-4.971,4.986-4.971
			C512.218,1536.096,513.803,1538.348,513.568,1541.877z M510.976,1540.239c-0.035-1.279-0.863-2.107-2.144-2.107
			c-1.225,0-2.053,0.828-2.27,2.107H510.976z"/>
		<path fill="#E4E8F1" d="M525.069,1539.788v6.086h-2.771v-5.275c0-1.225-0.722-1.979-1.908-1.979
			c-1.387,0.018-2.215,1.061-2.215,2.482v4.771H515.4v-9.688h2.772v1.691c0.685-1.207,1.836-1.783,3.35-1.801
			C523.684,1536.079,525.069,1537.52,525.069,1539.788z"/>
		<path fill="#E4E8F1" d="M536.913,1534.512l-1.099,2.359c-1.332-0.793-2.916-1.297-3.926-1.297c-0.953,0-1.604,0.342-1.604,1.023
			c0,2.324,6.717,1.027,6.698,5.564c0,2.467-2.144,3.799-4.935,3.799c-2.07,0-4.143-0.791-5.562-1.998l1.134-2.322
			c1.297,1.152,3.134,1.893,4.467,1.893c1.17,0,1.871-0.436,1.871-1.207c0-2.377-6.716-0.99-6.716-5.455
			c0-2.287,1.963-3.73,4.88-3.73C533.89,1533.145,535.653,1533.684,536.913,1534.512z"/>
		<path fill="#E4E8F1" d="M548.488,1541.03c0,2.953-2.089,4.951-5.187,4.951c-3.114,0-5.204-1.998-5.204-4.951
			c0-2.973,2.09-4.936,5.204-4.936C546.399,1536.096,548.488,1538.059,548.488,1541.03z M540.89,1541.067
			c0,1.584,0.974,2.664,2.413,2.664c1.422,0,2.412-1.08,2.412-2.664c0-1.586-0.99-2.666-2.412-2.666
			C541.862,1538.401,540.89,1539.481,540.89,1541.067z"/>
		<path fill="#E4E8F1" d="M559.521,1545.874h-2.756v-1.711c-0.666,1.225-1.781,1.818-3.24,1.818c-2.144,0-3.493-1.422-3.493-3.709
			v-6.086h2.772v5.295c0,1.225,0.702,1.963,1.817,1.963c1.332-0.021,2.144-1.062,2.144-2.469v-4.789h2.756V1545.874z"/>
		<path fill="#E4E8F1" d="M564.974,1537.934c0.666-1.188,1.766-1.838,3.205-1.854v2.609c-1.979-0.18-3.205,0.885-3.205,2.521v4.662
			H562.2v-9.688h2.772L564.974,1537.934L564.974,1537.934z"/>
		<path fill="#E4E8F1" d="M578.024,1538.131l-1.873,1.352c-0.521-0.646-1.261-1.045-2.214-1.025c-1.352,0-2.306,1.045-2.306,2.592
			c0,1.568,0.954,2.629,2.306,2.629c0.989,0,1.765-0.377,2.25-1.133l1.908,1.295c-0.812,1.354-2.322,2.145-4.305,2.145
			c-2.935,0-4.934-1.98-4.934-4.914c0-2.973,1.999-4.971,4.97-4.971C575.684,1536.096,577.159,1536.834,578.024,1538.131z"/>
		<path fill="#E4E8F1" d="M588.41,1541.877h-6.949c0.323,1.223,1.261,1.943,2.503,1.943c0.918,0,1.781-0.359,2.447-1.025
			l1.459,1.477c-0.974,1.08-2.396,1.711-4.143,1.711c-3.097,0-5.061-1.98-5.061-4.916c0-2.988,2.035-4.971,4.987-4.971
			C587.061,1536.096,588.646,1538.348,588.41,1541.877z M585.818,1540.239c-0.036-1.279-0.864-2.107-2.144-2.107
			c-1.226,0-2.054,0.828-2.27,2.107H585.818z"/>
		<path fill="#E4E8F1" d="M497.638,1567.473v-4.969h-5.707v4.969h-2.845v-12.604h2.845v5.258h5.707v-5.258h2.847v12.604H497.638z"/>
		<path fill="#E4E8F1" d="M508.815,1566.34c-0.648,0.811-1.692,1.26-3.044,1.26c-2.069,0-3.33-1.26-3.33-3.023
			c0-1.818,1.313-2.898,3.69-2.916h2.664v-0.182c0-1.025-0.685-1.621-2.018-1.621c-0.864,0-1.872,0.287-2.882,0.848l-0.863-1.908
			c1.439-0.721,2.685-1.117,4.376-1.117c2.594,0,4.087,1.297,4.104,3.479l0.019,6.318h-2.72L508.815,1566.34L508.815,1566.34z
			 M508.797,1564.161v-0.863h-2.18c-1.062,0-1.584,0.324-1.584,1.098c0,0.738,0.576,1.227,1.514,1.227
			C507.717,1565.62,508.636,1564.989,508.797,1564.161z"/>
		<path fill="#E4E8F1" d="M516.698,1559.534c0.666-1.189,1.766-1.836,3.205-1.855v2.611c-1.979-0.18-3.205,0.883-3.205,2.52v4.664
			h-2.772v-9.688h2.772V1559.534z"/>
		<path fill="#E4E8F1" d="M530.975,1567.473h-2.755v-1.422c-0.686,0.99-1.729,1.531-3.062,1.531c-2.755,0-4.573-2-4.573-4.988
			c0-2.953,1.802-4.916,4.503-4.916c1.367,0,2.431,0.541,3.133,1.531v-5.096h2.755L530.975,1567.473L530.975,1567.473z
			 M528.22,1562.667c0-1.584-0.989-2.684-2.413-2.684c-1.439,0-2.432,1.115-2.447,2.684c0.019,1.584,0.989,2.684,2.447,2.684
			C527.229,1565.35,528.22,1564.25,528.22,1562.667z"/>
		<path fill="#E4E8F1" d="M542.835,1567.473l-2.089-6.391l-2.07,6.391h-2.771l-3.547-9.668l2.825-0.018l2.161,6.932l2.089-6.932
			h2.72l2.124,6.932l2.125-6.932h2.735l-3.527,9.688L542.835,1567.473L542.835,1567.473z"/>
		<path fill="#E4E8F1" d="M555.703,1566.34c-0.647,0.811-1.691,1.26-3.043,1.26c-2.069,0-3.331-1.26-3.331-3.023
			c0-1.818,1.313-2.898,3.69-2.916h2.664v-0.182c0-1.025-0.685-1.621-2.018-1.621c-0.863,0-1.872,0.287-2.881,0.848l-0.863-1.908
			c1.439-0.721,2.685-1.117,4.376-1.117c2.593,0,4.087,1.297,4.104,3.479l0.019,6.318h-2.72L555.703,1566.34L555.703,1566.34z
			 M555.686,1564.161v-0.863h-2.179c-1.062,0-1.584,0.324-1.584,1.098c0,0.738,0.575,1.227,1.513,1.227
			C554.605,1565.62,555.524,1564.989,555.686,1564.161z"/>
		<path fill="#E4E8F1" d="M563.588,1559.534c0.666-1.189,1.766-1.836,3.205-1.855v2.611c-1.98-0.18-3.205,0.883-3.205,2.52v4.664
			h-2.772v-9.688h2.772V1559.534z"/>
		<path fill="#E4E8F1" d="M577.215,1563.477h-6.95c0.324,1.227,1.262,1.943,2.503,1.943c0.918,0,1.782-0.359,2.448-1.025
			l1.459,1.479c-0.974,1.08-2.396,1.711-4.143,1.711c-3.098,0-5.061-1.979-5.061-4.916c0-2.988,2.035-4.969,4.986-4.969
			C575.864,1557.698,577.448,1559.948,577.215,1563.477z M574.621,1561.838c-0.035-1.277-0.863-2.105-2.144-2.105
			c-1.225,0-2.053,0.828-2.269,2.105H574.621z"/>
	</g>
</g>
</svg>
