<?xml version="1.0" encoding="utf-8"?>
<!-- Generator: Adobe Illustrator 16.0.0, SVG Export Plug-In . SVG Version: 6.00 Build 0)  -->
<!DOCTYPE svg PUBLIC "-//W3C//DTD SVG 1.1//EN" "http://www.w3.org/Graphics/SVG/1.1/DTD/svg11.dtd">
<svg version="1.1" id="Layer_1" xmlns="http://www.w3.org/2000/svg" xmlns:xlink="http://www.w3.org/1999/xlink" x="0px" y="0px"
	 width="982.578px" height="1320.474px" viewBox="51.71 296.737 982.578 1320.474"
	 enable-background="new 51.71 296.737 982.578 1320.474" xml:space="preserve">
<g id="bg" display="none">
	<rect x="0" display="inline" fill="#31A7DE" width="1080" height="1920"/>
</g>
<g id="Layer_1_1_">
	<g>
		<g>
			<path fill="#9875B1" d="M381.666,879.195c-49.941,0-99.885,0-149.826,0c-7.598,0-15.195,0-22.792,0
				c0.833,0.833,1.667,1.667,2.5,2.5c0-49.312,0-98.62,0-147.931c0-4.282,0-8.564,0-12.848c-0.833,0.833-1.667,1.667-2.5,2.5
				c0.001,0,0.002,0,0.003,0c3.224,0,3.224-5,0-5c-34.832,0-69.664,0-104.495,0c0.833,0.833,1.667,1.667,2.5,2.5
				c0-49.849,0-99.697,0-149.546c0-7.583,0-15.166,0-22.749c0-3.226-5-3.226-5,0c0,49.849,0,99.697,0,149.546
				c0,7.583,0,15.166,0,22.749c0,1.363,1.137,2.5,2.5,2.5c34.832,0,69.664,0,104.495,0c3.224,0,3.224-5,0-5
				c-0.001,0-0.002,0-0.003,0c-1.363,0-2.5,1.137-2.5,2.5c0,49.311,0,98.62,0,147.93c0,4.283,0,8.565,0,12.849
				c0,1.362,1.137,2.5,2.5,2.5c49.941,0,99.885,0,149.827,0c7.598,0,15.194,0,22.791,0
				C384.891,884.195,384.891,879.195,381.666,879.195L381.666,879.195z"/>
		</g>
	</g>
	<g>
		<g>
			<path fill="#9875B1" d="M679.521,884.195c49.502,0,99.003,0,148.505,0c16.268,0,32.533,0,48.799,0c1.363,0,2.5-1.138,2.5-2.5
				c0-49.312,0-98.62,0-147.931c0-4.282,0-8.564,0-12.848c-0.833,0.833-1.667,1.667-2.5,2.5c34.873,0,69.746,0,104.618,0
				c1.363,0,2.5-1.137,2.5-2.5c0-49.849,0-99.697,0-149.546c0-7.583,0-15.166,0-22.749c0-3.226-5-3.226-5,0
				c0,49.849,0,99.697,0,149.546c0,7.583,0,15.166,0,22.749c0.833-0.833,1.667-1.667,2.5-2.5c-34.873,0-69.746,0-104.618,0
				c-1.362,0-2.5,1.137-2.5,2.5c0,49.311,0,98.62,0,147.93c0,4.283,0,8.565,0,12.849c0.833-0.833,1.667-1.667,2.5-2.5
				c-49.502,0-99.003,0-148.505,0c-16.267,0-32.533,0-48.799,0C676.296,879.195,676.296,884.195,679.521,884.195L679.521,884.195z"
				/>
		</g>
	</g>
	<g>
		<g>
			<path fill="#9875B1" d="M398.524,813.799c-24.319,0-48.637,0-72.956,0c0.833,0.833,1.667,1.667,2.5,2.5
				c0-44.366,0-88.73-0.001-133.098c0-1.363-1.137-2.5-2.5-2.5c-20.403,0-40.806,0-61.209,0c0.833,0.833,1.667,1.667,2.5,2.5
				c0-8.416,0-16.833,0-25.249c0-3.226-5-3.226-5,0c0,8.416,0,16.833,0,25.249c0,1.363,1.138,2.5,2.5,2.5
				c20.403,0,40.806,0,61.209,0c-0.833-0.833-1.667-1.667-2.5-2.5c0,44.366,0,88.73,0.001,133.098c0,1.363,1.137,2.5,2.5,2.5
				c24.319,0,48.637,0,72.956,0C401.748,818.799,401.748,813.799,398.524,813.799L398.524,813.799z"/>
		</g>
	</g>
	<g>
		<g>
			<path fill="#9875B1" d="M660.563,818.799c24.573,0,49.146,0,73.719,0c1.363,0,2.5-1.137,2.5-2.5c0-44.366,0-88.73,0-133.098
				c-0.833,0.833-1.667,1.667-2.5,2.5c22.076,0,44.152,0,66.229,0c1.362,0,2.5-1.137,2.5-2.5c0-8.416,0-16.833,0-25.249
				c0-3.226-5-3.226-5,0c0,8.416,0,16.833,0,25.249c0.833-0.833,1.667-1.667,2.5-2.5c-22.076,0-44.152,0-66.229,0
				c-1.362,0-2.5,1.137-2.5,2.5c0,44.366,0,88.73,0,133.098c0.833-0.833,1.667-1.667,2.5-2.5c-24.572,0-49.146,0-73.719,0
				C657.339,813.799,657.339,818.799,660.563,818.799L660.563,818.799z"/>
		</g>
	</g>
	<g>
		<g>
			<path fill="#9875B1" d="M535.206,1409.199c0-38.354,0-76.709,0-115.062c0-61.468,0-122.935,0-184.401c0-14.563,0-29.127,0-43.69
				c0-3.225-5-3.225-5,0c0,38.354,0,76.708,0,115.062c0,61.468,0,122.935,0,184.4c0,14.564,0,29.128,0,43.691
				C530.206,1412.424,535.206,1412.424,535.206,1409.199L535.206,1409.199z"/>
		</g>
	</g>
	<g>
		<g>
			<path fill="#9875B1" d="M535.206,1499.879c0-14.365,0-28.729,0-43.095c0-3.226-5-3.226-5,0c0,14.365,0,28.729,0,43.095
				C530.206,1503.104,535.206,1503.104,535.206,1499.879L535.206,1499.879z"/>
		</g>
	</g>
	<g>
		<g>
			<path fill="#9875B1" d="M740.585,1418.07c-15.314,0-30.628,0-45.942,0c0.833,0.833,1.667,1.667,2.5,2.5
				c0-22.338,0-44.677,0-67.015c0-1.362-1.137-2.5-2.5-2.5c-49.451,0-98.903,0-148.354,0c-42.501,0-85.003,0-127.504,0
				c-16.59,0-33.18,0-49.771,0c-1.363,0-2.5,1.138-2.5,2.5c0,22.338,0,44.677,0,67.015c0.833-0.833,1.667-1.667,2.5-2.5
				c-15.314,0-30.628,0-45.942,0c-3.224,0-3.224,5,0,5c15.314,0,30.628,0,45.942,0c1.363,0,2.5-1.138,2.5-2.5
				c0-22.338,0-44.677,0-67.015c-0.833,0.833-1.667,1.667-2.5,2.5c49.451,0,98.903,0,148.354,0c42.501,0,85.003,0,127.504,0
				c16.591,0,33.181,0,49.771,0c-0.833-0.833-1.667-1.667-2.5-2.5c0,22.338,0,44.677,0,67.015c0,1.362,1.137,2.5,2.5,2.5
				c15.314,0,30.628,0,45.942,0C743.81,1423.07,743.81,1418.07,740.585,1418.07L740.585,1418.07z"/>
		</g>
	</g>
	<g>
		<g>
			<path fill="#9875B1" d="M354.916,1215.629c12.979,0,25.956,0,38.935,0c-0.833-0.833-1.667-1.667-2.5-2.5
				c0,22.338,0,44.676,0,67.014c0,1.363,1.137,2.5,2.5,2.5c45.838,0,91.677,0,137.515,0c45.544,0,91.088,0,136.632,0
				c0.604,0,1.206,0,1.809,0c1.362,0,2.5-1.137,2.5-2.5c0-22.338,0-44.676,0-67.014c-0.833,0.833-1.667,1.667-2.5,2.5
				c12.978,0,25.956,0,38.934,0c3.226,0,3.226-5,0-5c-12.978,0-25.956,0-38.934,0c-1.363,0-2.5,1.137-2.5,2.5
				c0,22.338,0,44.676,0,67.014c0.833-0.832,1.667-1.666,2.5-2.5c-45.838,0-91.677,0-137.516,0c-45.544,0-91.088,0-136.632,0
				c-0.603,0-1.206,0-1.808,0c0.833,0.834,1.667,1.668,2.5,2.5c0-22.338,0-44.676,0-67.014c0-1.363-1.137-2.5-2.5-2.5
				c-12.979,0-25.956,0-38.935,0C351.693,1210.629,351.693,1215.629,354.916,1215.629L354.916,1215.629z"/>
		</g>
	</g>
	<g>
		<g>
			<path fill="#9875B1" d="M138.664,1321.303c19.653,0,39.309,0,58.963,0c49.19,0,98.381,0,147.571,0c64.069,0,128.139,0,192.207,0
				c64.289,0,128.578,0,192.866,0c49.851,0,99.701,0,149.551,0c20.753,0,41.507,0,62.262,0c0.02,0,0.039,0,0.06,0
				c3.225,0,3.225-5,0-5c-19.654,0-39.31,0-58.963,0c-49.191,0-98.381,0-147.572,0c-64.069,0-128.138,0-192.207,0
				c-64.289,0-128.578,0-192.866,0c-49.851,0-99.7,0-149.551,0c-20.753,0-41.507,0-62.261,0c-0.02,0-0.04,0-0.06,0
				C135.44,1316.303,135.44,1321.303,138.664,1321.303L138.664,1321.303z"/>
		</g>
	</g>
	<g>
		<g>
			<path fill="#9875B1" d="M530.216,586.845c0,45.392,0,90.781,0,136.172c0,0.079,0,0.159,0,0.239c0,3.225,5,3.225,5,0
				c0-45.391,0-90.781,0-136.172c0-0.08,0-0.159,0-0.239C535.216,583.62,530.216,583.62,530.216,586.845L530.216,586.845z"/>
		</g>
	</g>
	<g>
		<g>
			<path fill="#9875B1" d="M300.679,422.928c0,11.514,0,23.025,0,34.538c0,1.362,1.137,2.5,2.5,2.5c26.28,0,52.561,0,78.841,0
				c-0.833-0.833-1.667-1.667-2.5-2.5c0,49.597,0,99.191,0,148.786c0,11.895,0,23.786,0,35.679c0,1.362,1.137,2.5,2.5,2.5
				c26.045,0,52.09,0,78.136,0c-0.833-0.833-1.667-1.667-2.5-2.5c0,38.22,0,76.438,0,114.655c0,3.225,5,3.225,5,0
				c0-38.219,0-76.437,0-114.655c0-1.361-1.137-2.5-2.5-2.5c-26.045,0-52.09,0-78.136,0c0.833,0.833,1.667,1.667,2.5,2.5
				c0-49.8,0-99.6,0-149.398c0-11.688,0-23.377,0-35.065c0-1.361-1.137-2.5-2.5-2.5c-26.28,0-52.561,0-78.841,0
				c0.833,0.833,1.667,1.667,2.5,2.5c0-11.513,0-23.024,0-34.538C305.679,419.703,300.679,419.703,300.679,422.928L300.679,422.928z
				"/>
		</g>
	</g>
	<g>
		<g>
			<path fill="#9875B1" d="M755.509,422.928c0,11.514,0,23.025,0,34.538c0.833-0.833,1.667-1.667,2.5-2.5
				c-26.28,0-52.562,0-78.841,0c-1.363,0-2.5,1.138-2.5,2.5c0,49.597,0,99.191,0,148.786c0,11.895,0,23.786,0,35.679
				c0.832-0.833,1.666-1.667,2.5-2.5c-26.046,0-52.091,0-78.137,0c-1.362,0-2.5,1.139-2.5,2.5c0,38.22,0,76.438,0,114.655
				c0,3.225,5,3.225,5,0c0-38.219,0-76.437,0-114.655c-0.833,0.833-1.667,1.667-2.5,2.5c26.045,0,52.09,0,78.137,0
				c1.362,0,2.5-1.138,2.5-2.5c0-49.8,0-99.6,0-149.398c0-11.688,0-23.377,0-35.065c-0.834,0.833-1.668,1.667-2.5,2.5
				c26.279,0,52.561,0,78.841,0c1.362,0,2.5-1.138,2.5-2.5c0-11.513,0-23.024,0-34.538
				C760.509,419.703,755.509,419.703,755.509,422.928L755.509,422.928z"/>
		</g>
	</g>
	<path fill="#5F267F" d="M599.666,1549.373c0,37.467-30.373,67.838-67.839,67.838c-37.467,0-67.838-30.371-67.838-67.838
		c0-37.469,30.371-67.84,67.838-67.84C569.293,1481.533,599.666,1511.904,599.666,1549.373z"/>
	<circle fill="#5F267F" cx="800.51" cy="1411.726" r="70.58"/>
	<circle fill="#5F267F" cx="531.827" cy="1281.529" r="91.068"/>
	<circle fill="#5F267F" cx="104.556" cy="1320.132" r="52.846"/>
	<circle fill="#5F267F" cx="307.449" cy="1184.188" r="63.094"/>
	<circle fill="#5F267F" cx="264.358" cy="1411.726" r="70.58"/>
	<circle fill="#5F267F" cx="981.443" cy="1320.132" r="52.846"/>
	<circle fill="#5F267F" cx="757.418" cy="1184.188" r="63.094"/>
	<g>
		<g>
			<g>
				<g>
					
						<rect x="462.067" y="814.334" transform="matrix(0.599 0.8007 -0.8007 0.599 844.2385 -44.3312)" fill="#60257E" width="8.634" height="12.95"/>
					
						<rect x="482.755" y="798.831" transform="matrix(0.5993 0.8005 -0.8005 0.5993 839.8433 -67.2244)" fill="#60257E" width="8.633" height="12.949"/>
					<polygon fill="#60257E" points="586.949,802.672 576.028,800.59 577.477,792.082 588.403,794.156 					"/>
					
						<rect x="551.087" y="788.742" transform="matrix(0.9858 0.168 -0.168 0.9858 141.1962 -82.4164)" fill="#60257E" width="12.948" height="8.632"/>
					<polygon fill="#60257E" points="526.403,783.369 539.172,785.547 537.724,794.061 524.954,791.885 					"/>
					
						<rect x="494.82" y="923.245" transform="matrix(0.4893 0.8721 -0.8721 0.4893 1064.9185 36.498)" fill="#60257E" width="12.948" height="8.636"/>
					
						<rect x="482.123" y="900.666" transform="matrix(0.4898 0.8718 -0.8718 0.4898 1038.2717 35.7427)" fill="#60257E" width="12.948" height="8.634"/>
					
						<rect x="545.541" y="939.047" transform="matrix(0.47 0.8826 -0.8826 0.47 1125.9678 15.7596)" fill="#60257E" width="8.639" height="12.95"/>
					
						<rect x="568.385" y="926.846" transform="matrix(0.4694 0.883 -0.883 0.4694 1128.0127 -10.4521)" fill="#60257E" width="8.636" height="12.946"/>
					
						<rect x="591.322" y="914.65" transform="matrix(0.4696 0.8829 -0.8829 0.4696 1129.1664 -37.3141)" fill="#60257E" width="8.634" height="12.948"/>
					<path fill="#60257E" d="M599.659,815.087L599.659,815.087l-1.578-0.019c-5.618,0-13.456-5.123-13.456-13.459
						c0-9.264,5.407-15.484,13.456-15.484c9.563,0,15.48,6.983,15.48,13.455c0,5.975-1.719,10.328-5.126,12.936
						C605.441,814.822,601.99,815.087,599.659,815.087z M598.081,794.757c-4.195,0-4.819,4.294-4.819,6.854
						c0,3.325,3.831,4.822,4.819,4.822l1.578,0.02l0,0c1.163,0,2.616-0.09,3.527-0.787c1.126-0.863,1.745-3.023,1.745-6.086
						C604.933,797.951,602.862,794.757,598.081,794.757z"/>
					<path fill="#60257E" d="M623.773,916.595L623.773,916.595l-1.577-0.021c-5.616,0-13.454-5.123-13.454-13.455
						c0-9.264,5.41-15.488,13.454-15.488c9.565,0,15.483,6.984,15.483,13.455c0,5.974-1.723,10.33-5.127,12.939
						C629.551,916.326,626.101,916.595,623.773,916.595z M622.196,896.268c-4.195,0-4.82,4.289-4.82,6.853
						c0,3.321,3.831,4.817,4.82,4.817l1.577,0.021l0,0c1.166,0,2.619-0.091,3.523-0.785c1.133-0.864,1.75-3.022,1.75-6.087
						C629.047,899.453,626.977,896.268,622.196,896.268z"/>
					<path fill="#60257E" d="M589.506,981.62L589.506,981.62l-1.58-0.02c-5.617,0-13.459-5.118-13.459-13.452
						c0-9.266,5.412-15.488,13.459-15.488c9.562,0,15.486,6.989,15.486,13.455c0,5.975-1.726,10.327-5.131,12.937
						C595.283,981.356,591.837,981.62,589.506,981.62z M587.926,961.291c-4.197,0-4.818,4.293-4.818,6.857
						c0,3.319,3.831,4.817,4.818,4.817l1.58,0.02l0,0c1.16,0,2.61-0.091,3.524-0.782c1.125-0.864,1.744-3.028,1.744-6.09
						C594.775,964.484,592.711,961.291,587.926,961.291z"/>
					<path fill="#60257E" d="M521.336,975.178L521.336,975.178l-1.578-0.022c-5.618,0-13.455-5.12-13.455-13.456
						c0-9.266,5.411-15.485,13.455-15.485c9.565,0,15.487,6.988,15.487,13.457c0,5.979-1.726,10.326-5.129,12.937
						C527.116,974.906,523.666,975.178,521.336,975.178z M519.758,954.846c-3.984,0-4.822,3.726-4.822,6.854
						c0,3.329,3.836,4.823,4.822,4.823l1.578,0.021l0,0c1.166,0,2.62-0.092,3.526-0.786c1.128-0.864,1.748-3.025,1.748-6.086
						C526.611,958.039,524.543,954.846,519.758,954.846z"/>
					<path fill="#60257E" d="M467.813,958.775L467.813,958.775l-1.582-0.023c-5.619,0-13.451-5.115-13.451-13.449
						c0-9.266,5.407-15.489,13.451-15.489c9.565,0,15.488,6.986,15.488,13.456c0,5.975-1.725,10.328-5.129,12.938
						C473.588,958.505,470.146,958.775,467.813,958.775z M466.231,938.443c-4.189,0-4.823,4.295-4.823,6.856
						c0,3.32,3.836,4.816,4.823,4.816l1.582,0.021l0,0c1.161,0,2.616-0.089,3.523-0.781c1.123-0.863,1.749-3.03,1.749-6.093
						C473.084,941.639,471.014,938.443,466.231,938.443z"/>
					<path fill="#60257E" d="M479.865,904.992L479.865,904.992l-1.578-0.023c-5.617,0-13.456-5.116-13.456-13.451
						c0-9.264,5.407-15.487,13.456-15.487c9.565,0,15.483,6.983,15.483,13.456c0,5.977-1.721,10.331-5.121,12.935
						C485.643,904.724,482.199,904.992,479.865,904.992z M478.287,884.66c-4.192,0-4.819,4.293-4.819,6.854
						c0,3.326,3.831,4.819,4.819,4.819l1.578,0.024l0,0c1.168,0,2.616-0.091,3.527-0.789c1.126-0.865,1.75-3.024,1.75-6.089
						C485.137,887.855,483.068,884.66,478.287,884.66z"/>
					<path fill="#60257E" d="M450.468,838.12l2.935-2.193l-5.177-6.913l-3.155,2.362
						C448.169,832.918,450.046,835.589,450.468,838.12z"/>
					<path fill="#60257E" d="M441.011,854.718L441.011,854.718l-1.581-0.023c-5.616,0-13.453-5.117-13.453-13.457
						c0-9.261,5.404-15.486,13.453-15.486c9.565,0,15.485,6.984,15.485,13.455c0,5.978-1.727,10.329-5.129,12.939
						C446.788,854.449,443.342,854.718,441.011,854.718z M439.43,834.385c-4.193,0-4.82,4.293-4.82,6.853
						c0,3.325,3.834,4.82,4.82,4.82l1.581,0.024l0,0c1.163,0,2.61-0.088,3.521-0.789c1.128-0.864,1.749-3.023,1.749-6.088
						C446.28,837.577,444.211,834.385,439.43,834.385z"/>
					<path fill="#60257E" d="M508.092,786.553c0-0.863,0.069-1.699,0.188-2.508l-8.219,6.154l5.179,6.91l5.663-4.236
						C509.3,791.366,508.092,789.264,508.092,786.553z"/>
					<path fill="#60257E" d="M518.809,800.029L518.809,800.029l-1.575-0.02c-5.621,0-13.458-5.12-13.458-13.456
						c-0.002-9.266,5.407-15.489,13.451-15.489c9.564,0,15.488,6.985,15.488,13.461c0,5.971-1.725,10.325-5.124,12.933
						C524.588,799.764,521.141,800.029,518.809,800.029z M517.227,779.699c-4.191,0-4.82,4.293-4.82,6.854
						c0,3.325,3.836,4.82,4.82,4.82l1.582,0.021l0,0c1.161,0,2.619-0.088,3.525-0.786c1.125-0.861,1.752-3.025,1.752-6.086
						C524.086,782.893,522.012,779.699,517.227,779.699z"/>
					<path fill="#60257E" d="M466.231,934.127c2.868,0,5.209,0.846,7.018,2.102l7.116-35.561c-0.805,0.016-1.527-0.018-2.077-0.018
						c-1.654,0-4.195-0.904-6.184-2.695l-7.272,36.318C465.288,934.209,465.736,934.127,466.231,934.127z"/>
					<path fill="#60257E" d="M519.209,950.586l-4.595-8.184l-7.528,4.233l4.877,8.683
						C513.315,952.575,515.729,950.767,519.209,950.586z"/>
					<path fill="#60257E" d="M510.823,963.502c-0.12-0.574-0.202-1.166-0.202-1.804c0-2.593,0.557-4.943,1.615-6.837l-34.856-11.785
						c0,0.062,0.023,0.129,0.023,0.191c0,3.984-0.876,6.543-2.151,8.2L510.823,963.502z"/>
					<path fill="#60257E" d="M530.928,959.67c0,0.29-0.023,0.535-0.033,0.812l3.874-2.066l-4.062-7.623l-3.729,1.989
						C529.521,954.633,530.928,957.311,530.928,959.67z"/>
					<path fill="#60257E" d="M613.771,906.512l-24.602,50.575c3.449,0.31,6.083,1.821,7.762,3.784l23.751-48.818
						C618.264,911.472,615.15,909.624,613.771,906.512z"/>
					<path fill="#60257E" d="M520.233,792.633l-8.475,1.662l6.479,33.047c3.557,0.177,6.607,0.934,9.205,2.086L520.233,792.633z"/>
					<path fill="#60257E" d="M486.449,883.324c1.957,1.789,3.005,4.101,3.005,6.156c0,0.719-0.029,1.379-0.085,2.002l17.675-8.054
						c-1.758-2.188-3.52-4.591-5.18-7.129L486.449,883.324z"/>
					<path fill="#60257E" d="M493.038,849.748l-42.64-7.662c-0.732,5.518-3.572,7.406-6.337,8.02l26.235,35.614
						c1.246-2.847,3.557-4.788,6.944-5.132l-21.141-28.703l37.787,6.789c-0.584-2.523-0.921-5.086-0.921-7.652
						C492.974,850.592,493.016,850.17,493.038,849.748z"/>
					<path fill="#60257E" d="M517.784,950.733c0.619-0.128,1.271-0.207,1.974-0.207c2.611,0,4.8,0.689,6.535,1.759l5.528-47.822
						c-1.967-0.248-4.251-1.296-8.186-4.394L517.784,950.733z"/>
					<path fill="#60257E" d="M580.295,961.49c1.421-2.662,3.851-4.405,7.381-4.49l-39.689-61.532
						c-2.109,1.976-4.413,3.943-6.704,5.54L580.295,961.49z"/>
					<polygon fill="#60257E" points="533.598,889.097 533.697,888.234 533.237,888.531 					"/>
					<path fill="#60257E" d="M606.927,808.271c-2.386,2.885-6.045,2.826-8.211,2.783l18.349,78.581l-48.666-20.968
						c-1.258,2.638-2.701,5.172-4.241,7.576l49.854,21.478c1.3-3.431,3.979-5.777,8.186-5.777c1.662,0,3.137,0.305,4.453,0.776
						L606.927,808.271z"/>
					<path fill="#60257E" d="M568.961,838.043l26.527-27.529c-2.428-0.889-5.156-2.913-6.152-6.065L562.982,831.8
						C565.331,833.504,567.36,835.612,568.961,838.043z"/>
				</g>
				<path fill="#FFFFFF" d="M549.098,834.832c-13.493,0-16.189,11.873-16.189,11.873s-2.16-11.873-16.188-11.873
					c-8.946,0-16.192,7.246-16.192,16.189c0,21.135,29.504,45.962,32.38,45.962c3.956,0,32.38-25.095,32.38-45.962
					C565.287,842.078,558.036,834.832,549.098,834.832z"/>
			</g>
		</g>
		<g>
			<path fill="#FFFFFF" d="M469.99,1015.176c0,5.68-4.011,9.582-9.831,9.582c-5.854,0-9.865-3.902-9.865-9.582
				c0-5.713,4.011-9.582,9.865-9.582C465.979,1005.594,469.99,1009.463,469.99,1015.176z M454.373,1015.211
				c0,3.656,2.38,6.141,5.785,6.141c3.371,0,5.749-2.483,5.749-6.141c0-3.619-2.378-6.104-5.749-6.104
				C456.753,1009.107,454.373,1011.592,454.373,1015.211z"/>
			<path fill="#FFFFFF" d="M494.116,1015.247c0,5.643-3.549,9.511-8.943,9.511c-3.018,0-5.288-1.206-6.671-3.406v10.15h-4.082
				v-25.766h4.082v3.265c1.383-2.199,3.653-3.407,6.601-3.407C490.461,1005.594,494.116,1009.498,494.116,1015.247z
				 M489.998,1015.104c0-3.513-2.377-6.104-5.747-6.104c-3.372,0-5.749,2.555-5.749,6.104c0,3.656,2.377,6.177,5.749,6.177
				C487.621,1021.28,489.998,1018.725,489.998,1015.104z"/>
			<path fill="#FFFFFF" d="M514.978,1016.738h-14.267c0.639,2.908,2.875,4.72,5.854,4.72c2.06,0,3.939-0.781,5.324-2.2l2.164,2.307
				c-1.847,2.022-4.543,3.193-7.809,3.193c-5.819,0-9.652-3.868-9.652-9.547c0-5.713,3.939-9.581,9.547-9.617
				C512.777,1005.594,515.475,1009.924,514.978,1016.738z M511.429,1013.757c-0.144-3.052-2.165-4.896-5.253-4.896
				c-2.98,0-5.074,1.881-5.536,4.896H511.429z"/>
			<path fill="#FFFFFF" d="M537.295,1012.87v11.746h-4.082v-10.611c0-2.84-1.703-4.578-4.543-4.578
				c-3.122,0.036-5.074,2.2-5.358,5.146v10.044h-4.081v-18.88h4.081v3.62c1.349-2.628,3.762-3.764,6.956-3.764
				C534.668,1005.594,537.295,1008.363,537.295,1012.87z"/>
			<path fill="#60257E" d="M558.299,1008.682l-2.236,2.627c-1.314-1.35-3.124-2.166-5.396-2.13c-3.265,0-5.605,2.448-5.605,6.032
				c0,3.585,2.342,6.033,5.605,6.033c2.38,0,4.295-0.779,5.572-2.271l2.271,2.271c-1.702,2.237-4.436,3.514-8.021,3.514
				c-5.606,0-9.511-3.868-9.511-9.547c0-5.713,3.903-9.617,9.511-9.617C553.897,1005.594,556.56,1006.694,558.299,1008.682z"/>
			<path fill="#60257E" d="M573.305,1022.31c-1.351,1.669-3.514,2.483-6.246,2.483c-4.081,0-6.636-2.52-6.636-5.854
				c0-3.442,2.59-5.645,7.133-5.68h5.714v-0.566c0-2.379-1.525-3.799-4.507-3.799c-1.811,0-3.691,0.64-5.572,1.917l-1.668-2.84
				c2.627-1.562,4.542-2.378,8.126-2.378c4.863,0,7.595,2.484,7.632,6.637l0.035,12.387h-4.011V1022.31L573.305,1022.31z
				 M573.27,1017.98v-1.739h-5.111c-2.661,0-3.902,0.71-3.902,2.52c0,1.704,1.384,2.805,3.654,2.805
				C570.82,1021.564,573.057,1020.038,573.27,1017.98z"/>
			<path fill="#60257E" d="M586.856,1009.498c1.277-2.556,3.549-3.904,6.53-3.904v3.904c-3.798-0.213-6.211,2.021-6.53,5.252v9.866
				h-4.081v-18.88h4.081V1009.498z"/>
			<path fill="#60257E" d="M613.363,1016.738h-14.268c0.64,2.908,2.875,4.72,5.854,4.72c2.061,0,3.939-0.781,5.324-2.2l2.164,2.307
				c-1.845,2.022-4.542,3.193-7.808,3.193c-5.819,0-9.652-3.868-9.652-9.547c0-5.713,3.938-9.581,9.547-9.617
				C611.161,1005.594,613.859,1009.924,613.363,1016.738z M609.814,1013.757c-0.143-3.052-2.166-4.896-5.253-4.896
				c-2.981,0-5.075,1.881-5.536,4.896H609.814z"/>
		</g>
	</g>
	<circle fill="#5F267F" cx="800.51" cy="587.37" r="70.58"/>
	<circle fill="#5F267F" cx="531.827" cy="495.776" r="91.068"/>
	<circle fill="#5F267F" cx="104.556" cy="495.775" r="52.846"/>
	<circle fill="#5F267F" cx="307.449" cy="359.832" r="63.094"/>
	<circle fill="#5F267F" cx="264.358" cy="587.37" r="70.58"/>
	<circle fill="#5F267F" cx="981.443" cy="495.775" r="52.846"/>
	<path fill="#5F267F" d="M694.323,359.833c0,34.848,28.248,63.096,63.095,63.096c34.846,0,63.094-28.248,63.094-63.096
		c0-34.85-28.248-63.096-63.094-63.096C722.572,296.737,694.323,324.983,694.323,359.833z"/>
	<path fill="#E4E6F0" d="M516.689,1272.795l27.771-48.092c-4.072-0.871-8.267-1.396-12.63-1.396
		c-13.975,0-26.782,4.951-36.801,13.101l21.312,36.971L516.689,1272.795z M587.365,1264.062
		c-5.352-16.996-18.328-30.625-34.934-36.91l-21.301,36.91H587.365z M588.883,1269.885h-43.607l1.691,2.91l27.709,48.033
		c9.551-10.363,15.373-24.107,15.373-39.299C590.049,1277.512,589.639,1273.668,588.883,1269.885z M511.678,1281.529l-22.697-39.299
		c-9.49,10.362-15.373,24.106-15.373,39.299c0,4.018,0.41,7.86,1.17,11.645h43.604L511.678,1281.529z M476.29,1298.996
		c5.353,16.996,18.328,30.625,34.935,36.91l21.301-36.91H476.29z M541.896,1298.996l-22.699,39.359
		c4.072,0.87,8.267,1.395,12.633,1.395c13.972,0,26.779-4.951,36.798-13.1l-21.312-36.974L541.896,1298.996z"/>
	<g>
		<path fill="#5F267F" d="M505.729,390.168h-5.616v-9.936l-8.712-15.229h6.084l5.437,9.359l5.437-9.359h6.084l-8.712,15.229
			L505.729,390.168L505.729,390.168z"/>
		<path fill="#5F267F" d="M537.407,386.693c-2.544,2.484-5.676,3.727-9.396,3.727c-3.721,0-6.854-1.242-9.396-3.727
			c-2.545-2.484-3.815-5.574-3.815-9.27c0-3.696,1.271-6.787,3.815-9.27c2.543-2.484,5.676-3.727,9.396-3.727
			c3.72,0,6.852,1.242,9.396,3.727c2.544,2.482,3.816,5.574,3.816,9.27C541.224,381.119,539.951,384.209,537.407,386.693z
			 M535.5,377.441c0-2.244-0.72-4.158-2.16-5.742c-1.439-1.584-3.209-2.375-5.31-2.375c-2.102,0-3.871,0.791-5.311,2.375
			c-1.44,1.584-2.16,3.498-2.16,5.742s0.721,4.152,2.16,5.725c1.438,1.573,3.209,2.357,5.311,2.357c2.101,0,3.869-0.785,5.31-2.357
			C534.781,381.594,535.5,379.686,535.5,377.441z"/>
		<path fill="#5F267F" d="M552.636,383.67c0.937,1.164,2.195,1.746,3.78,1.746c1.584,0,2.838-0.582,3.762-1.746
			s1.387-2.754,1.387-4.77v-13.896h5.615v14.076c0,3.648-1.008,6.449-3.023,8.406c-2.017,1.955-4.597,2.934-7.739,2.934
			c-3.146,0-5.73-0.984-7.759-2.953c-2.028-1.967-3.043-4.764-3.043-8.387v-14.076h5.617V378.9
			C551.232,380.916,551.698,382.506,552.636,383.67z"/>
	</g>
	<g>
		<path fill="#5F267F" d="M485.215,1433.755h5.65v8.929c-2.496,2.784-5.952,4.177-10.368,4.177c-3.694,0-6.798-1.225-9.306-3.673
			c-2.509-2.447-3.763-5.537-3.763-9.271c0-3.731,1.278-6.846,3.835-9.342c2.556-2.496,5.64-3.744,9.252-3.744
			s6.75,1.188,9.413,3.563l-2.915,4.213c-1.128-0.984-2.167-1.662-3.114-2.034c-0.948-0.372-1.975-0.559-3.078-0.559
			c-2.137,0-3.936,0.727-5.399,2.179c-1.465,1.451-2.195,3.365-2.195,5.741s0.701,4.278,2.104,5.706
			c1.404,1.429,3.078,2.143,5.022,2.143s3.562-0.372,4.86-1.116L485.215,1433.755L485.215,1433.755z"/>
		<path fill="#5F267F" d="M517.038,1443.098c-2.545,2.483-5.677,3.727-9.396,3.727c-3.721,0-6.854-1.242-9.396-3.727
			c-2.544-2.483-3.815-5.573-3.815-9.271c0-3.695,1.271-6.786,3.815-9.271c2.545-2.483,5.677-3.727,9.396-3.727
			s6.852,1.242,9.396,3.727c2.544,2.483,3.815,5.574,3.815,9.271S519.581,1440.613,517.038,1443.098z M515.131,1433.846
			c0-2.244-0.722-4.158-2.16-5.742c-1.44-1.584-3.211-2.375-5.312-2.375c-2.1,0-3.868,0.791-5.31,2.375s-2.16,3.498-2.16,5.742
			s0.72,4.152,2.16,5.725c1.439,1.571,3.21,2.357,5.31,2.357c2.101,0,3.87-0.786,5.312-2.357
			C514.409,1437.998,515.131,1436.09,515.131,1433.846z"/>
		<path fill="#5F267F" d="M542.777,1446.571l-2.34-5.437H529.89l-2.341,5.437h-5.977l10.871-25.164h5.438l10.871,25.164H542.777z
			 M535.182,1428.896l-3.168,7.308h6.301L535.182,1428.896z"/>
		<path fill="#5F267F" d="M551.67,1446.571v-25.164h5.615v20.16h10.729v5.004H551.67L551.67,1446.571z"/>
		<path fill="#5F267F" d="M578.003,1426.43c-0.54,0.444-0.811,1.032-0.811,1.765c0,0.731,0.329,1.312,0.99,1.746
			c0.659,0.432,2.184,0.941,4.571,1.529c2.387,0.589,4.241,1.471,5.562,2.646c1.319,1.176,1.979,2.893,1.979,5.147
			c0,2.256-0.847,4.086-2.538,5.489c-1.691,1.404-3.918,2.106-6.679,2.106c-3.983,0-7.571-1.478-10.764-4.429l3.348-4.104
			c2.713,2.376,5.221,3.563,7.524,3.563c1.031,0,1.842-0.222,2.43-0.666c0.588-0.443,0.882-1.044,0.882-1.801
			c0-0.756-0.312-1.354-0.936-1.8c-0.625-0.443-1.86-0.895-3.708-1.351c-2.929-0.695-5.07-1.603-6.426-2.718
			c-1.356-1.116-2.034-2.868-2.034-5.256c0-2.389,0.857-4.229,2.574-5.526c1.715-1.296,3.856-1.943,6.426-1.943
			c1.68,0,3.359,0.288,5.04,0.864c1.68,0.575,3.144,1.393,4.392,2.447l-2.844,4.104c-2.185-1.656-4.439-2.483-6.769-2.483
			C579.281,1425.764,578.543,1425.985,578.003,1426.43z"/>
	</g>
	<path fill="#E4E8F1" d="M531.827,495.776c15.25,0,27.595-12.352,27.595-27.595c0-15.242-12.345-27.594-27.595-27.594
		c-15.254,0-27.594,12.352-27.594,27.594C504.234,483.425,516.573,495.776,531.827,495.776z M531.827,509.573
		c-18.414,0-55.188,9.243-55.188,27.594v13.797h110.375v-13.797C587.016,518.816,550.241,509.573,531.827,509.573z"/>
</g>
<g id="Icone">
	<path fill="#E4E6F0" d="M104.556,1286.709c-12.934,0-23.396,10.463-23.396,23.396c0,17.547,23.396,43.45,23.396,43.45
		s23.396-25.903,23.396-43.45C127.952,1297.172,117.489,1286.709,104.556,1286.709z M104.556,1318.461
		c-4.613,0-8.354-3.742-8.354-8.354c0-4.613,3.741-8.355,8.354-8.355s8.355,3.742,8.355,8.355
		C112.911,1314.719,109.169,1318.461,104.556,1318.461z"/>
	<path fill="#E4E6F0" d="M516.689,1272.795l27.771-48.092c-4.072-0.871-8.267-1.396-12.63-1.396
		c-13.975,0-26.782,4.951-36.801,13.101l21.312,36.971L516.689,1272.795z M587.365,1264.062
		c-5.352-16.996-18.328-30.625-34.934-36.91l-21.301,36.91H587.365z M588.883,1269.885h-43.607l1.691,2.91l27.709,48.033
		c9.551-10.363,15.373-24.107,15.373-39.299C590.049,1277.512,589.639,1273.668,588.883,1269.885z M511.678,1281.529l-22.697-39.299
		c-9.49,10.362-15.373,24.106-15.373,39.299c0,4.018,0.41,7.86,1.17,11.645h43.604L511.678,1281.529z M476.29,1298.996
		c5.353,16.996,18.328,30.625,34.935,36.91l21.301-36.91H476.29z M541.896,1298.996l-22.699,39.359
		c4.072,0.87,8.267,1.395,12.633,1.395c13.972,0,26.779-4.951,36.798-13.1l-21.312-36.974L541.896,1298.996z"/>
	<path fill="#E4E8F1" d="M531.827,495.776c15.25,0,27.595-12.352,27.595-27.595c0-15.242-12.345-27.594-27.595-27.594
		c-15.254,0-27.594,12.352-27.594,27.594C504.234,483.425,516.573,495.776,531.827,495.776z M531.827,509.573
		c-18.414,0-55.188,9.243-55.188,27.594v13.797h110.375v-13.797C587.016,518.816,550.241,509.573,531.827,509.573z"/>
	<path fill="#E4E8F1" d="M827.849,542.146h-54.68c-5.012,0-9.112,4.099-9.112,9.112v72.902c0,5.013,4.102,9.112,9.112,9.112h54.68
		c5.011,0,9.114-4.101,9.114-9.112V551.26C836.963,546.245,832.859,542.146,827.849,542.146z M773.169,551.26h22.782v36.45
		l-11.393-6.834l-11.391,6.834L773.169,551.26L773.169,551.26z"/>
	<path fill="#E4E8F1" d="M264.357,611.509l26.412,15.938l-7.01-30.046l23.336-20.215l-30.728-2.607l-12.012-28.337l-12.006,28.337
		l-30.731,2.607l23.342,20.215l-7.015,30.046L264.357,611.509z"/>
	<path fill="#E4E8F1" d="M738.177,313.576v50.883h13.877v41.631l32.379-55.508h-18.502l18.502-37.006H738.177z"/>
	<g>
		<path fill="#E4E6F0" d="M518.619,1554.249c0.062,5.295,2.634,9.054,6.92,11.748c0.99,0.623,1.136,1.188,0.689,2.242
			c-2.59,6.145-5.135,12.309-7.643,18.485c-0.427,1.049-0.92,1.318-1.854,0.66c-0.065-0.048-0.158-0.064-0.221-0.117
			c-2.437-2.011-4.615-1.682-6.933,0.393c-1.674,1.497-3.717,2.577-5.559,3.895c-0.736,0.527-1.293,0.573-1.965-0.11
			c-2.471-2.511-4.969-4.997-7.484-7.464c-0.674-0.661-0.658-1.23-0.135-1.976c1.812-2.569,3.549-5.193,5.383-7.75
			c0.685-0.953,0.814-1.801,0.336-2.896c-1.006-2.306-1.93-4.648-2.803-7.007c-0.367-0.988-0.957-1.465-1.982-1.641
			c-3.141-0.536-6.264-1.178-9.407-1.697c-1.128-0.187-1.543-0.663-1.521-1.822c0.064-3.354,0.062-6.711,0.002-10.065
			c-0.02-1.11,0.389-1.553,1.463-1.733c3.308-0.561,6.597-1.231,9.9-1.81c0.877-0.152,1.42-0.532,1.762-1.372
			c0.949-2.328,1.926-4.649,2.973-6.938c0.423-0.926,0.302-1.649-0.26-2.446c-1.928-2.746-3.793-5.535-5.731-8.271
			c-0.615-0.865-0.654-1.463,0.172-2.256c2.451-2.353,4.84-4.771,7.201-7.213c0.713-0.735,1.271-0.856,2.146-0.236
			c2.836,2.015,5.744,3.931,8.586,5.939c0.812,0.574,1.517,0.675,2.437,0.271c2.147-0.946,4.325-1.835,6.521-2.667
			c0.943-0.356,1.365-0.93,1.535-1.909c0.582-3.391,1.277-6.759,1.852-10.149c0.188-1.113,0.634-1.566,1.806-1.546
			c3.396,0.063,6.795,0.049,10.19,0.007c0.994-0.012,1.422,0.371,1.59,1.335c0.597,3.429,1.281,6.843,1.871,10.272
			c0.174,1.02,0.617,1.632,1.607,2.006c2.197,0.828,4.369,1.728,6.521,2.667c0.869,0.378,1.545,0.312,2.324-0.239
			c2.844-2.007,5.756-3.918,8.59-5.938c0.906-0.646,1.479-0.582,2.244,0.213c2.357,2.444,4.767,4.846,7.207,7.206
			c0.769,0.74,0.771,1.32,0.18,2.159c-1.959,2.772-3.834,5.606-5.795,8.381c-0.577,0.815-0.655,1.526-0.239,2.438
			c1.026,2.25,2,4.527,2.93,6.819c0.377,0.931,0.975,1.329,1.949,1.494c3.309,0.562,6.596,1.236,9.899,1.812
			c0.97,0.169,1.345,0.601,1.332,1.589c-0.039,3.439-0.045,6.879,0.004,10.318c0.015,1.059-0.409,1.484-1.416,1.656
			c-3.141,0.535-6.266,1.176-9.407,1.701c-1.066,0.18-1.711,0.633-2.101,1.672c-0.922,2.475-1.918,4.924-2.94,7.358
			c-0.351,0.838-0.234,1.487,0.276,2.215c1.879,2.678,3.689,5.403,5.57,8.078c0.533,0.757,0.527,1.295-0.146,1.957
			c-2.512,2.47-5.002,4.963-7.461,7.486c-0.686,0.705-1.252,0.602-1.971,0.102c-2.613-1.823-5.264-3.595-7.865-5.436
			c-0.793-0.562-1.465-0.628-2.297-0.104c-0.885,0.558-1.867,0.956-2.764,1.496c-0.908,0.546-1.248,0.094-1.568-0.687
			c-1.748-4.271-3.521-8.528-5.285-12.791c-0.817-1.977-1.604-3.968-2.473-5.921c-0.42-0.944-0.256-1.495,0.648-2.057
			c4.125-2.563,6.682-6.143,7.006-11.13c0.344-5.29-2.688-10.333-7.664-12.67c-4.806-2.257-10.746-1.306-14.521,2.312
			C520.054,1547.229,518.603,1550.456,518.619,1554.249z"/>
	</g>
	<path fill="#E4E6F0" d="M774.622,1201.146c-3.129,0-5.928,1.231-8.069,3.166l-29.332-17.076c0.207-0.947,0.367-1.896,0.367-2.884
		c0-0.983-0.16-1.934-0.367-2.881l29.01-16.91c2.219,2.058,5.145,3.332,8.393,3.332c6.832,0,12.345-5.514,12.345-12.344
		s-5.513-12.344-12.345-12.344s-12.346,5.514-12.346,12.344c0,0.986,0.16,1.935,0.371,2.883l-29.014,16.908
		c-2.22-2.057-5.146-3.332-8.392-3.332c-6.832,0-12.346,5.515-12.346,12.344c0,6.834,5.514,12.347,12.346,12.347
		c3.246,0,6.172-1.273,8.392-3.332l29.301,17.116c-0.209,0.863-0.326,1.771-0.326,2.675c0,6.623,5.391,12.014,12.014,12.014
		c6.621,0,12.013-5.391,12.013-12.014C786.635,1206.536,781.243,1201.146,774.622,1201.146z"/>
</g>
<g id="Scritte">
	<g>
		<path fill="#E4E8F1" d="M73.247,492.438v10.191h-2.846v-10.191h-3.836v-2.412H77.1v2.412H73.247z"/>
		<path fill="#E4E8F1" d="M81.454,490.188c0,0.899-0.612,1.549-1.494,1.549s-1.494-0.648-1.494-1.549
			c0-0.899,0.612-1.549,1.494-1.549S81.454,489.287,81.454,490.188z M78.573,502.629v-9.688h2.773v9.688H78.573z"/>
		<path fill="#E4E8F1" d="M93.678,496.543v6.086h-2.772v-5.275c0-1.225-0.721-1.98-1.907-1.98c-1.388,0.019-2.215,1.062-2.215,2.485
			v4.771H84.01v-9.688h2.773v1.691c0.684-1.206,1.836-1.782,3.349-1.8C92.292,492.834,93.678,494.273,93.678,496.543z"/>
		<path fill="#E4E8F1" d="M98.932,500v2.629H96.16v-13.36h2.771v7.348l3.547-3.656h3.151l-3.548,3.729l3.71,5.941h-3.277
			l-2.341-3.942L98.932,500z"/>
		<path fill="#E4E8F1" d="M115.637,498.631h-6.95c0.324,1.226,1.262,1.945,2.503,1.945c0.918,0,1.782-0.36,2.448-1.027l1.459,1.478
			c-0.973,1.081-2.395,1.711-4.142,1.711c-3.098,0-5.061-1.98-5.061-4.916c0-2.988,2.035-4.97,4.987-4.97
			C114.286,492.852,115.871,495.102,115.637,498.631z M113.044,496.992c-0.036-1.277-0.864-2.105-2.144-2.105
			c-1.225,0-2.053,0.828-2.269,2.105H113.044z"/>
		<path fill="#E4E8F1" d="M120.243,494.688c0.666-1.188,1.765-1.836,3.204-1.854v2.61c-1.98-0.182-3.204,0.882-3.204,2.521v4.664
			h-2.773v-9.688h2.773V494.688z"/>
		<path fill="#E4E8F1" d="M133.87,498.631h-6.95c0.324,1.226,1.261,1.945,2.503,1.945c0.918,0,1.782-0.36,2.448-1.027l1.459,1.478
			c-0.974,1.081-2.396,1.711-4.143,1.711c-3.097,0-5.06-1.98-5.06-4.916c0-2.988,2.035-4.97,4.987-4.97
			C132.52,492.852,134.104,495.102,133.87,498.631z M131.277,496.992c-0.035-1.277-0.863-2.105-2.143-2.105
			c-1.225,0-2.053,0.828-2.27,2.105H131.277z"/>
		<path fill="#E4E8F1" d="M138.477,494.688c0.666-1.188,1.766-1.836,3.205-1.854v2.61c-1.979-0.182-3.205,0.882-3.205,2.521v4.664
			h-2.772v-9.688h2.772V494.688z"/>
	</g>
	<g>
		<path fill="#E4E8F1" d="M262.906,366.073l-6.104-8.085v8.085h-2.719v-12.604h2.593l6.121,8.103v-8.103h2.701v12.604H262.906z"/>
		<path fill="#E4E8F1" d="M277.126,362.075h-6.95c0.324,1.225,1.261,1.945,2.503,1.945c0.918,0,1.782-0.36,2.448-1.027l1.459,1.477
			c-0.974,1.081-2.396,1.711-4.143,1.711c-3.097,0-5.06-1.98-5.06-4.916c0-2.988,2.035-4.969,4.987-4.969
			C275.775,356.296,277.36,358.546,277.126,362.075z M274.533,360.437c-0.036-1.277-0.864-2.105-2.144-2.105
			c-1.225,0-2.053,0.828-2.269,2.105H274.533z"/>
		<path fill="#E4E8F1" d="M287.728,366.073l-2.088-6.393l-2.071,6.393h-2.771l-3.547-9.67l2.826-0.018l2.16,6.932l2.09-6.932h2.719
			l2.124,6.932l2.125-6.932h2.735l-3.527,9.688L287.728,366.073L287.728,366.073z"/>
		<path fill="#E4E8F1" d="M303.884,358.349l-1.873,1.35c-0.521-0.647-1.26-1.043-2.214-1.025c-1.352,0-2.305,1.044-2.305,2.593
			c0,1.566,0.953,2.628,2.305,2.628c0.989,0,1.765-0.377,2.25-1.134l1.908,1.296c-0.811,1.352-2.322,2.143-4.304,2.143
			c-2.935,0-4.934-1.98-4.934-4.915c0-2.971,1.999-4.97,4.97-4.97C301.543,356.313,303.02,357.052,303.884,358.349z"/>
		<path fill="#E4E8F1" d="M314.918,361.247c0,2.953-2.09,4.951-5.187,4.951c-3.115,0-5.204-1.998-5.204-4.951
			c0-2.971,2.089-4.934,5.204-4.934C312.828,356.313,314.918,358.276,314.918,361.247z M307.319,361.283
			c0,1.585,0.973,2.665,2.413,2.665c1.422,0,2.412-1.08,2.412-2.665c0-1.585-0.99-2.665-2.412-2.665
			C308.291,358.618,307.319,359.698,307.319,361.283z"/>
		<path fill="#E4E8F1" d="M333.063,360.005v6.086h-2.755v-5.275c0-1.242-0.721-1.98-1.873-1.98
			c-1.332,0.018-2.144,1.062-2.144,2.467v4.789h-2.755v-5.275c0-1.242-0.72-1.98-1.854-1.98c-1.352,0.018-2.16,1.062-2.16,2.467
			v4.789h-2.773v-9.688h2.773v1.676c0.684-1.189,1.818-1.766,3.276-1.783c1.639,0,2.81,0.828,3.276,2.232
			c0.63-1.494,1.854-2.215,3.493-2.232C331.713,356.296,333.063,357.736,333.063,360.005z"/>
		<path fill="#E4E8F1" d="M344.365,362.094h-6.95c0.324,1.224,1.262,1.944,2.504,1.944c0.918,0,1.781-0.359,2.447-1.026l1.459,1.477
			c-0.973,1.081-2.395,1.71-4.142,1.71c-3.097,0-5.061-1.98-5.061-4.915c0-2.989,2.035-4.97,4.987-4.97
			C343.015,356.313,344.6,358.564,344.365,362.094z M341.772,360.455c-0.036-1.278-0.864-2.106-2.143-2.106
			c-1.226,0-2.054,0.828-2.27,2.106H341.772z"/>
		<path fill="#E4E8F1" d="M348.972,358.15c0.666-1.188,1.765-1.837,3.205-1.854v2.611c-1.98-0.181-3.205,0.882-3.205,2.52v4.664
			h-2.773v-9.688h2.773V358.15z"/>
		<path fill="#E4E8F1" d="M360.743,357.358l-0.954,1.891c-1.062-0.594-2.143-0.937-2.952-0.937c-0.648,0-1.116,0.216-1.116,0.72
			c0,1.459,5.113,0.721,5.096,4.142c0,1.98-1.747,3.024-3.943,3.024c-1.565,0-3.097-0.468-4.194-1.35l0.899-1.873
			c1.009,0.774,2.306,1.207,3.367,1.207c0.702,0,1.225-0.234,1.225-0.757c0-1.548-5.023-0.72-5.023-4.123
			c0-1.999,1.711-3.024,3.817-3.024C358.295,356.278,359.663,356.674,360.743,357.358z"/>
	</g>
	<g>
		<path fill="#E4E8F1" d="M959.972,490.793h-2.845v-3.997l-4.663-8.605h2.861l3.225,5.652l3.149-5.652h2.863l-4.592,8.533
			L959.972,490.793L959.972,490.793z"/>
		<path fill="#E4E8F1" d="M974.318,485.949c0,2.953-2.089,4.951-5.186,4.951c-3.115,0-5.204-1.998-5.204-4.951
			c0-2.972,2.089-4.935,5.204-4.935C972.229,481.016,974.318,482.979,974.318,485.949z M966.72,485.985
			c0,1.585,0.973,2.665,2.413,2.665c1.422,0,2.412-1.08,2.412-2.665s-0.99-2.665-2.412-2.665
			C967.692,483.32,966.72,484.4,966.72,485.985z"/>
		<path fill="#E4E8F1" d="M985.352,490.793h-2.755v-1.711c-0.666,1.225-1.782,1.818-3.241,1.818c-2.143,0-3.493-1.423-3.493-3.709
			v-6.086h2.773v5.295c0,1.224,0.702,1.962,1.817,1.962c1.332-0.02,2.144-1.062,2.144-2.468v-4.789h2.755V490.793z"/>
		<path fill="#E4E8F1" d="M997.698,484.707v6.086h-2.771v-5.275c0-1.225-0.722-1.979-1.908-1.979
			c-1.387,0.018-2.215,1.062-2.215,2.484v4.771h-2.773v-9.688h2.773v1.692c0.684-1.207,1.836-1.783,3.349-1.801
			C996.313,480.998,997.698,482.438,997.698,484.707z"/>
		<path fill="#E4E8F1" d="M1009.164,489.893c0,2.756-2.069,4.502-5.168,4.502c-1.639,0-3.097-0.521-4.213-1.278l1.026-1.944
			c0.882,0.63,1.908,0.973,3.007,0.973c1.584,0,2.593-0.847,2.593-2.16v-1.099c-0.647,0.9-1.639,1.404-2.917,1.404
			c-2.503,0-4.23-1.873-4.23-4.682c0-2.736,1.691-4.593,4.159-4.593c1.313-0.018,2.322,0.504,2.988,1.404v-1.313h2.755V489.893z
			 M1006.409,485.68c0-1.494-0.918-2.521-2.269-2.521c-1.352,0-2.27,1.045-2.287,2.521c0.019,1.478,0.919,2.502,2.287,2.502
			C1005.491,488.182,1006.409,487.156,1006.409,485.68z"/>
		<path fill="#E4E8F1" d="M961.952,507.64c0,2.862-1.801,4.825-4.536,4.825c-1.53,0-2.684-0.61-3.386-1.729v5.149h-2.07v-13.071
			h2.07v1.655c0.702-1.115,1.854-1.729,3.35-1.729C960.099,502.742,961.952,504.723,961.952,507.64z M959.864,507.568
			c0-1.783-1.206-3.099-2.916-3.099c-1.711,0-2.917,1.297-2.917,3.099c0,1.854,1.206,3.133,2.917,3.133
			C958.657,510.701,959.864,509.404,959.864,507.568z"/>
		<path fill="#E4E8F1" d="M972.536,508.396h-7.237c0.323,1.477,1.458,2.395,2.971,2.395c1.045,0,1.999-0.396,2.701-1.117
			l1.099,1.171c-0.937,1.026-2.305,1.62-3.962,1.62c-2.952,0-4.896-1.963-4.896-4.844c0-2.898,1.999-4.861,4.844-4.879
			C971.421,502.742,972.788,504.939,972.536,508.396z M970.736,506.883c-0.072-1.548-1.099-2.483-2.665-2.483
			c-1.512,0-2.574,0.954-2.809,2.483H970.736z"/>
		<path fill="#E4E8F1" d="M983.786,507.604c0,2.882-2.033,4.861-4.986,4.861c-2.972,0-5.006-1.979-5.006-4.86
			c0-2.898,2.034-4.861,5.006-4.861C981.753,502.742,983.786,504.705,983.786,507.604z M975.865,507.621
			c0,1.854,1.206,3.115,2.936,3.115c1.711,0,2.917-1.261,2.917-3.115c0-1.836-1.206-3.096-2.917-3.096
			C977.071,504.525,975.865,505.785,975.865,507.621z"/>
		<path fill="#E4E8F1" d="M996.027,507.64c0,2.862-1.801,4.825-4.537,4.825c-1.53,0-2.683-0.61-3.385-1.729v5.149h-2.071v-13.071
			h2.071v1.655c0.702-1.115,1.854-1.729,3.349-1.729C994.173,502.742,996.027,504.723,996.027,507.64z M993.938,507.568
			c0-1.783-1.206-3.099-2.916-3.099c-1.711,0-2.917,1.297-2.917,3.099c0,1.854,1.206,3.133,2.917,3.133
			C992.732,510.701,993.938,509.404,993.938,507.568z"/>
		<path fill="#E4E8F1" d="M998.274,512.393v-13.358h2.071v13.358H998.274z"/>
		<path fill="#E4E8F1" d="M1011.921,508.396h-7.238c0.324,1.477,1.459,2.395,2.971,2.395c1.045,0,1.999-0.396,2.701-1.117
			l1.099,1.171c-0.937,1.026-2.305,1.62-3.962,1.62c-2.952,0-4.896-1.963-4.896-4.844c0-2.898,1.999-4.861,4.844-4.879
			C1010.805,502.742,1012.173,504.939,1011.921,508.396z M1010.119,506.883c-0.071-1.548-1.098-2.483-2.665-2.483
			c-1.512,0-2.573,0.954-2.809,2.483H1010.119z"/>
	</g>
	<g>
		<path fill="#E4E8F1" d="M783.146,1399.869c0,3.638-2.917,6.428-6.771,6.428s-6.771-2.771-6.771-6.428
			c0-3.673,2.917-6.393,6.771-6.393C780.229,1393.479,783.146,1396.215,783.146,1399.869z M772.522,1399.869
			c0,2.215,1.782,3.943,3.889,3.943c2.107,0,3.817-1.729,3.817-3.943s-1.711-3.906-3.817-3.906
			C774.286,1395.963,772.522,1397.654,772.522,1399.869z"/>
		<path fill="#E4E8F1" d="M794.628,1400.086v6.086h-2.772v-5.274c0-1.226-0.721-1.981-1.908-1.981
			c-1.387,0.02-2.215,1.062-2.215,2.485v4.771h-2.773v-9.688h2.773v1.691c0.684-1.206,1.836-1.781,3.349-1.8
			C793.241,1396.377,794.628,1397.816,794.628,1400.086z"/>
		<path fill="#E4E8F1" d="M797.109,1406.172v-13.359h2.772v13.359H797.109z"/>
		<path fill="#E4E8F1" d="M805.532,1393.729c0,0.9-0.611,1.55-1.494,1.55c-0.882,0-1.493-0.648-1.493-1.55
			c0-0.898,0.611-1.548,1.493-1.548C804.921,1392.181,805.532,1392.83,805.532,1393.729z M802.652,1406.172v-9.688h2.773v9.688
			H802.652z"/>
		<path fill="#E4E8F1" d="M817.757,1400.086v6.086h-2.772v-5.274c0-1.226-0.721-1.981-1.908-1.981
			c-1.387,0.02-2.215,1.062-2.215,2.485v4.771h-2.772v-9.688h2.772v1.691c0.685-1.206,1.836-1.781,3.35-1.8
			C816.37,1396.377,817.757,1397.816,817.757,1400.086z"/>
		<path fill="#E4E8F1" d="M829.061,1402.174h-6.95c0.324,1.225,1.261,1.945,2.503,1.945c0.918,0,1.782-0.36,2.448-1.027l1.459,1.478
			c-0.973,1.081-2.396,1.711-4.142,1.711c-3.098,0-5.061-1.98-5.061-4.916c0-2.988,2.035-4.97,4.987-4.97
			C827.71,1396.395,829.295,1398.645,829.061,1402.174z M826.468,1400.535c-0.036-1.277-0.864-2.105-2.144-2.105
			c-1.225,0-2.053,0.828-2.269,2.105H826.468z"/>
		<path fill="#E4E8F1" d="M749.663,1419.688l-1.135,1.332c-0.666-0.684-1.584-1.099-2.735-1.079c-1.657,0-2.846,1.241-2.846,3.061
			s1.188,3.062,2.846,3.062c1.205,0,2.179-0.396,2.825-1.152l1.152,1.152c-0.864,1.135-2.25,1.782-4.068,1.782
			c-2.846,0-4.825-1.963-4.825-4.844c0-2.897,1.979-4.879,4.825-4.879C747.432,1418.121,748.781,1418.679,749.663,1419.688z"/>
		<path fill="#E4E8F1" d="M760.645,1422.982c0,2.881-2.034,4.86-4.987,4.86c-2.971,0-5.006-1.979-5.006-4.86
			c0-2.899,2.035-4.861,5.006-4.861C758.61,1418.121,760.645,1420.083,760.645,1422.982z M752.723,1423
			c0,1.854,1.206,3.115,2.935,3.115c1.711,0,2.917-1.262,2.917-3.115c0-1.836-1.206-3.097-2.917-3.097
			C753.929,1419.903,752.723,1421.164,752.723,1423z"/>
		<path fill="#E4E8F1" d="M771.967,1421.812v5.959h-2.07v-5.384c0-1.439-0.864-2.321-2.305-2.321
			c-1.585,0.018-2.575,1.115-2.721,2.609v5.096h-2.069v-9.578h2.069v1.837c0.686-1.332,1.909-1.908,3.529-1.908
			C770.634,1418.121,771.967,1419.525,771.967,1421.812z"/>
		<path fill="#E4E8F1" d="M776.645,1427.771l-3.71-9.579h2.161l2.665,7.544l2.629-7.544h2.07l-3.674,9.579H776.645z"/>
		<path fill="#E4E8F1" d="M791.965,1423.774h-7.238c0.324,1.477,1.458,2.395,2.971,2.395c1.045,0,1.999-0.396,2.701-1.116l1.1,1.17
			c-0.938,1.027-2.306,1.621-3.963,1.621c-2.951,0-4.896-1.963-4.896-4.844c0-2.897,1.999-4.861,4.844-4.879
			C790.849,1418.121,792.217,1420.317,791.965,1423.774z M790.163,1422.262c-0.071-1.549-1.099-2.483-2.665-2.483
			c-1.512,0-2.573,0.954-2.809,2.483H790.163z"/>
		<path fill="#E4E8F1" d="M796.192,1420.102c0.648-1.297,1.801-1.979,3.313-1.979v1.979c-1.928-0.107-3.151,1.025-3.313,2.664v5.006
			h-2.07v-9.578h2.07V1420.102z"/>
		<path fill="#E4E8F1" d="M807.426,1419.074l-0.756,1.531c-0.848-0.522-1.909-0.847-2.756-0.847c-0.811,0-1.403,0.271-1.403,0.953
			c0,1.767,5.096,0.812,5.077,4.285c0,1.963-1.746,2.846-3.673,2.846c-1.404,0-2.899-0.469-3.854-1.332l0.738-1.477
			c0.828,0.737,2.161,1.188,3.205,1.188c0.882,0,1.565-0.306,1.565-1.024c0-1.963-5.041-0.865-5.022-4.322
			c0-1.944,1.691-2.772,3.528-2.772C805.282,1418.104,806.562,1418.463,807.426,1419.074z"/>
		<path fill="#E4E8F1" d="M815.418,1426.602c-0.686,0.847-1.783,1.261-3.17,1.261c-2.07,0-3.366-1.278-3.366-2.972
			c0-1.745,1.313-2.862,3.619-2.881h2.897v-0.287c0-1.207-0.772-1.928-2.286-1.928c-0.919,0-1.873,0.324-2.827,0.974l-0.846-1.44
			c1.332-0.792,2.305-1.206,4.123-1.206c2.467,0,3.854,1.26,3.871,3.367l0.018,6.283h-2.033V1426.602L815.418,1426.602z
			 M815.399,1424.404v-0.882h-2.593c-1.352,0-1.98,0.359-1.98,1.277c0,0.864,0.702,1.422,1.854,1.422
			C814.156,1426.223,815.291,1425.449,815.399,1424.404z"/>
		<path fill="#E4E8F1" d="M825.642,1427.159c-0.756,0.45-1.549,0.702-2.358,0.702c-1.439,0-2.684-0.828-2.684-2.791v-4.969h-1.35
			v-1.55h1.35v-2.629h2.053v2.629h2.827v1.55h-2.827v4.591c0,0.989,0.378,1.296,1.026,1.296c0.433,0,0.883-0.145,1.439-0.414
			L825.642,1427.159z"/>
		<path fill="#E4E8F1" d="M829.78,1415.456c0,0.72-0.521,1.242-1.206,1.242c-0.685,0-1.206-0.522-1.206-1.242
			c0-0.738,0.521-1.261,1.206-1.261C829.259,1414.195,829.78,1414.718,829.78,1415.456z M827.548,1427.771v-9.579h2.053v9.579
			H827.548z"/>
		<path fill="#E4E8F1" d="M841.753,1422.982c0,2.881-2.034,4.86-4.987,4.86c-2.971,0-5.006-1.979-5.006-4.86
			c0-2.899,2.035-4.861,5.006-4.861C839.719,1418.121,841.753,1420.083,841.753,1422.982z M833.83,1423
			c0,1.854,1.206,3.115,2.936,3.115c1.71,0,2.917-1.262,2.917-3.115c0-1.836-1.207-3.097-2.917-3.097
			C835.036,1419.903,833.83,1421.164,833.83,1423z"/>
		<path fill="#E4E8F1" d="M853.074,1421.812v5.959h-2.069v-5.384c0-1.439-0.864-2.321-2.306-2.321
			c-1.585,0.018-2.574,1.115-2.719,2.609v5.096h-2.071v-9.578h2.071v1.837c0.684-1.332,1.908-1.908,3.528-1.908
			C851.742,1418.121,853.074,1419.525,853.074,1421.812z"/>
		<path fill="#E4E8F1" d="M862.056,1419.074l-0.756,1.531c-0.848-0.522-1.909-0.847-2.755-0.847c-0.812,0-1.404,0.271-1.404,0.953
			c0,1.767,5.095,0.812,5.077,4.285c0,1.963-1.746,2.846-3.673,2.846c-1.404,0-2.899-0.469-3.854-1.332l0.738-1.477
			c0.828,0.737,2.161,1.188,3.205,1.188c0.882,0,1.565-0.306,1.565-1.024c0-1.963-5.041-0.865-5.022-4.322
			c0-1.944,1.691-2.772,3.528-2.772C859.912,1418.104,861.191,1418.463,862.056,1419.074z"/>
	</g>
	<g>
		<path fill="#E4E8F1" d="M967.695,1301.624c3.907,0,6.626,2.575,6.626,6.302c0,3.709-2.755,6.303-6.733,6.303h-5.239v-12.604
			L967.695,1301.624L967.695,1301.624z M965.192,1311.834h2.574c2.106,0,3.655-1.585,3.655-3.89c0-2.323-1.62-3.926-3.781-3.926
			h-2.448V1311.834z"/>
		<path fill="#E4E8F1" d="M981.753,1313.094c-0.648,0.812-1.692,1.26-3.044,1.26c-2.069,0-3.33-1.26-3.33-3.023
			c0-1.818,1.313-2.899,3.69-2.917h2.664v-0.181c0-1.025-0.684-1.62-2.017-1.62c-0.864,0-1.872,0.288-2.881,0.847l-0.864-1.909
			c1.439-0.72,2.684-1.115,4.376-1.115c2.593,0,4.087,1.296,4.104,3.476l0.019,6.319h-2.72v-1.136H981.753z M981.734,1310.915
			v-0.864h-2.179c-1.062,0-1.584,0.324-1.584,1.099c0,0.737,0.576,1.225,1.513,1.225
			C980.654,1312.373,981.573,1311.743,981.734,1310.915z"/>
		<path fill="#E4E8F1" d="M992.858,1313.688c-0.72,0.414-1.62,0.666-2.521,0.666c-1.729,0-3.044-0.989-3.044-2.987v-4.483h-1.351
			v-1.909h1.351v-2.664h2.756v2.664h2.629v1.929h-2.629v3.995c0,0.812,0.342,1.136,0.937,1.117c0.359,0,0.792-0.127,1.296-0.36
			L992.858,1313.688z"/>
		<path fill="#E4E8F1" d="M1000.148,1313.094c-0.647,0.812-1.692,1.26-3.043,1.26c-2.07,0-3.331-1.26-3.331-3.023
			c0-1.818,1.314-2.899,3.691-2.917h2.664v-0.181c0-1.025-0.685-1.62-2.018-1.62c-0.864,0-1.872,0.288-2.881,0.847l-0.864-1.909
			c1.44-0.72,2.685-1.115,4.376-1.115c2.594,0,4.087,1.296,4.104,3.476l0.019,6.319h-2.719L1000.148,1313.094L1000.148,1313.094z
			 M1000.13,1310.915v-0.864h-2.179c-1.062,0-1.585,0.324-1.585,1.099c0,0.737,0.576,1.225,1.514,1.225
			C999.05,1312.373,999.968,1311.743,1000.13,1310.915z"/>
		<path fill="#E4E8F1" d="M947.859,1327.744l-1.135,1.332c-0.666-0.684-1.584-1.1-2.736-1.08c-1.657,0-2.845,1.242-2.845,3.061
			c0,1.819,1.188,3.062,2.845,3.062c1.206,0,2.179-0.396,2.826-1.152l1.152,1.152c-0.864,1.135-2.25,1.783-4.068,1.783
			c-2.846,0-4.826-1.963-4.826-4.845c0-2.897,1.98-4.879,4.826-4.879C945.627,1326.178,946.977,1326.735,947.859,1327.744z"/>
		<path fill="#E4E8F1" d="M958.84,1331.039c0,2.881-2.034,4.861-4.987,4.861c-2.971,0-5.006-1.98-5.006-4.861
			c0-2.899,2.035-4.861,5.006-4.861C956.806,1326.178,958.84,1328.14,958.84,1331.039z M950.918,1331.057
			c0,1.854,1.205,3.115,2.935,3.115c1.711,0,2.917-1.261,2.917-3.115c0-1.836-1.206-3.097-2.917-3.097
			C952.123,1327.96,950.918,1329.221,950.918,1331.057z"/>
		<path fill="#E4E8F1" d="M961.087,1335.828v-13.359h2.07v13.359H961.087z"/>
		<path fill="#E4E8F1" d="M966.396,1335.828v-13.359h2.071v13.359H966.396z"/>
		<path fill="#E4E8F1" d="M980.043,1331.831h-7.238c0.324,1.478,1.458,2.396,2.971,2.396c1.045,0,1.999-0.396,2.701-1.116
			l1.099,1.17c-0.937,1.026-2.305,1.621-3.962,1.621c-2.952,0-4.896-1.963-4.896-4.845c0-2.897,1.999-4.86,4.844-4.879
			C978.927,1326.178,980.295,1328.374,980.043,1331.831z M978.241,1330.318c-0.071-1.549-1.099-2.484-2.665-2.484
			c-1.512,0-2.573,0.954-2.809,2.484H978.241z"/>
		<path fill="#E4E8F1" d="M990.087,1327.744l-1.136,1.332c-0.666-0.684-1.584-1.1-2.735-1.08c-1.656,0-2.846,1.242-2.846,3.061
			c0,1.819,1.188,3.062,2.846,3.062c1.206,0,2.179-0.396,2.825-1.152l1.152,1.152c-0.864,1.135-2.25,1.783-4.068,1.783
			c-2.846,0-4.825-1.963-4.825-4.845c0-2.897,1.979-4.879,4.825-4.879C987.854,1326.178,989.203,1326.735,990.087,1327.744z"/>
		<path fill="#E4E8F1" d="M997.772,1335.216c-0.756,0.45-1.549,0.702-2.358,0.702c-1.439,0-2.684-0.828-2.684-2.791v-4.969h-1.35
			v-1.549h1.35v-2.629h2.053v2.629h2.827v1.549h-2.827v4.591c0,0.99,0.378,1.296,1.026,1.296c0.433,0,0.883-0.145,1.439-0.414
			L997.772,1335.216z"/>
		<path fill="#E4E8F1" d="M1001.91,1323.513c0,0.72-0.521,1.242-1.206,1.242c-0.685,0-1.206-0.522-1.206-1.242
			c0-0.737,0.521-1.261,1.206-1.261C1001.39,1322.252,1001.91,1322.774,1001.91,1323.513z M999.679,1335.828v-9.579h2.053v9.579
			H999.679z"/>
		<path fill="#E4E8F1" d="M1013.884,1331.039c0,2.881-2.034,4.861-4.987,4.861c-2.971,0-5.006-1.98-5.006-4.861
			c0-2.899,2.035-4.861,5.006-4.861C1011.85,1326.178,1013.884,1328.14,1013.884,1331.039z M1005.962,1331.057
			c0,1.854,1.206,3.115,2.935,3.115c1.71,0,2.917-1.261,2.917-3.115c0-1.836-1.207-3.097-2.917-3.097
			C1007.168,1327.96,1005.962,1329.221,1005.962,1331.057z"/>
		<path fill="#E4E8F1" d="M1025.205,1329.868v5.96h-2.069v-5.384c0-1.44-0.864-2.322-2.306-2.322
			c-1.585,0.018-2.574,1.116-2.719,2.61v5.096h-2.07v-9.579h2.07v1.837c0.685-1.332,1.908-1.908,3.528-1.908
			C1023.873,1326.178,1025.205,1327.582,1025.205,1329.868z"/>
	</g>
	<g>
		<path fill="#E4E8F1" d="M264.217,1177.156c3.205,0,5.041,1.586,5.041,4.376c0,2.935-1.836,4.628-5.041,4.628h-2.503v3.601h-2.845
			v-12.604L264.217,1177.156L264.217,1177.156z M261.714,1183.783h2.357c1.585,0,2.484-0.721,2.484-2.16
			c0-1.405-0.898-2.107-2.484-2.107h-2.357V1183.783z"/>
		<path fill="#E4E8F1" d="M273.792,1181.82c0.666-1.188,1.765-1.836,3.205-1.854v2.61c-1.981-0.181-3.205,0.883-3.205,2.521v4.663
			h-2.773v-9.687h2.773V1181.82z"/>
		<path fill="#E4E8F1" d="M288.067,1184.918c0,2.952-2.089,4.951-5.186,4.951c-3.115,0-5.204-1.999-5.204-4.951
			c0-2.972,2.089-4.934,5.204-4.934C285.979,1179.984,288.067,1181.946,288.067,1184.918z M280.469,1184.953
			c0,1.584,0.973,2.665,2.413,2.665c1.422,0,2.412-1.081,2.412-2.665s-0.99-2.664-2.412-2.664
			C281.441,1182.289,280.469,1183.369,280.469,1184.953z"/>
		<path fill="#E4E8F1" d="M295.896,1189.221c-0.72,0.414-1.62,0.666-2.521,0.666c-1.729,0-3.043-0.99-3.043-2.988v-4.483h-1.352
			v-1.908h1.352v-2.664h2.755v2.664h2.629v1.927h-2.629v3.997c0,0.812,0.342,1.136,0.937,1.116c0.359,0,0.792-0.126,1.296-0.36
			L295.896,1189.221z"/>
		<path fill="#E4E8F1" d="M307.057,1184.918c0,2.952-2.089,4.951-5.187,4.951c-3.114,0-5.203-1.999-5.203-4.951
			c0-2.972,2.089-4.934,5.203-4.934C304.968,1179.984,307.057,1181.946,307.057,1184.918z M299.457,1184.953
			c0,1.584,0.974,2.665,2.413,2.665c1.423,0,2.412-1.081,2.412-2.665s-0.989-2.664-2.412-2.664
			C300.431,1182.289,299.457,1183.369,299.457,1184.953z"/>
		<path fill="#E4E8F1" d="M314.885,1189.221c-0.721,0.414-1.62,0.666-2.521,0.666c-1.729,0-3.043-0.99-3.043-2.988v-4.483h-1.351
			v-1.908h1.351v-2.664h2.755v2.664h2.629v1.927h-2.629v3.997c0,0.812,0.343,1.136,0.938,1.116c0.358,0,0.792-0.126,1.296-0.36
			L314.885,1189.221z"/>
		<path fill="#E4E8F1" d="M321.257,1190.842c-0.686,1.71-1.873,2.538-3.548,2.538c-1.026,0-1.837-0.288-2.63-0.937l1.171-1.998
			c0.433,0.358,0.812,0.521,1.262,0.521c0.576,0,1.008-0.287,1.277-0.863l0.271-0.541l-4.015-9.487h2.861l2.539,6.662l2.286-6.662
			h2.773L321.257,1190.842z"/>
		<path fill="#E4E8F1" d="M337.188,1184.971c0,2.937-1.782,4.898-4.501,4.898c-1.351,0-2.413-0.541-3.115-1.514v4.897H326.8v-13.18
			h2.771v1.422c0.686-0.974,1.746-1.513,3.062-1.513C335.352,1179.984,337.188,1181.982,337.188,1184.971z M334.38,1184.881
			c0-1.548-0.974-2.664-2.396-2.664c-1.423,0-2.413,1.099-2.413,2.664c0,1.604,0.99,2.684,2.413,2.684
			C333.406,1187.564,334.38,1186.466,334.38,1184.881z"/>
		<path fill="#E4E8F1" d="M347.934,1185.764h-6.95c0.324,1.226,1.261,1.944,2.503,1.944c0.918,0,1.782-0.36,2.448-1.026l1.459,1.478
			c-0.973,1.08-2.396,1.711-4.142,1.711c-3.098,0-5.061-1.979-5.061-4.916c0-2.988,2.035-4.969,4.987-4.969
			C346.582,1179.984,348.168,1182.234,347.934,1185.764z M345.341,1184.125c-0.036-1.278-0.864-2.105-2.144-2.105
			c-1.225,0-2.053,0.827-2.269,2.105H345.341z"/>
		<path fill="#E4E8F1" d="M356.824,1181.028l-0.954,1.89c-1.062-0.594-2.143-0.936-2.952-0.936c-0.648,0-1.116,0.217-1.116,0.721
			c0,1.458,5.112,0.72,5.096,4.141c0,1.98-1.747,3.025-3.943,3.025c-1.565,0-3.097-0.469-4.194-1.352l0.899-1.871
			c1.009,0.772,2.306,1.204,3.367,1.204c0.702,0,1.225-0.232,1.225-0.756c0-1.549-5.023-0.721-5.023-4.123
			c0-1.998,1.711-3.024,3.817-3.024C354.376,1179.947,355.744,1180.344,356.824,1181.028z"/>
	</g>
	<g>
		<path fill="#E4E8F1" d="M225.726,1421.408l-2.539-8.985l-2.593,8.985h-2.935l-4.159-12.604h3.061l2.647,9.507l2.629-9.507h2.79
			l2.665,9.507l2.629-9.507h2.917l-4.178,12.604H225.726z"/>
		<path fill="#E4E8F1" d="M242.501,1416.564c0,2.952-2.089,4.95-5.187,4.95c-3.114,0-5.204-1.998-5.204-4.95
			c0-2.972,2.09-4.935,5.204-4.935C240.412,1411.631,242.501,1413.594,242.501,1416.564z M234.902,1416.6
			c0,1.585,0.974,2.666,2.413,2.666c1.422,0,2.412-1.081,2.412-2.666c0-1.584-0.99-2.664-2.412-2.664
			C235.875,1413.936,234.902,1415.016,234.902,1416.6z"/>
		<path fill="#E4E8F1" d="M247.106,1413.467c0.666-1.188,1.766-1.836,3.205-1.854v2.609c-1.98-0.181-3.205,0.883-3.205,2.521v4.664
			h-2.772v-9.688h2.772V1413.467z"/>
		<path fill="#E4E8F1" d="M254.684,1418.779v2.629h-2.771v-13.36h2.771v7.348l3.547-3.656h3.151l-3.548,3.728l3.71,5.942h-3.277
			l-2.341-3.943L254.684,1418.779z"/>
		<path fill="#E4E8F1" d="M269.787,1412.676l-0.954,1.891c-1.062-0.595-2.144-0.938-2.953-0.938c-0.648,0-1.116,0.217-1.116,0.721
			c0,1.459,5.113,0.722,5.096,4.142c0,1.98-1.747,3.024-3.942,3.024c-1.566,0-3.098-0.468-4.195-1.35l0.9-1.873
			c1.008,0.773,2.305,1.206,3.366,1.206c0.702,0,1.225-0.233,1.225-0.756c0-1.549-5.023-0.721-5.023-4.124
			c0-1.998,1.711-3.024,3.817-3.024C267.338,1411.595,268.707,1411.99,269.787,1412.676z"/>
		<path fill="#E4E8F1" d="M281.487,1415.322v6.086h-2.771v-5.275c0-1.225-0.721-1.98-1.909-1.98
			c-1.386,0.019-2.231,1.062-2.231,2.484v4.771h-2.772v-13.36h2.772v5.384c0.685-1.207,1.837-1.801,3.349-1.817
			C280.101,1411.613,281.487,1413.053,281.487,1415.322z"/>
		<path fill="#E4E8F1" d="M293.421,1416.564c0,2.952-2.089,4.95-5.187,4.95c-3.114,0-5.204-1.998-5.204-4.95
			c0-2.972,2.09-4.935,5.204-4.935C291.332,1411.631,293.421,1413.594,293.421,1416.564z M285.822,1416.6
			c0,1.585,0.974,2.666,2.413,2.666c1.422,0,2.412-1.081,2.412-2.666c0-1.584-0.99-2.664-2.412-2.664
			C286.795,1413.936,285.822,1415.016,285.822,1416.6z"/>
		<path fill="#E4E8F1" d="M305.732,1416.618c0,2.935-1.782,4.896-4.501,4.896c-1.351,0-2.413-0.54-3.115-1.512v4.896h-2.771v-13.181
			h2.771v1.422c0.686-0.972,1.746-1.512,3.062-1.512C303.896,1411.631,305.732,1413.629,305.732,1416.618z M302.924,1416.528
			c0-1.548-0.974-2.665-2.396-2.665c-1.423,0-2.413,1.099-2.413,2.665c0,1.603,0.99,2.683,2.413,2.683
			C301.95,1419.211,302.924,1418.113,302.924,1416.528z"/>
		<path fill="#E4E8F1" d="M314.622,1412.676l-0.953,1.891c-1.062-0.595-2.144-0.938-2.953-0.938c-0.648,0-1.116,0.217-1.116,0.721
			c0,1.459,5.113,0.722,5.096,4.142c0,1.98-1.747,3.024-3.942,3.024c-1.566,0-3.098-0.468-4.195-1.35l0.899-1.873
			c1.009,0.773,2.306,1.206,3.367,1.206c0.702,0,1.225-0.233,1.225-0.756c0-1.549-5.023-0.721-5.023-4.124
			c0-1.998,1.711-3.024,3.817-3.024C312.174,1411.595,313.543,1411.99,314.622,1412.676z"/>
	</g>
</g>
</svg>
