<?xml version="1.0" encoding="utf-8"?>
<!-- Generator: Adobe Illustrator 18.0.0, SVG Export Plug-In . SVG Version: 6.00 Build 0)  -->
<!DOCTYPE svg PUBLIC "-//W3C//DTD SVG 1.1//EN" "http://www.w3.org/Graphics/SVG/1.1/DTD/svg11.dtd">
<svg version="1.1" id="Layer_1" xmlns="http://www.w3.org/2000/svg" xmlns:xlink="http://www.w3.org/1999/xlink" x="0px" y="0px"
	 viewBox="0 0 1500 1500" enable-background="new 0 0 1500 1500" xml:space="preserve">
<g>
	<g>
		<polygon fill="#602480" points="440.3,440.4 465.8,474.4 414.7,512.6 389.2,478.6 		"/>
		<polygon fill="#602480" points="542.4,363.9 567.9,397.9 516.9,436.2 491.4,402.1 		"/>
		<polygon fill="#602480" points="1021.5,387.1 967.7,376.8 974.9,334.9 1028.7,345.1 		"/>
		<polygon fill="#602480" points="849.1,313.5 912,324.2 904.8,366.1 841.9,355.4 		"/>
		<polygon fill="#602480" points="723.3,292 786.2,302.7 779,344.6 716.1,333.9 		"/>
		<polygon fill="#602480" points="602.7,964.1 633.9,1019.8 596.8,1040.6 565.6,985 		"/>
		
			<rect x="505.4" y="869.8" transform="matrix(-0.4895 -0.872 0.872 -0.4895 23.3224 1795.822)" fill="#602480" width="63.8" height="42.5"/>
		<polygon fill="#602480" points="857.1,1056.7 877.1,1094.3 820.8,1124.3 800.8,1086.7 		"/>
		
			<rect x="930.3" y="998.7" transform="matrix(-0.4698 -0.8828 0.8828 -0.4698 488.8083 2354.8408)" fill="#602480" width="42.5" height="63.8"/>
		<polygon fill="#602480" points="1082.4,936.9 1102.4,974.5 1046.1,1004.4 1026.1,966.9 		"/>
		<path fill="#602480" d="M1084.2,448.2L1084.2,448.2l-7.8-0.1c-27.7,0-66.3-25.2-66.3-66.3c0-45.6,26.6-76.3,66.3-76.3
			c47.1,0,76.3,34.4,76.3,66.3c0,29.4-8.5,50.9-25.3,63.7C1112.6,446.9,1095.6,448.2,1084.2,448.2z M1076.4,348.1
			c-20.7,0-23.7,21.1-23.7,33.8c0,16.4,18.9,23.7,23.7,23.7l7.8,0.1l0,0c5.7,0,12.9-0.4,17.4-3.9c5.5-4.3,8.6-14.9,8.6-30
			C1110.1,363.8,1099.9,348.1,1076.4,348.1z"/>
		<path fill="#602480" d="M1202.9,948.3L1202.9,948.3l-7.8-0.1c-27.7,0-66.3-25.2-66.3-66.3c0-45.6,26.6-76.3,66.3-76.3
			c47.1,0,76.3,34.4,76.3,66.3c0,29.4-8.5,50.9-25.3,63.7C1231.4,947,1214.4,948.3,1202.9,948.3z M1195.2,848.1
			c-20.7,0-23.7,21.1-23.7,33.8c0,16.4,18.9,23.7,23.7,23.7l7.8,0.1l0,0c5.7,0,12.9-0.4,17.4-3.9c5.6-4.3,8.6-14.9,8.6-30
			C1228.9,863.9,1218.7,848.1,1195.2,848.1z"/>
		<path fill="#602480" d="M1034.1,1268.6L1034.1,1268.6l-7.8-0.1c-27.7,0-66.3-25.2-66.3-66.3c0-45.6,26.6-76.3,66.3-76.3
			c47.1,0,76.3,34.4,76.3,66.3c0,29.4-8.5,50.9-25.3,63.7C1062.6,1267.3,1045.6,1268.6,1034.1,1268.6z M1026.3,1168.5
			c-20.7,0-23.7,21.1-23.7,33.8c0,16.4,18.9,23.7,23.7,23.7l7.8,0.1l0,0c5.7,0,12.9-0.4,17.4-3.9c5.5-4.3,8.6-14.9,8.6-30
			C1060.1,1184.2,1049.9,1168.5,1026.3,1168.5z"/>
		<path fill="#602480" d="M698.3,1236.9L698.3,1236.9l-7.8-0.1c-27.7,0-66.3-25.2-66.3-66.3c0-45.6,26.6-76.3,66.3-76.3
			c47.1,0,76.3,34.4,76.3,66.3c0,29.4-8.5,50.9-25.3,63.7C726.8,1235.6,709.8,1236.9,698.3,1236.9z M690.5,1136.7
			c-19.6,0-23.7,18.4-23.7,33.8c0,16.4,18.9,23.8,23.7,23.8l7.8,0.1l0,0c5.7,0,12.9-0.5,17.4-3.9c5.5-4.3,8.6-14.9,8.6-30
			C724.3,1152.5,714.1,1136.7,690.5,1136.7z"/>
		<path fill="#602480" d="M434.6,1156.1L434.6,1156.1l-7.8-0.1c-27.7,0-66.3-25.2-66.3-66.3c0-45.7,26.6-76.3,66.3-76.3
			c47.1,0,76.3,34.4,76.3,66.3c0,29.4-8.5,50.9-25.3,63.7C463.1,1154.8,446.1,1156.1,434.6,1156.1z M426.9,1055.9
			c-20.7,0-23.7,21.2-23.7,33.8c0,16.4,18.9,23.7,23.7,23.7l7.8,0.1l0,0c5.7,0,12.9-0.4,17.4-3.9c5.5-4.3,8.6-14.9,8.6-30
			C460.6,1071.7,450.4,1055.9,426.9,1055.9z"/>
		<path fill="#602480" d="M494,891.1L494,891.1l-7.8-0.1c-27.7,0-66.3-25.2-66.3-66.3c0-45.6,26.6-76.3,66.3-76.3
			c47.1,0,76.3,34.4,76.3,66.3c0,29.4-8.5,50.9-25.2,63.7C522.5,889.8,505.5,891.1,494,891.1z M486.2,791
			c-20.7,0-23.8,21.1-23.8,33.8c0,16.4,18.9,23.7,23.8,23.7l7.8,0.1l0,0c5.7,0,12.9-0.4,17.4-3.9c5.5-4.3,8.6-14.9,8.6-30
			C520,806.7,509.8,791,486.2,791z"/>
		<path fill="#602480" d="M349.2,561.7l14.4-10.8l-25.5-34.1l-15.6,11.6C337.9,536.1,347.1,549.2,349.2,561.7z"/>
		<path fill="#602480" d="M302.6,643.5L302.6,643.5l-7.8-0.1c-27.7,0-66.3-25.2-66.3-66.3c0-45.6,26.6-76.3,66.3-76.3
			c47.1,0,76.3,34.4,76.3,66.3c0,29.4-8.5,50.9-25.3,63.7C331.1,642.1,314.1,643.5,302.6,643.5z M294.8,543.3
			c-20.7,0-23.7,21.2-23.7,33.8c0,16.4,18.9,23.8,23.7,23.8l7.8,0.1l0,0c5.7,0,12.9-0.4,17.4-3.9c5.5-4.3,8.6-14.9,8.6-30
			C328.6,559,318.4,543.3,294.8,543.3z"/>
		<path fill="#602480" d="M633.1,307.7c0-4.3,0.4-8.4,0.9-12.4l-40.5,30.3l25.5,34l27.9-20.9C639,331.4,633.1,321,633.1,307.7z"/>
		<path fill="#602480" d="M685.9,374.1L685.9,374.1l-7.8-0.1c-27.7,0-66.3-25.2-66.3-66.3c0-45.6,26.6-76.3,66.3-76.3
			c47.1,0,76.3,34.4,76.3,66.3c0,29.4-8.5,50.9-25.3,63.7C714.3,372.7,697.3,374.1,685.9,374.1z M678.1,273.9
			c-20.7,0-23.7,21.1-23.7,33.8c0,16.4,18.9,23.7,23.7,23.7l7.8,0.1l0,0c5.7,0,12.9-0.4,17.4-3.9c5.5-4.3,8.6-14.9,8.6-30
			C711.8,289.6,701.7,273.9,678.1,273.9z"/>
		<path fill="#602480" d="M426.9,1034.7c14.1,0,25.6,4.2,34.6,10.3l35.1-175.2c-4,0.1-7.5-0.1-10.2-0.1c-8.2,0-20.7-4.5-30.5-13.3
			L420,1035.4C422.2,1035.1,424.4,1034.7,426.9,1034.7z"/>
		<path fill="#602480" d="M687.8,1115.7l-22.6-40.3l-37.1,20.8l24,42.8C658.8,1125.5,670.7,1116.6,687.8,1115.7z"/>
		<path fill="#602480" d="M646.5,1179.4c-0.6-2.8-1-5.8-1-8.9c0-12.8,2.7-24.4,8-33.7l-171.7-58.1c0,0.3,0.1,0.7,0.1,1
			c0,19.6-4.3,32.2-10.6,40.4L646.5,1179.4z"/>
		<path fill="#602480" d="M745.6,1160.5c0,1.4-0.1,2.6-0.2,4l19.1-10.2l-20-37.6l-18.4,9.8C738.6,1135.7,745.6,1148.9,745.6,1160.5z
			"/>
		<path fill="#602480" d="M1153.7,898.6l-121.2,249.2c17,1.5,30,9,38.2,18.6l117-240.5C1175.8,923.1,1160.5,914,1153.7,898.6z"/>
		<path fill="#602480" d="M692.9,337.6l-41.7,8.2l31.9,162.8c17.5,0.9,32.6,4.6,45.4,10.3L692.9,337.6z"/>
		<path fill="#602480" d="M526.5,784.4c9.6,8.8,14.8,20.2,14.8,30.3c0,3.5-0.2,6.8-0.4,9.9l87.1-39.7c-8.7-10.8-17.3-22.6-25.5-35.1
			L526.5,784.4z"/>
		<path fill="#602480" d="M558.9,619l-210-37.7c-3.6,27.2-17.6,36.5-31.2,39.5l129.2,175.4c6.1-14,17.5-23.6,34.2-25.3L377,629.5
			L563.1,663c-2.9-12.4-4.5-25.1-4.5-37.7C558.6,623.1,558.8,621.1,558.9,619z"/>
		<path fill="#602480" d="M680.8,1116.5c3.1-0.6,6.3-1,9.7-1c12.9,0,23.6,3.4,32.2,8.7L750,888.5c-9.7-1.2-20.9-6.4-40.3-21.6
			L680.8,1116.5z"/>
		<path fill="#602480" d="M988.8,1169.5c7-13.1,19-21.7,36.4-22.1L829.6,844.2c-10.4,9.7-21.7,19.4-33,27.3L988.8,1169.5z"/>
		<polygon fill="#602480" points="758.7,812.8 759.2,808.6 756.9,810 		"/>
		<path fill="#602480" d="M1120,414.7c-11.8,14.2-29.8,13.9-40.5,13.7l90.4,387.1L930.1,712.2c-6.2,13-13.3,25.5-20.9,37.3
			l245.6,105.8c6.4-16.9,19.6-28.5,40.4-28.5c8.2,0,15.4,1.5,21.9,3.8L1120,414.7z"/>
		<path fill="#602480" d="M932.9,561.3l130.7-135.6c-12-4.4-25.4-14.3-30.3-29.9L903.5,530.6C915,539,925,549.3,932.9,561.3z"/>
	</g>
	<path fill="#2D9ED3" d="M835.1,545.5c-66.5,0-79.7,58.5-79.7,58.5s-10.6-58.5-79.8-58.5c-44.1,0-79.8,35.7-79.8,79.7
		c0,104.1,145.3,226.4,159.5,226.4c19.5,0,159.5-123.6,159.5-226.4C914.8,581.2,879.1,545.5,835.1,545.5z"/>
</g>
</svg>
