<?xml version="1.0" encoding="utf-8"?>
<!-- Generator: Adobe Illustrator 18.0.0, SVG Export Plug-In . SVG Version: 6.00 Build 0)  -->
<!DOCTYPE svg PUBLIC "-//W3C//DTD SVG 1.1//EN" "http://www.w3.org/Graphics/SVG/1.1/DTD/svg11.dtd">
<svg version="1.1" id="Layer_1" xmlns="http://www.w3.org/2000/svg" xmlns:xlink="http://www.w3.org/1999/xlink" x="0px" y="0px"
	 viewBox="0 0 1500 1500" enable-background="new 0 0 1500 1500" xml:space="preserve">
<g>
	<path fill="#2D9ED3" d="M427.1,1301.3c0,30.2-21.4,51-52.4,51c-31.2,0-52.6-20.8-52.6-51c0-30.4,21.4-51,52.6-51
		C405.7,1250.3,427.1,1270.9,427.1,1301.3z M343.9,1301.5c0,19.5,12.7,32.7,30.8,32.7c18,0,30.6-13.2,30.6-32.7
		c0-19.3-12.7-32.5-30.6-32.5C356.6,1269,343.9,1282.2,343.9,1301.5z"/>
	<path fill="#2D9ED3" d="M555.6,1301.7c0,30.1-18.9,50.7-47.6,50.7c-16.1,0-28.2-6.4-35.5-18.1v54.1h-21.7V1251h21.7v17.4
		c7.4-11.7,19.5-18.1,35.2-18.1C536.2,1250.3,555.6,1271.1,555.6,1301.7z M533.7,1300.9c0-18.7-12.7-32.5-30.6-32.5
		s-30.6,13.6-30.6,32.5c0,19.5,12.7,32.9,30.6,32.9S533.7,1320.2,533.7,1300.9z"/>
	<path fill="#2D9ED3" d="M666.8,1309.6h-76c3.4,15.5,15.3,25.1,31.2,25.1c11,0,21-4.2,28.4-11.7l11.5,12.3
		c-9.8,10.8-24.2,17-41.6,17c-31,0-51.4-20.6-51.4-50.9c0-30.4,21-51,50.9-51.2C655.1,1250.3,669.4,1273.3,666.8,1309.6z
		 M647.9,1293.8c-0.8-16.3-11.5-26.1-28-26.1c-15.9,0-27,10-29.5,26.1H647.9z"/>
	<path fill="#2D9ED3" d="M785.7,1289v62.6h-21.7v-56.5c0-15.1-9.1-24.4-24.2-24.4c-16.6,0.2-27,11.7-28.5,27.4v53.5h-21.7V1251h21.7
		v19.3c7.2-14,20-20,37.1-20C771.7,1250.3,785.7,1265,785.7,1289z"/>
	<path fill="#602480" d="M897.6,1266.7l-11.9,14c-7-7.2-16.6-11.5-28.7-11.3c-17.4,0-29.9,13-29.9,32.1c0,19.1,12.5,32.1,29.9,32.1
		c12.7,0,22.9-4.2,29.7-12.1l12.1,12.1c-9.1,11.9-23.6,18.7-42.7,18.7c-29.9,0-50.7-20.6-50.7-50.9c0-30.4,20.8-51.2,50.7-51.2
		C874.2,1250.3,888.3,1256.1,897.6,1266.7z"/>
	<path fill="#602480" d="M977.6,1339.3c-7.2,8.9-18.7,13.2-33.3,13.2c-21.7,0-35.4-13.4-35.4-31.2c0-18.3,13.8-30.1,38-30.2h30.4v-3
		c0-12.7-8.1-20.2-24-20.2c-9.6,0-19.7,3.4-29.7,10.2l-8.9-15.1c14-8.3,24.2-12.7,43.3-12.7c25.9,0,40.5,13.2,40.6,35.4l0.2,66
		h-21.4V1339.3z M977.4,1316.3v-9.3h-27.2c-14.2,0-20.8,3.8-20.8,13.4c0,9.1,7.4,14.9,19.5,14.9
		C964.3,1335.3,976.2,1327.2,977.4,1316.3z"/>
	<path fill="#602480" d="M1049.8,1271.1c6.8-13.6,18.9-20.8,34.8-20.8v20.8c-20.2-1.1-33.1,10.8-34.8,28v52.6H1028V1251h21.7V1271.1
		z"/>
	<path fill="#602480" d="M1191,1309.6h-76c3.4,15.5,15.3,25.1,31.2,25.1c11,0,21-4.2,28.4-11.7l11.5,12.3c-9.8,10.8-24.2,17-41.6,17
		c-31,0-51.4-20.6-51.4-50.9c0-30.4,21-51,50.9-51.2C1179.3,1250.3,1193.6,1273.3,1191,1309.6z M1172.1,1293.8
		c-0.8-16.3-11.5-26.1-28-26.1c-15.9,0-27,10-29.5,26.1H1172.1z"/>
</g>
<g>
	<g>
		<polygon fill="#602480" points="440,308.6 465.4,342.6 414.4,380.9 388.9,346.8 		"/>
		<polygon fill="#602480" points="542.1,232.1 567.6,266.1 516.5,304.4 491,270.3 		"/>
		<polygon fill="#602480" points="1021.2,255.3 967.4,245 974.5,203.1 1028.3,213.3 		"/>
		<polygon fill="#602480" points="848.7,181.7 911.6,192.4 904.5,234.3 841.6,223.6 		"/>
		<polygon fill="#602480" points="722.9,160.2 785.8,170.9 778.7,212.9 715.8,202.1 		"/>
		<polygon fill="#602480" points="602.3,832.4 633.6,888 596.5,908.8 565.2,853.2 		"/>
		
			<rect x="505.1" y="738" transform="matrix(-0.4895 -0.872 0.872 -0.4895 137.7024 1599.2119)" fill="#602480" width="63.8" height="42.5"/>
		<polygon fill="#602480" points="856.8,925 876.7,962.5 820.4,992.5 800.4,954.9 		"/>
		
			<rect x="930" y="866.9" transform="matrix(-0.4698 -0.8828 0.8828 -0.4698 604.6187 2160.832)" fill="#602480" width="42.5" height="63.8"/>
		<polygon fill="#602480" points="1082.1,805.1 1102,842.7 1045.7,872.6 1025.7,835.1 		"/>
		<path fill="#602480" d="M1083.8,316.5L1083.8,316.5l-7.8-0.1c-27.7,0-66.3-25.2-66.3-66.3c0-45.6,26.6-76.3,66.3-76.3
			c47.1,0,76.3,34.4,76.3,66.3c0,29.4-8.5,50.9-25.3,63.7C1112.3,315.1,1095.3,316.5,1083.8,316.5z M1076,216.3
			c-20.7,0-23.7,21.1-23.7,33.8c0,16.4,18.9,23.7,23.7,23.7l7.8,0.1l0,0c5.7,0,12.9-0.4,17.4-3.9c5.5-4.3,8.6-14.9,8.6-30
			C1109.8,232,1099.6,216.3,1076,216.3z"/>
		<path fill="#602480" d="M1202.6,816.5L1202.6,816.5l-7.8-0.1c-27.7,0-66.3-25.2-66.3-66.3c0-45.6,26.6-76.3,66.3-76.3
			c47.1,0,76.3,34.4,76.3,66.3c0,29.4-8.5,50.9-25.3,63.7C1231.1,815.2,1214.1,816.5,1202.6,816.5z M1194.8,716.4
			c-20.7,0-23.7,21.1-23.7,33.8c0,16.4,18.9,23.7,23.7,23.7l7.8,0.1l0,0c5.7,0,12.9-0.4,17.4-3.9c5.6-4.3,8.6-14.9,8.6-30
			C1228.6,732.1,1218.4,716.4,1194.8,716.4z"/>
		<path fill="#602480" d="M1033.8,1136.8L1033.8,1136.8l-7.8-0.1c-27.7,0-66.3-25.2-66.3-66.3c0-45.6,26.6-76.3,66.3-76.3
			c47.1,0,76.3,34.4,76.3,66.3c0,29.4-8.5,50.9-25.3,63.7C1062.2,1135.5,1045.3,1136.8,1033.8,1136.8z M1026,1036.7
			c-20.7,0-23.7,21.1-23.7,33.8c0,16.4,18.9,23.7,23.7,23.7l7.8,0.1l0,0c5.7,0,12.9-0.4,17.4-3.9c5.5-4.3,8.6-14.9,8.6-30
			C1059.7,1052.4,1049.6,1036.7,1026,1036.7z"/>
		<path fill="#602480" d="M698,1105.1L698,1105.1l-7.8-0.1c-27.7,0-66.3-25.2-66.3-66.3c0-45.6,26.6-76.3,66.3-76.3
			c47.1,0,76.3,34.4,76.3,66.3c0,29.4-8.5,50.9-25.3,63.7C726.4,1103.8,709.4,1105.1,698,1105.1z M690.2,1004.9
			c-19.6,0-23.7,18.4-23.7,33.8c0,16.4,18.9,23.8,23.7,23.8l7.8,0.1l0,0c5.7,0,12.9-0.5,17.4-3.9c5.5-4.3,8.6-14.9,8.6-30
			C723.9,1020.7,713.8,1004.9,690.2,1004.9z"/>
		<path fill="#602480" d="M434.3,1024.3L434.3,1024.3l-7.8-0.1c-27.7,0-66.3-25.2-66.3-66.3c0-45.7,26.6-76.3,66.3-76.3
			c47.1,0,76.3,34.4,76.3,66.3c0,29.4-8.5,50.9-25.3,63.7C462.7,1023,445.8,1024.3,434.3,1024.3z M426.5,924.1
			c-20.7,0-23.7,21.2-23.7,33.8c0,16.4,18.9,23.7,23.7,23.7l7.8,0.1l0,0c5.7,0,12.9-0.4,17.4-3.9c5.5-4.3,8.6-14.9,8.6-30
			C460.2,939.9,450.1,924.1,426.5,924.1z"/>
		<path fill="#602480" d="M493.7,759.4L493.7,759.4l-7.8-0.1c-27.7,0-66.3-25.2-66.3-66.3c0-45.6,26.6-76.3,66.3-76.3
			c47.1,0,76.3,34.4,76.3,66.3c0,29.4-8.5,50.9-25.2,63.7C522.1,758,505.1,759.4,493.7,759.4z M485.9,659.2
			c-20.7,0-23.8,21.1-23.8,33.8c0,16.4,18.9,23.7,23.8,23.7l7.8,0.1l0,0c5.7,0,12.9-0.4,17.4-3.9c5.5-4.3,8.6-14.9,8.6-30
			C519.6,674.9,509.4,659.2,485.9,659.2z"/>
		<path fill="#602480" d="M348.8,429.9l14.4-10.8l-25.5-34.1l-15.6,11.6C337.5,404.3,346.8,417.4,348.8,429.9z"/>
		<path fill="#602480" d="M302.2,511.7L302.2,511.7l-7.8-0.1c-27.7,0-66.3-25.2-66.3-66.3c0-45.6,26.6-76.3,66.3-76.3
			c47.1,0,76.3,34.4,76.3,66.3c0,29.4-8.5,50.9-25.3,63.7C330.7,510.4,313.7,511.7,302.2,511.7z M294.5,411.5
			c-20.7,0-23.7,21.2-23.7,33.8c0,16.4,18.9,23.8,23.7,23.8l7.8,0.1l0,0c5.7,0,12.9-0.4,17.4-3.9c5.5-4.3,8.6-14.9,8.6-30
			C328.2,427.2,318,411.5,294.5,411.5z"/>
		<path fill="#602480" d="M632.7,175.9c0-4.3,0.4-8.4,0.9-12.4l-40.5,30.3l25.5,34l27.9-20.9C638.6,199.6,632.7,189.2,632.7,175.9z"
			/>
		<path fill="#602480" d="M685.5,242.3L685.5,242.3l-7.8-0.1c-27.7,0-66.3-25.2-66.3-66.3c0-45.6,26.6-76.3,66.3-76.3
			c47.1,0,76.3,34.4,76.3,66.3c0,29.4-8.5,50.9-25.3,63.7C714,241,697,242.3,685.5,242.3z M677.7,142.1c-20.7,0-23.7,21.1-23.7,33.8
			c0,16.4,18.9,23.7,23.7,23.7l7.8,0.1l0,0c5.7,0,12.9-0.4,17.4-3.9c5.5-4.3,8.6-14.9,8.6-30C711.5,157.9,701.3,142.1,677.7,142.1z"
			/>
		<path fill="#602480" d="M426.5,902.9c14.1,0,25.6,4.2,34.6,10.3l35.1-175.2c-4,0.1-7.5-0.1-10.2-0.1c-8.2,0-20.7-4.5-30.5-13.3
			l-35.8,178.9C421.9,903.3,424,902.9,426.5,902.9z"/>
		<path fill="#602480" d="M687.5,983.9l-22.6-40.3l-37.1,20.8l24,42.8C658.4,993.8,670.3,984.8,687.5,983.9z"/>
		<path fill="#602480" d="M646.2,1047.6c-0.6-2.8-1-5.8-1-8.9c0-12.8,2.7-24.4,8-33.7L481.4,947c0,0.3,0.1,0.7,0.1,1
			c0,19.6-4.3,32.2-10.6,40.4L646.2,1047.6z"/>
		<path fill="#602480" d="M745.2,1028.7c0,1.4-0.1,2.6-0.2,4l19.1-10.2l-20-37.6l-18.4,9.8C738.3,1003.9,745.2,1017.1,745.2,1028.7z
			"/>
		<path fill="#602480" d="M1153.3,766.8L1032.1,1016c17,1.5,30,9,38.2,18.6l117-240.5C1175.4,791.3,1160.1,782.2,1153.3,766.8z"/>
		<path fill="#602480" d="M692.5,205.8l-41.7,8.2l31.9,162.8c17.5,0.9,32.6,4.6,45.4,10.3L692.5,205.8z"/>
		<path fill="#602480" d="M526.1,652.6c9.6,8.8,14.8,20.2,14.8,30.3c0,3.5-0.2,6.8-0.4,9.9l87.1-39.7c-8.7-10.8-17.3-22.6-25.5-35.1
			L526.1,652.6z"/>
		<path fill="#602480" d="M558.5,487.2l-210-37.7c-3.6,27.2-17.6,36.5-31.2,39.5l129.2,175.4c6.1-14,17.5-23.6,34.2-25.3
			L376.6,497.7l186.1,33.4c-2.9-12.4-4.5-25.1-4.5-37.7C558.2,491.4,558.4,489.3,558.5,487.2z"/>
		<path fill="#602480" d="M680.4,984.7c3.1-0.6,6.3-1,9.7-1c12.9,0,23.6,3.4,32.2,8.7l27.2-235.6c-9.7-1.2-20.9-6.4-40.3-21.6
			L680.4,984.7z"/>
		<path fill="#602480" d="M988.4,1037.7c7-13.1,19-21.7,36.4-22.1L829.2,712.4c-10.4,9.7-21.7,19.4-33,27.3L988.4,1037.7z"/>
		<polygon fill="#602480" points="758.4,681 758.8,676.8 756.6,678.3 		"/>
		<path fill="#602480" d="M1119.6,282.9c-11.8,14.2-29.8,13.9-40.5,13.7l90.4,387.1L929.8,580.4c-6.2,13-13.3,25.5-20.9,37.3
			l245.6,105.8c6.4-16.9,19.6-28.5,40.4-28.5c8.2,0,15.4,1.5,21.9,3.8L1119.6,282.9z"/>
		<path fill="#602480" d="M932.5,429.5l130.7-135.6c-12-4.4-25.4-14.3-30.3-29.9L903.1,398.8C914.7,407.2,924.7,417.6,932.5,429.5z"
			/>
	</g>
	<path fill="#2D9ED3" d="M834.7,413.7c-66.5,0-79.7,58.5-79.7,58.5s-10.6-58.5-79.8-58.5c-44.1,0-79.8,35.7-79.8,79.7
		c0,104.1,145.3,226.4,159.5,226.4c19.5,0,159.5-123.6,159.5-226.4C914.5,449.4,878.7,413.7,834.7,413.7z"/>
</g>
</svg>
