<?xml version="1.0" encoding="utf-8"?>
<!-- Generator: Adobe Illustrator 18.0.0, SVG Export Plug-In . SVG Version: 6.00 Build 0)  -->
<!DOCTYPE svg PUBLIC "-//W3C//DTD SVG 1.1//EN" "http://www.w3.org/Graphics/SVG/1.1/DTD/svg11.dtd">
<svg version="1.1" xmlns="http://www.w3.org/2000/svg" xmlns:xlink="http://www.w3.org/1999/xlink" x="0px" y="0px"
	 viewBox="0 0 1099.3 1500" enable-background="new 0 0 1099.3 1500" xml:space="preserve">
<g id="Layer_1">
	<g>
		<g>
			<path fill="#9775B0" d="M544.9,1288.1c0-30.4,0-60.7,0-91.1c0-63.2,0-126.4,0-189.5c0-54.2,0-108.4,0-162.6c0-10.8,0-21.7,0-32.5
				c0-3.2-5-3.2-5,0c0,30.4,0,60.7,0,91.1c0,63.2,0,126.4,0,189.5c0,54.2,0,108.4,0,162.6c0,10.8,0,21.7,0,32.5
				C539.9,1291.3,544.9,1291.3,544.9,1288.1L544.9,1288.1z"/>
		</g>
	</g>
	<rect x="470.4" y="1202.6" fill="#FFFFFF" width="142.2" height="41.9"/>
	<g>
		<g>
			<path fill="#9775B0" d="M750.3,1208.1c-15.3,0-30.6,0-45.9,0c0.8,0.8,1.7,1.7,2.5,2.5c0-22.3,0-44.7,0-67c0-1.4-1.1-2.5-2.5-2.5
				c-49.5,0-98.9,0-148.4,0c-42.5,0-85,0-127.5,0c-16.6,0-33.2,0-49.8,0c-1.4,0-2.5,1.1-2.5,2.5c0,22.3,0,44.7,0,67
				c0.8-0.8,1.7-1.7,2.5-2.5c-15.3,0-30.6,0-45.9,0c-3.2,0-3.2,5,0,5c15.3,0,30.6,0,45.9,0c1.4,0,2.5-1.1,2.5-2.5
				c0-22.3,0-44.7,0-67c-0.8,0.8-1.7,1.7-2.5,2.5c49.5,0,98.9,0,148.4,0c42.5,0,85,0,127.5,0c16.6,0,33.2,0,49.8,0
				c-0.8-0.8-1.7-1.7-2.5-2.5c0,22.3,0,44.7,0,67c0,1.4,1.1,2.5,2.5,2.5c15.3,0,30.6,0,45.9,0
				C753.5,1213.1,753.5,1208.1,750.3,1208.1L750.3,1208.1z"/>
		</g>
	</g>
	<g>
		<g>
			<path fill="#9775B0" d="M364.6,1005.6c13,0,26,0,38.9,0c-0.8-0.8-1.7-1.7-2.5-2.5c0,22.3,0,44.7,0,67c0,1.4,1.1,2.5,2.5,2.5
				c45.8,0,91.7,0,137.5,0c45.5,0,91.1,0,136.6,0c0.6,0,1.2,0,1.8,0c1.4,0,2.5-1.1,2.5-2.5c0-22.3,0-44.7,0-67
				c-0.8,0.8-1.7,1.7-2.5,2.5c13,0,26,0,38.9,0c3.2,0,3.2-5,0-5c-13,0-26,0-38.9,0c-1.4,0-2.5,1.1-2.5,2.5c0,22.3,0,44.7,0,67
				c0.8-0.8,1.7-1.7,2.5-2.5c-45.8,0-91.7,0-137.5,0c-45.5,0-91.1,0-136.6,0c-0.6,0-1.2,0-1.8,0c0.8,0.8,1.7,1.7,2.5,2.5
				c0-22.3,0-44.7,0-67c0-1.4-1.1-2.5-2.5-2.5c-13,0-26,0-38.9,0C361.4,1000.6,361.4,1005.6,364.6,1005.6L364.6,1005.6z"/>
		</g>
	</g>
	<g>
		<g>
			<path fill="#9775B0" d="M148.3,1111.3c20,0,40.1,0,60.1,0c49.9,0,99.8,0,149.7,0c64.4,0,128.9,0,193.3,0c63.7,0,127.4,0,191.1,0
				c47.6,0,95.2,0,142.8,0c16.4,0,32.9,0,49.3,0c3.2,0,3.2-5,0-5c-20,0-40.1,0-60.1,0c-49.9,0-99.8,0-149.7,0
				c-64.4,0-128.9,0-193.3,0c-63.7,0-127.4,0-191.1,0c-47.6,0-95.2,0-142.8,0c-16.4,0-32.9,0-49.3,0
				C145.1,1106.3,145.1,1111.3,148.3,1111.3L148.3,1111.3z"/>
		</g>
	</g>
	<g>
		<g>
			<path fill="#9775B0" d="M539.9,376.8c0,49.8,0,99.6,0,149.4c0,7.6,0,15.1,0,22.7c0,3.2,5,3.2,5,0c0-49.8,0-99.6,0-149.4
				c0-7.6,0-15.1,0-22.7C544.9,373.6,539.9,373.6,539.9,376.8L539.9,376.8z"/>
		</g>
	</g>
	<g>
		<g>
			<path fill="#9775B0" d="M310.3,212.9c0,11.5,0,23,0,34.5c0,1.4,1.1,2.5,2.5,2.5c26.3,0,52.6,0,78.8,0c-0.8-0.8-1.7-1.7-2.5-2.5
				c0,49.6,0,99.2,0,148.8c0,11.9,0,23.8,0,35.7c0,1.4,1.1,2.5,2.5,2.5c26,0,52.1,0,78.1,0c-0.8-0.8-1.7-1.7-2.5-2.5
				c0,44.1,0,88.2,0,132.3c0,3.2,5,3.2,5,0c0-44.1,0-88.2,0-132.3c0-1.4-1.1-2.5-2.5-2.5c-26,0-52.1,0-78.1,0
				c0.8,0.8,1.7,1.7,2.5,2.5c0-49.8,0-99.6,0-149.4c0-11.7,0-23.4,0-35.1c0-1.4-1.1-2.5-2.5-2.5c-26.3,0-52.6,0-78.8,0
				c0.8,0.8,1.7,1.7,2.5,2.5c0-11.5,0-23,0-34.5C315.3,209.7,310.3,209.7,310.3,212.9L310.3,212.9z"/>
		</g>
	</g>
	<g>
		<g>
			<path fill="#9775B0" d="M765.2,212.9c0,11.5,0,23,0,34.5c0.8-0.8,1.7-1.7,2.5-2.5c-26.3,0-52.6,0-78.8,0c-1.4,0-2.5,1.1-2.5,2.5
				c0,49.6,0,99.2,0,148.8c0,11.9,0,23.8,0,35.7c0.8-0.8,1.7-1.7,2.5-2.5c-26,0-52.1,0-78.1,0c-1.4,0-2.5,1.1-2.5,2.5
				c0,44.1,0,88.2,0,132.3c0,3.2,5,3.2,5,0c0-44.1,0-88.2,0-132.3c-0.8,0.8-1.7,1.7-2.5,2.5c26,0,52.1,0,78.1,0
				c1.4,0,2.5-1.1,2.5-2.5c0-49.8,0-99.6,0-149.4c0-11.7,0-23.4,0-35.1c-0.8,0.8-1.7,1.7-2.5,2.5c26.3,0,52.6,0,78.8,0
				c1.4,0,2.5-1.1,2.5-2.5c0-11.5,0-23,0-34.5C770.2,209.7,765.2,209.7,765.2,212.9L765.2,212.9z"/>
		</g>
	</g>
	<path fill="#5F267F" d="M609.3,1339.4c0,37.5-30.4,67.8-67.8,67.8c-37.5,0-67.8-30.4-67.8-67.8c0-37.5,30.4-67.8,67.8-67.8
		C579,1271.5,609.3,1301.9,609.3,1339.4z"/>
	<circle fill="#5F267F" cx="810.2" cy="1201.7" r="70.6"/>
	<circle fill="#5F267F" cx="541.5" cy="1071.5" r="91.1"/>
	<circle fill="#5F267F" cx="114.2" cy="1110.1" r="52.8"/>
	<circle fill="#5F267F" cx="317.1" cy="974.2" r="63.1"/>
	<circle fill="#5F267F" cx="274" cy="1201.7" r="70.6"/>
	<circle fill="#5F267F" cx="991.1" cy="1110.1" r="52.8"/>
	<circle fill="#5F267F" cx="767.1" cy="974.2" r="63.1"/>
	<g>
		<g>
			<g>
				<g>
					
						<rect x="483.6" y="607.7" transform="matrix(-0.5991 -0.8007 0.8007 -0.5991 288.1892 1370.4835)" fill="#60257E" width="7.2" height="10.7"/>
					
						<rect x="500.8" y="594.8" transform="matrix(-0.5993 -0.8006 0.8006 -0.5993 326.1561 1363.6948)" fill="#60257E" width="7.2" height="10.7"/>
					<polygon fill="#60257E" points="587.2,598 578.2,596.3 579.4,589.3 588.4,591 					"/>
					
						<rect x="557.5" y="586.5" transform="matrix(-0.9858 -0.1681 0.1681 -0.9858 1018.5162 1266.3871)" fill="#60257E" width="10.7" height="7.2"/>
					
						<rect x="536.3" y="582.9" transform="matrix(-0.9858 -0.1682 0.1682 -0.9858 977.0353 1255.6687)" fill="#60257E" width="10.7" height="7.2"/>
					
						<rect x="510.8" y="698" transform="matrix(-0.4893 -0.8721 0.8721 -0.4893 156.8526 1495.1086)" fill="#60257E" width="10.7" height="7.2"/>
					
						<rect x="500.3" y="679.3" transform="matrix(-0.4898 -0.8719 0.8719 -0.4898 157.9695 1458.234)" fill="#60257E" width="10.7" height="7.2"/>
					
						<rect x="552.9" y="711.1" transform="matrix(-0.47 -0.8827 0.8827 -0.47 185.571 1544.3645)" fill="#60257E" width="7.2" height="10.7"/>
					
						<rect x="571.9" y="701" transform="matrix(-0.4693 -0.883 0.883 -0.4693 221.7533 1546.0353)" fill="#60257E" width="7.2" height="10.7"/>
					
						<rect x="590.8" y="690.9" transform="matrix(-0.4697 -0.8828 0.8828 -0.4697 258.8514 1548.0743)" fill="#60257E" width="7.2" height="10.7"/>
					<path fill="#60257E" d="M597.8,608.3L597.8,608.3l-1.3,0c-4.7,0-11.2-4.2-11.2-11.2c0-7.7,4.5-12.8,11.2-12.8
						c7.9,0,12.8,5.8,12.8,11.2c0,5-1.4,8.6-4.3,10.7C602.5,608.1,599.7,608.3,597.8,608.3z M596.4,591.5c-3.5,0-4,3.6-4,5.7
						c0,2.8,3.2,4,4,4l1.3,0l0,0c1,0,2.2-0.1,2.9-0.7c0.9-0.7,1.4-2.5,1.4-5C602.1,594.1,600.4,591.5,596.4,591.5z"/>
					<path fill="#60257E" d="M617.8,692.5L617.8,692.5l-1.3,0c-4.7,0-11.2-4.2-11.2-11.2c0-7.7,4.5-12.8,11.2-12.8
						c7.9,0,12.8,5.8,12.8,11.2c0,5-1.4,8.6-4.3,10.7C622.5,692.3,619.7,692.5,617.8,692.5z M616.4,675.7c-3.5,0-4,3.6-4,5.7
						c0,2.8,3.2,4,4,4l1.3,0l0,0c1,0,2.2-0.1,2.9-0.7c0.9-0.7,1.5-2.5,1.5-5C622.1,678.3,620.4,675.7,616.4,675.7z"/>
					<path fill="#60257E" d="M589.3,746.5L589.3,746.5l-1.3,0c-4.7,0-11.2-4.2-11.2-11.2c0-7.7,4.5-12.8,11.2-12.8
						c7.9,0,12.8,5.8,12.8,11.2c0,5-1.4,8.6-4.3,10.7C594.1,746.2,591.3,746.5,589.3,746.5z M588,729.6c-3.5,0-4,3.6-4,5.7
						c0,2.8,3.2,4,4,4l1.3,0l0,0c1,0,2.2-0.1,2.9-0.6c0.9-0.7,1.4-2.5,1.4-5.1C593.7,732.2,592,729.6,588,729.6z"/>
					<path fill="#60257E" d="M532.8,741.1L532.8,741.1l-1.3,0c-4.7,0-11.2-4.2-11.2-11.2c0-7.7,4.5-12.8,11.2-12.8
						c7.9,0,12.8,5.8,12.8,11.2c0,5-1.4,8.6-4.3,10.7C537.6,740.9,534.7,741.1,532.8,741.1z M531.5,724.2c-3.3,0-4,3.1-4,5.7
						c0,2.8,3.2,4,4,4l1.3,0l0,0c1,0,2.2-0.1,2.9-0.7c0.9-0.7,1.4-2.5,1.4-5C537.2,726.9,535.5,724.2,531.5,724.2z"/>
					<path fill="#60257E" d="M488.4,727.5L488.4,727.5l-1.3,0c-4.7,0-11.2-4.2-11.2-11.2c0-7.7,4.5-12.8,11.2-12.8
						c7.9,0,12.8,5.8,12.8,11.2c0,5-1.4,8.6-4.3,10.7C493.2,727.3,490.3,727.5,488.4,727.5z M487.1,710.6c-3.5,0-4,3.6-4,5.7
						c0,2.8,3.2,4,4,4l1.3,0l0,0c1,0,2.2-0.1,2.9-0.6c0.9-0.7,1.5-2.5,1.5-5.1C492.8,713.3,491.1,710.6,487.1,710.6z"/>
					<path fill="#60257E" d="M498.4,682.9L498.4,682.9l-1.3,0c-4.7,0-11.2-4.2-11.2-11.2c0-7.7,4.5-12.8,11.2-12.8
						c7.9,0,12.8,5.8,12.8,11.2c0,5-1.4,8.6-4.2,10.7C503.2,682.7,500.3,682.9,498.4,682.9z M497.1,666c-3.5,0-4,3.6-4,5.7
						c0,2.8,3.2,4,4,4l1.3,0l0,0c1,0,2.2-0.1,2.9-0.7c0.9-0.7,1.5-2.5,1.5-5C502.8,668.7,501.1,666,497.1,666z"/>
					<path fill="#60257E" d="M474,627.4l2.4-1.8l-4.3-5.7l-2.6,2C472.1,623.1,473.7,625.3,474,627.4z"/>
					<path fill="#60257E" d="M466.2,641.2L466.2,641.2l-1.3,0c-4.7,0-11.2-4.2-11.2-11.2c0-7.7,4.5-12.8,11.2-12.8
						c7.9,0,12.8,5.8,12.8,11.2c0,5-1.4,8.6-4.3,10.7C471,641,468.1,641.2,466.2,641.2z M464.9,624.3c-3.5,0-4,3.6-4,5.7
						c0,2.8,3.2,4,4,4l1.3,0l0,0c1,0,2.2-0.1,2.9-0.7c0.9-0.7,1.5-2.5,1.5-5C470.5,627,468.8,624.3,464.9,624.3z"/>
					<path fill="#60257E" d="M521.8,584.7c0-0.7,0.1-1.4,0.2-2.1l-6.8,5.1l4.3,5.7l4.7-3.5C522.8,588.7,521.8,586.9,521.8,584.7z"/>
					<path fill="#60257E" d="M530.7,595.8L530.7,595.8l-1.3,0c-4.7,0-11.2-4.2-11.2-11.2c0-7.7,4.5-12.8,11.2-12.8
						c7.9,0,12.8,5.8,12.8,11.2c0,5-1.4,8.6-4.3,10.7C535.5,595.6,532.6,595.8,530.7,595.8z M529.4,579c-3.5,0-4,3.6-4,5.7
						c0,2.8,3.2,4,4,4l1.3,0l0,0c1,0,2.2-0.1,2.9-0.7c0.9-0.7,1.5-2.5,1.5-5C535.1,581.6,533.4,579,529.4,579z"/>
					<path fill="#60257E" d="M487.1,707.1c2.4,0,4.3,0.7,5.8,1.7l5.9-29.5c-0.7,0-1.3,0-1.7,0c-1.4,0-3.5-0.7-5.1-2.2l-6,30.1
						C486.3,707.1,486.7,707.1,487.1,707.1z"/>
					<path fill="#60257E" d="M531,720.7l-3.8-6.8l-6.2,3.5l4,7.2C526.1,722.4,528.1,720.9,531,720.7z"/>
					<path fill="#60257E" d="M524.1,731.4c-0.1-0.5-0.2-1-0.2-1.5c0-2.2,0.5-4.1,1.3-5.7l-28.9-9.8c0,0.1,0,0.1,0,0.2
						c0,3.3-0.7,5.4-1.8,6.8L524.1,731.4z"/>
					<path fill="#60257E" d="M540.7,728.3c0,0.2,0,0.4,0,0.7l3.2-1.7l-3.4-6.3l-3.1,1.7C539.6,724.1,540.7,726.3,540.7,728.3z"/>
					<path fill="#60257E" d="M609.5,684.2l-20.4,41.9c2.9,0.3,5,1.5,6.4,3.1l19.7-40.5C613.2,688.3,610.6,686.7,609.5,684.2z"/>
					<path fill="#60257E" d="M531.9,589.7l-7,1.4l5.4,27.4c2.9,0.1,5.5,0.8,7.6,1.7L531.9,589.7z"/>
					<path fill="#60257E" d="M503.9,664.9c1.6,1.5,2.5,3.4,2.5,5.1c0,0.6,0,1.1-0.1,1.7l14.7-6.7c-1.5-1.8-2.9-3.8-4.3-5.9
						L503.9,664.9z"/>
					<path fill="#60257E" d="M509.3,637.1l-35.4-6.4c-0.6,4.6-3,6.1-5.3,6.7l21.8,29.5c1-2.4,2.9-4,5.8-4.3l-17.5-23.8l31.3,5.6
						c-0.5-2.1-0.8-4.2-0.8-6.3C509.3,637.8,509.3,637.4,509.3,637.1z"/>
					<path fill="#60257E" d="M529.8,720.8c0.5-0.1,1.1-0.2,1.6-0.2c2.2,0,4,0.6,5.4,1.5l4.6-39.7c-1.6-0.2-3.5-1.1-6.8-3.6
						L529.8,720.8z"/>
					<path fill="#60257E" d="M581.7,729.8c1.2-2.2,3.2-3.7,6.1-3.7l-32.9-51c-1.8,1.6-3.7,3.3-5.6,4.6L581.7,729.8z"/>
					<polygon fill="#60257E" points="543,669.7 543,669 542.7,669.2 					"/>
					<path fill="#60257E" d="M603.8,602.7c-2,2.4-5,2.3-6.8,2.3l15.2,65.2l-40.4-17.4c-1,2.2-2.2,4.3-3.5,6.3l41.3,17.8
						c1.1-2.8,3.3-4.8,6.8-4.8c1.4,0,2.6,0.3,3.7,0.6L603.8,602.7z"/>
					<path fill="#60257E" d="M572.3,627.4l22-22.8c-2-0.7-4.3-2.4-5.1-5l-21.9,22.7C569.3,623.6,571,625.4,572.3,627.4z"/>
				</g>
				<path fill="#2FA6DD" d="M555.8,624.7c-11.2,0-13.4,9.8-13.4,9.8s-1.8-9.8-13.4-9.8c-7.4,0-13.4,6-13.4,13.4
					c0,17.5,24.5,38.1,26.9,38.1c3.3,0,26.9-20.8,26.9-38.1C569.2,630.7,563.2,624.7,555.8,624.7z"/>
			</g>
		</g>
		<g>
			<path fill="#2FA6DD" d="M490.2,774.3c0,4.7-3.3,7.9-8.2,7.9c-4.9,0-8.2-3.2-8.2-7.9c0-4.7,3.3-7.9,8.2-7.9
				C486.9,766.3,490.2,769.5,490.2,774.3z M477.3,774.3c0,3,2,5.1,4.8,5.1c2.8,0,4.8-2.1,4.8-5.1c0-3-2-5.1-4.8-5.1
				C479.2,769.3,477.3,771.3,477.3,774.3z"/>
			<path fill="#2FA6DD" d="M510.2,774.3c0,4.7-2.9,7.9-7.4,7.9c-2.5,0-4.4-1-5.5-2.8v8.4h-3.4v-21.4h3.4v2.7c1.1-1.8,3-2.8,5.5-2.8
				C507.2,766.3,510.2,769.6,510.2,774.3z M506.8,774.2c0-2.9-2-5.1-4.8-5.1c-2.8,0-4.8,2.1-4.8,5.1c0,3,2,5.1,4.8,5.1
				C504.8,779.3,506.8,777.2,506.8,774.2z"/>
			<path fill="#2FA6DD" d="M527.5,775.6h-11.8c0.5,2.4,2.4,3.9,4.9,3.9c1.7,0,3.3-0.6,4.4-1.8l1.8,1.9c-1.5,1.7-3.8,2.6-6.5,2.6
				c-4.8,0-8-3.2-8-7.9c0-4.7,3.3-7.9,7.9-8C525.7,766.3,527.9,769.9,527.5,775.6z M524.6,773.1c-0.1-2.5-1.8-4.1-4.4-4.1
				c-2.5,0-4.2,1.6-4.6,4.1H524.6z"/>
			<path fill="#2FA6DD" d="M546,772.4v9.7h-3.4v-8.8c0-2.4-1.4-3.8-3.8-3.8c-2.6,0-4.2,1.8-4.4,4.3v8.3H531v-15.7h3.4v3
				c1.1-2.2,3.1-3.1,5.8-3.1C543.9,766.3,546,768.6,546,772.4z"/>
			<path fill="#60257E" d="M563.4,768.9l-1.9,2.2c-1.1-1.1-2.6-1.8-4.5-1.8c-2.7,0-4.7,2-4.7,5c0,3,1.9,5,4.7,5c2,0,3.6-0.6,4.6-1.9
				l1.9,1.9c-1.4,1.9-3.7,2.9-6.7,2.9c-4.7,0-7.9-3.2-7.9-7.9c0-4.7,3.2-8,7.9-8C559.8,766.3,562,767.3,563.4,768.9z"/>
			<path fill="#60257E" d="M575.9,780.2c-1.1,1.4-2.9,2.1-5.2,2.1c-3.4,0-5.5-2.1-5.5-4.9c0-2.9,2.1-4.7,5.9-4.7h4.7v-0.5
				c0-2-1.3-3.1-3.7-3.1c-1.5,0-3.1,0.5-4.6,1.6l-1.4-2.4c2.2-1.3,3.8-2,6.7-2c4,0,6.3,2.1,6.3,5.5l0,10.3h-3.3V780.2z M575.9,776.6
				v-1.4h-4.2c-2.2,0-3.2,0.6-3.2,2.1c0,1.4,1.1,2.3,3,2.3C573.8,779.6,575.7,778.3,575.9,776.6z"/>
			<path fill="#60257E" d="M587.1,769.6c1.1-2.1,2.9-3.2,5.4-3.2v3.2c-3.1-0.2-5.2,1.7-5.4,4.4v8.2h-3.4v-15.7h3.4V769.6z"/>
			<path fill="#60257E" d="M609.1,775.6h-11.8c0.5,2.4,2.4,3.9,4.9,3.9c1.7,0,3.3-0.6,4.4-1.8l1.8,1.9c-1.5,1.7-3.8,2.6-6.5,2.6
				c-4.8,0-8-3.2-8-7.9c0-4.7,3.3-7.9,7.9-8C607.3,766.3,609.5,769.9,609.1,775.6z M606.2,773.1c-0.1-2.5-1.8-4.1-4.4-4.1
				c-2.5,0-4.2,1.6-4.6,4.1H606.2z"/>
		</g>
	</g>
	<circle fill="#5F267F" cx="810.2" cy="377.4" r="70.6"/>
	<circle fill="#5F267F" cx="541.5" cy="285.8" r="91.1"/>
	<circle fill="#5F267F" cx="114.2" cy="285.8" r="52.8"/>
	<circle fill="#5F267F" cx="317.1" cy="149.8" r="63.1"/>
	<circle fill="#5F267F" cx="274" cy="377.4" r="70.6"/>
	<circle fill="#5F267F" cx="991.1" cy="285.8" r="52.8"/>
	<path fill="#5F267F" d="M704,149.8c0,34.8,28.2,63.1,63.1,63.1s63.1-28.2,63.1-63.1c0-34.8-28.2-63.1-63.1-63.1S704,115,704,149.8z
		"/>
	<path fill="#E3E6F0" d="M355.8,999.3L323,966.4c3.2-8.3,1.4-18-5.4-24.9c-7.2-7.2-18-8.7-26.7-4.7l15.5,15.5l-10.8,10.8l-15.9-15.5
		c-4.3,8.7-2.5,19.5,4.7,26.7c6.9,6.9,16.6,8.7,24.9,5.4l32.8,32.8c1.4,1.4,3.6,1.4,5,0l8.3-8.3
		C357.3,1002.9,357.3,1000.3,355.8,999.3z"/>
	<path fill="#E3E6F0" d="M312.2,1199.3h-5.8v-15.6c0-4.3-3.5-7.8-7.8-7.8H283v-5.8c0-5.4-4.4-9.7-9.7-9.7c-5.4,0-9.7,4.4-9.7,9.7
		v5.8H248c-4.3,0-7.7,3.5-7.7,7.8v14.8h5.8c5.8,0,10.5,4.7,10.5,10.5s-4.7,10.5-10.5,10.5h-5.8v14.8c0,4.3,3.5,7.8,7.8,7.8h14.8
		v-5.8c0-5.8,4.7-10.5,10.5-10.5c5.8,0,10.5,4.7,10.5,10.5v5.8h14.8c4.3,0,7.8-3.5,7.8-7.8v-15.6h5.8c5.4,0,9.7-4.4,9.7-9.7
		C321.9,1203.6,317.5,1199.3,312.2,1199.3z"/>
	<path fill="#E3E6F0" d="M848.2,1177.2h-8.4v38h-54.9v8.4c0,2.3,1.9,4.2,4.2,4.2h46.4l16.9,16.9v-63.3
		C852.4,1179.1,850.5,1177.2,848.2,1177.2z M831.3,1202.6v-38c0-2.3-1.9-4.2-4.2-4.2h-54.9c-2.3,0-4.2,1.9-4.2,4.2v59.1l16.9-16.9
		h42.2C829.4,1206.8,831.3,1204.9,831.3,1202.6z"/>
	<path fill="#E3E6F0" d="M987.3,1071.5v77.2c-19.6-1.9-34.7-18.5-34.7-38.6S967.7,1073.5,987.3,1071.5z M995.1,1071.5v34.7h34.6
		C1027.9,1087.9,1013.3,1073.3,995.1,1071.5z M995.1,1114v34.7c18.3-1.8,32.8-16.4,34.6-34.7H995.1z"/>
	<path fill="#E3E6F0" d="M114.2,1076.7c-12.9,0-23.4,10.5-23.4,23.4c0,17.5,23.4,43.5,23.4,43.5s23.4-25.9,23.4-43.5
		C137.6,1087.2,127.2,1076.7,114.2,1076.7z M114.2,1108.5c-4.6,0-8.4-3.7-8.4-8.4s3.7-8.4,8.4-8.4c4.6,0,8.4,3.7,8.4,8.4
		S118.8,1108.5,114.2,1108.5z"/>
	<path fill="#E3E6F0" d="M784.3,991.1c-3.1,0-5.9,1.2-8.1,3.2l-29.3-17.1c0.2-0.9,0.4-1.9,0.4-2.9c0-1-0.2-1.9-0.4-2.9l29-16.9
		c2.2,2.1,5.1,3.3,8.4,3.3c6.8,0,12.3-5.5,12.3-12.3s-5.5-12.3-12.3-12.3c-6.8,0-12.3,5.5-12.3,12.3c0,1,0.2,1.9,0.4,2.9l-29,16.9
		c-2.2-2.1-5.1-3.3-8.4-3.3c-6.8,0-12.3,5.5-12.3,12.3c0,6.8,5.5,12.3,12.3,12.3c3.2,0,6.2-1.3,8.4-3.3l29.3,17.1
		c-0.2,0.9-0.3,1.8-0.3,2.7c0,6.6,5.4,12,12,12c6.6,0,12-5.4,12-12C796.3,996.5,790.9,991.1,784.3,991.1z"/>
	<path fill="#E3E6F0" d="M526.4,1062.8l27.8-48.1c-4.1-0.9-8.3-1.4-12.6-1.4c-14,0-26.8,5-36.8,13.1l21.3,37L526.4,1062.8z
		 M597,1054.1c-5.4-17-18.3-30.6-34.9-36.9l-21.3,36.9H597z M598.5,1059.9h-43.6l1.7,2.9l27.7,48c9.6-10.4,15.4-24.1,15.4-39.3
		C599.7,1067.5,599.3,1063.7,598.5,1059.9z M521.3,1071.5l-22.7-39.3c-9.5,10.4-15.4,24.1-15.4,39.3c0,4,0.4,7.9,1.2,11.6H528
		L521.3,1071.5z M486,1089c5.4,17,18.3,30.6,34.9,36.9l21.3-36.9H486z M551.6,1089l-22.7,39.4c4.1,0.9,8.3,1.4,12.6,1.4
		c14,0,26.8-5,36.8-13.1l-21.3-37L551.6,1089z"/>
	<g>
		<path fill="#5F267F" d="M515.4,180.2h-5.6v-9.9l-8.7-15.2h6.1l5.4,9.4l5.4-9.4h6.1l-8.7,15.2V180.2z"/>
		<path fill="#5F267F" d="M547.1,176.7c-2.5,2.5-5.7,3.7-9.4,3.7c-3.7,0-6.9-1.2-9.4-3.7c-2.5-2.5-3.8-5.6-3.8-9.3
			c0-3.7,1.3-6.8,3.8-9.3c2.5-2.5,5.7-3.7,9.4-3.7c3.7,0,6.9,1.2,9.4,3.7c2.5,2.5,3.8,5.6,3.8,9.3
			C550.9,171.1,549.6,174.2,547.1,176.7z M545.2,167.4c0-2.2-0.7-4.2-2.2-5.7c-1.4-1.6-3.2-2.4-5.3-2.4c-2.1,0-3.9,0.8-5.3,2.4
			s-2.2,3.5-2.2,5.7s0.7,4.2,2.2,5.7c1.4,1.6,3.2,2.4,5.3,2.4c2.1,0,3.9-0.8,5.3-2.4C544.4,171.6,545.2,169.7,545.2,167.4z"/>
		<path fill="#5F267F" d="M562.3,173.7c0.9,1.2,2.2,1.7,3.8,1.7s2.8-0.6,3.8-1.7s1.4-2.8,1.4-4.8V155h5.6v14.1c0,3.6-1,6.5-3,8.4
			c-2,2-4.6,2.9-7.7,2.9c-3.1,0-5.7-1-7.8-3c-2-2-3-4.8-3-8.4V155h5.6v13.9C560.9,170.9,561.4,172.5,562.3,173.7z"/>
	</g>
	<g>
		<path fill="#5F267F" d="M494.9,1223.8h5.7v8.9c-2.5,2.8-6,4.2-10.4,4.2c-3.7,0-6.8-1.2-9.3-3.7c-2.5-2.4-3.8-5.5-3.8-9.3
			c0-3.7,1.3-6.8,3.8-9.3c2.6-2.5,5.6-3.7,9.3-3.7c3.6,0,6.8,1.2,9.4,3.6l-2.9,4.2c-1.1-1-2.2-1.7-3.1-2c-0.9-0.4-2-0.6-3.1-0.6
			c-2.1,0-3.9,0.7-5.4,2.2c-1.5,1.5-2.2,3.4-2.2,5.7s0.7,4.3,2.1,5.7c1.4,1.4,3.1,2.1,5,2.1s3.6-0.4,4.9-1.1V1223.8z"/>
		<path fill="#5F267F" d="M526.7,1233.1c-2.5,2.5-5.7,3.7-9.4,3.7c-3.7,0-6.9-1.2-9.4-3.7c-2.5-2.5-3.8-5.6-3.8-9.3
			c0-3.7,1.3-6.8,3.8-9.3c2.5-2.5,5.7-3.7,9.4-3.7c3.7,0,6.9,1.2,9.4,3.7c2.5,2.5,3.8,5.6,3.8,9.3
			C530.5,1227.5,529.2,1230.6,526.7,1233.1z M524.8,1223.8c0-2.2-0.7-4.2-2.2-5.7c-1.4-1.6-3.2-2.4-5.3-2.4c-2.1,0-3.9,0.8-5.3,2.4
			c-1.4,1.6-2.2,3.5-2.2,5.7s0.7,4.2,2.2,5.7c1.4,1.6,3.2,2.4,5.3,2.4c2.1,0,3.9-0.8,5.3-2.4C524.1,1228,524.8,1226.1,524.8,1223.8z
			"/>
		<path fill="#5F267F" d="M552.4,1236.6l-2.3-5.4h-10.5l-2.3,5.4h-6l10.9-25.2h5.4l10.9,25.2H552.4z M544.8,1218.9l-3.2,7.3h6.3
			L544.8,1218.9z"/>
		<path fill="#5F267F" d="M561.3,1236.6v-25.2h5.6v20.2h10.7v5H561.3z"/>
		<path fill="#5F267F" d="M587.7,1216.4c-0.5,0.4-0.8,1-0.8,1.8c0,0.7,0.3,1.3,1,1.7c0.7,0.4,2.2,0.9,4.6,1.5s4.2,1.5,5.6,2.6
			c1.3,1.2,2,2.9,2,5.1s-0.8,4.1-2.5,5.5c-1.7,1.4-3.9,2.1-6.7,2.1c-4,0-7.6-1.5-10.8-4.4l3.3-4.1c2.7,2.4,5.2,3.6,7.5,3.6
			c1,0,1.8-0.2,2.4-0.7s0.9-1,0.9-1.8c0-0.8-0.3-1.4-0.9-1.8c-0.6-0.4-1.9-0.9-3.7-1.3c-2.9-0.7-5.1-1.6-6.4-2.7
			c-1.4-1.1-2-2.9-2-5.3c0-2.4,0.9-4.2,2.6-5.5c1.7-1.3,3.9-1.9,6.4-1.9c1.7,0,3.4,0.3,5,0.9c1.7,0.6,3.1,1.4,4.4,2.4l-2.8,4.1
			c-2.2-1.7-4.4-2.5-6.8-2.5C588.9,1215.8,588.2,1216,587.7,1216.4z"/>
	</g>
	<path fill="#E3E7F0" d="M541.5,285.8c15.3,0,27.6-12.4,27.6-27.6c0-15.2-12.3-27.6-27.6-27.6c-15.3,0-27.6,12.4-27.6,27.6
		C513.9,273.4,526.2,285.8,541.5,285.8z M541.5,299.6c-18.4,0-55.2,9.2-55.2,27.6V341h110.4v-13.8
		C596.7,308.8,559.9,299.6,541.5,299.6z"/>
	<path fill="#E3E7F0" d="M317.1,144.9c-2.7,0-4.9,2.2-4.9,4.9c0,2.7,2.2,4.9,4.9,4.9c2.7,0,4.9-2.2,4.9-4.9
		C322.1,147.1,319.9,144.9,317.1,144.9z M317.1,105c-24.8,0-44.9,20.1-44.9,44.9c0,24.8,20.1,44.9,44.9,44.9
		c24.8,0,44.9-20.1,44.9-44.9C362,125.1,341.9,105,317.1,105z M326.9,159.7l-36.7,17.1l17.1-36.8l36.7-17.1L326.9,159.7z"/>
	<path fill="#E3E7F0" d="M139.2,290.9c0.1-1.1,0.2-2.2,0.2-3.3c0-1.1-0.1-2.2-0.2-3.3l7.1-5.6c0.6-0.5,0.8-1.4,0.4-2.2L140,265
		c-0.4-0.7-1.3-1-2.1-0.7l-8.4,3.4c-1.8-1.3-3.6-2.5-5.7-3.3l-1.3-8.9c-0.1-0.8-0.8-1.4-1.6-1.4h-13.5c-0.8,0-1.6,0.6-1.6,1.4
		l-1.3,8.9c-2,0.8-3.9,2-5.7,3.3l-8.4-3.4c-0.8-0.3-1.6,0-2.1,0.7l-6.7,11.6c-0.4,0.7-0.2,1.7,0.4,2.2l7.1,5.6
		c-0.1,1.1-0.2,2.2-0.2,3.3c0,1.1,0.1,2.2,0.2,3.3l-7.1,5.6c-0.6,0.5-0.8,1.4-0.4,2.2l6.7,11.6c0.4,0.7,1.3,1,2.1,0.7l8.4-3.4
		c1.8,1.3,3.6,2.5,5.7,3.3l1.3,8.9c0.1,0.8,0.8,1.4,1.6,1.4H121c0.8,0,1.6-0.6,1.6-1.4l1.3-8.9c2.1-0.8,3.9-2,5.7-3.3l8.4,3.4
		c0.8,0.3,1.6,0,2.1-0.7l6.7-11.6c0.4-0.7,0.2-1.7-0.4-2.2L139.2,290.9z M114.2,299.4c-6.5,0-11.8-5.3-11.8-11.8
		c0-6.5,5.3-11.8,11.8-11.8c6.5,0,11.8,5.3,11.8,11.8C126,294.1,120.7,299.4,114.2,299.4z"/>
	<path fill="#E3E7F0" d="M1020.1,268.3h-57.9c-3.5,0-6.4,2.9-6.4,6.4v25.7c0,3.5,2.9,6.4,6.4,6.4h57.9c3.5,0,6.4-2.9,6.4-6.4v-25.7
		C1026.5,271.2,1023.6,268.3,1020.1,268.3z M987.9,290.8h-9.7v9.7h-6.4v-9.7h-9.7v-6.4h9.7v-9.7h6.4v9.7h9.7V290.8z M1002.4,297.3
		c-2.7,0-4.8-2.2-4.8-4.8c0-2.7,2.2-4.8,4.8-4.8c2.7,0,4.8,2.2,4.8,4.8C1007.2,295.1,1005,297.3,1002.4,297.3z M1015.2,287.6
		c-2.7,0-4.8-2.2-4.8-4.8c0-2.7,2.2-4.8,4.8-4.8c2.7,0,4.8,2.2,4.8,4.8C1020.1,285.5,1017.9,287.6,1015.2,287.6z"/>
	<path fill="#E3E7F0" d="M837.5,332.1h-54.7c-5,0-9.1,4.1-9.1,9.1v72.9c0,5,4.1,9.1,9.1,9.1h54.7c5,0,9.1-4.1,9.1-9.1v-72.9
		C846.6,336.2,842.5,332.1,837.5,332.1z M782.8,341.3h22.8v36.5l-11.4-6.8l-11.4,6.8V341.3z"/>
	<g>
		<g>
			<path fill="#9775B0" d="M426.6,669.2c-48.9,0-97.8,0-146.8,0c-20.4,0-40.8,0-61.1,0c0.8,0.8,1.7,1.7,2.5,2.5
				c0-49.3,0-98.6,0-147.9c0-4.3,0-8.6,0-12.8c-0.8,0.8-1.7,1.7-2.5,2.5c0,0,0,0,0,0c3.2,0,3.2-5,0-5c-34.8,0-69.7,0-104.5,0
				c0.8,0.8,1.7,1.7,2.5,2.5c0-49.8,0-99.7,0-149.5c0-7.6,0-15.2,0-22.7c0-3.2-5-3.2-5,0c0,49.8,0,99.7,0,149.5c0,7.6,0,15.2,0,22.7
				c0,1.4,1.1,2.5,2.5,2.5c34.8,0,69.7,0,104.5,0c3.2,0,3.2-5,0-5c0,0,0,0,0,0c-1.4,0-2.5,1.1-2.5,2.5c0,49.3,0,98.6,0,147.9
				c0,4.3,0,8.6,0,12.8c0,1.4,1.1,2.5,2.5,2.5c48.9,0,97.8,0,146.8,0c20.4,0,40.8,0,61.1,0C429.8,674.2,429.8,669.2,426.6,669.2
				L426.6,669.2z"/>
		</g>
	</g>
	<g>
		<g>
			<path fill="#9775B0" d="M646.8,674.2c46.6,0,93.2,0,139.7,0c33.3,0,66.6,0,99.9,0c1.4,0,2.5-1.1,2.5-2.5c0-49.3,0-98.6,0-147.9
				c0-4.3,0-8.6,0-12.8c-0.8,0.8-1.7,1.7-2.5,2.5c34.9,0,69.7,0,104.6,0c1.4,0,2.5-1.1,2.5-2.5c0-49.8,0-99.7,0-149.5
				c0-7.6,0-15.2,0-22.7c0-3.2-5-3.2-5,0c0,49.8,0,99.7,0,149.5c0,7.6,0,15.2,0,22.7c0.8-0.8,1.7-1.7,2.5-2.5
				c-34.9,0-69.7,0-104.6,0c-1.4,0-2.5,1.1-2.5,2.5c0,49.3,0,98.6,0,147.9c0,4.3,0,8.6,0,12.8c0.8-0.8,1.7-1.7,2.5-2.5
				c-46.6,0-93.2,0-139.7,0c-33.3,0-66.6,0-99.9,0C643.6,669.2,643.6,674.2,646.8,674.2L646.8,674.2z"/>
		</g>
	</g>
	<g>
		<g>
			<path fill="#9775B0" d="M426.6,603.8c-30.5,0-60.9,0-91.4,0c0.8,0.8,1.7,1.7,2.5,2.5c0-44.4,0-88.7,0-133.1
				c0-1.4-1.1-2.5-2.5-2.5c-20.4,0-40.8,0-61.2,0c0.8,0.8,1.7,1.7,2.5,2.5c0-8.4,0-16.8,0-25.2c0-3.2-5-3.2-5,0c0,8.4,0,16.8,0,25.2
				c0,1.4,1.1,2.5,2.5,2.5c20.4,0,40.8,0,61.2,0c-0.8-0.8-1.7-1.7-2.5-2.5c0,44.4,0,88.7,0,133.1c0,1.4,1.1,2.5,2.5,2.5
				c30.5,0,60.9,0,91.4,0C429.8,608.8,429.8,603.8,426.6,603.8L426.6,603.8z"/>
		</g>
	</g>
	<g>
		<g>
			<path fill="#9775B0" d="M646.8,608.8c32.4,0,64.8,0,97.1,0c1.4,0,2.5-1.1,2.5-2.5c0-44.4,0-88.7,0-133.1
				c-0.8,0.8-1.7,1.7-2.5,2.5c22.1,0,44.2,0,66.2,0c1.4,0,2.5-1.1,2.5-2.5c0-8.4,0-16.8,0-25.2c0-3.2-5-3.2-5,0c0,8.4,0,16.8,0,25.2
				c0.8-0.8,1.7-1.7,2.5-2.5c-22.1,0-44.2,0-66.2,0c-1.4,0-2.5,1.1-2.5,2.5c0,44.4,0,88.7,0,133.1c0.8-0.8,1.7-1.7,2.5-2.5
				c-32.4,0-64.8,0-97.1,0C643.6,603.8,643.6,608.8,646.8,608.8L646.8,608.8z"/>
		</g>
	</g>
	<path fill="#E3E7F0" d="M274,401.5l26.4,15.9l-7-30l23.3-20.2l-30.7-2.6l-12-28.3l-12,28.3l-30.7,2.6l23.3,20.2l-7,30L274,401.5z"
		/>
	<path fill="#E3E7F0" d="M747.8,103.6v50.9h13.9v41.6l32.4-55.5h-18.5l18.5-37H747.8z"/>
	<g>
		<path fill-rule="evenodd" clip-rule="evenodd" fill="#E3E6F0" d="M528.3,1344.2c0.1,5.3,2.6,9.1,6.9,11.7c1,0.6,1.1,1.2,0.7,2.2
			c-2.6,6.1-5.1,12.3-7.6,18.5c-0.4,1-0.9,1.3-1.9,0.7c-0.1,0-0.2-0.1-0.2-0.1c-2.4-2-4.6-1.7-6.9,0.4c-1.7,1.5-3.7,2.6-5.6,3.9
			c-0.7,0.5-1.3,0.6-2-0.1c-2.5-2.5-5-5-7.5-7.5c-0.7-0.7-0.7-1.2-0.1-2c1.8-2.6,3.5-5.2,5.4-7.8c0.7-1,0.8-1.8,0.3-2.9
			c-1-2.3-1.9-4.6-2.8-7c-0.4-1-1-1.5-2-1.6c-3.1-0.5-6.3-1.2-9.4-1.7c-1.1-0.2-1.5-0.7-1.5-1.8c0.1-3.4,0.1-6.7,0-10.1
			c0-1.1,0.4-1.6,1.5-1.7c3.3-0.6,6.6-1.2,9.9-1.8c0.9-0.2,1.4-0.5,1.8-1.4c0.9-2.3,1.9-4.7,3-6.9c0.4-0.9,0.3-1.6-0.3-2.4
			c-1.9-2.7-3.8-5.5-5.7-8.3c-0.6-0.9-0.7-1.5,0.2-2.3c2.5-2.4,4.8-4.8,7.2-7.2c0.7-0.7,1.3-0.9,2.1-0.2c2.8,2,5.7,3.9,8.6,5.9
			c0.8,0.6,1.5,0.7,2.4,0.3c2.1-0.9,4.3-1.8,6.5-2.7c0.9-0.4,1.4-0.9,1.5-1.9c0.6-3.4,1.3-6.8,1.9-10.1c0.2-1.1,0.6-1.6,1.8-1.5
			c3.4,0.1,6.8,0,10.2,0c1,0,1.4,0.4,1.6,1.3c0.6,3.4,1.3,6.8,1.9,10.3c0.2,1,0.6,1.6,1.6,2c2.2,0.8,4.4,1.7,6.5,2.7
			c0.9,0.4,1.5,0.3,2.3-0.2c2.8-2,5.8-3.9,8.6-5.9c0.9-0.6,1.5-0.6,2.2,0.2c2.4,2.4,4.8,4.8,7.2,7.2c0.8,0.7,0.8,1.3,0.2,2.2
			c-2,2.8-3.8,5.6-5.8,8.4c-0.6,0.8-0.7,1.5-0.2,2.4c1,2.3,2,4.5,2.9,6.8c0.4,0.9,1,1.3,1.9,1.5c3.3,0.6,6.6,1.2,9.9,1.8
			c1,0.2,1.3,0.6,1.3,1.6c0,3.4,0,6.9,0,10.3c0,1.1-0.4,1.5-1.4,1.7c-3.1,0.5-6.3,1.2-9.4,1.7c-1.1,0.2-1.7,0.6-2.1,1.7
			c-0.9,2.5-1.9,4.9-2.9,7.4c-0.3,0.8-0.2,1.5,0.3,2.2c1.9,2.7,3.7,5.4,5.6,8.1c0.5,0.8,0.5,1.3-0.1,2c-2.5,2.5-5,5-7.5,7.5
			c-0.7,0.7-1.3,0.6-2,0.1c-2.6-1.8-5.3-3.6-7.9-5.4c-0.8-0.6-1.5-0.6-2.3-0.1c-0.9,0.6-1.9,1-2.8,1.5c-0.9,0.5-1.2,0.1-1.6-0.7
			c-1.7-4.3-3.5-8.5-5.3-12.8c-0.8-2-1.6-4-2.5-5.9c-0.4-0.9-0.3-1.5,0.6-2.1c4.1-2.6,6.7-6.1,7-11.1c0.3-5.3-2.7-10.3-7.7-12.7
			c-4.8-2.3-10.7-1.3-14.5,2.3C529.7,1337.2,528.3,1340.5,528.3,1344.2z"/>
	</g>
</g>
<g id="Scritte">
	<g>
		<path fill="#3D3D3C" d="M48.9,259.7l7.4,2.8l-0.8,2.1l-7.4-2.8l-1.1,2.8l-1.8-0.7l2.9-7.6l1.8,0.7L48.9,259.7z"/>
		<path fill="#3D3D3C" d="M50.2,252.6c0.6,0.3,0.9,1,0.6,1.6s-1,0.8-1.6,0.5c-0.6-0.3-0.9-1-0.6-1.6
			C48.9,252.5,49.6,252.3,50.2,252.6z M57.8,259l-6.7-3.4l1-1.9l6.7,3.4L57.8,259z"/>
		<path fill="#3D3D3C" d="M59.6,246.5l4,2.5l-1.2,1.8l-3.5-2.2c-0.8-0.5-1.6-0.4-2.1,0.4c-0.6,0.9-0.2,1.9,0.7,2.5l3.1,2l-1.2,1.8
			l-6.4-4l1.2-1.8l1.1,0.7c-0.5-1-0.4-1.9,0.2-2.9C56.6,245.9,58.1,245.5,59.6,246.5z"/>
		<path fill="#3D3D3C" d="M64.5,244.8l1.6,1.3l-1.4,1.6l-7.9-6.7l1.4-1.6l4.3,3.7l-0.4-3.9l1.6-1.9l0.4,4l5.4,0.8l-1.7,1.9l-3.5-0.6
			L64.5,244.8z"/>
		<path fill="#3D3D3C" d="M72.9,234.8l-4,3.6c0.8,0.5,1.7,0.5,2.5-0.2c0.5-0.5,0.8-1.1,0.9-1.9l1.6,0.1c0,1.1-0.5,2.2-1.5,3.2
			c-1.8,1.6-3.9,1.5-5.5-0.2c-1.6-1.7-1.4-3.9,0.3-5.5C69.1,232.2,71.1,232.7,72.9,234.8z M70.5,235.2c-0.7-0.7-1.6-0.8-2.3-0.1
			c-0.7,0.6-0.7,1.6-0.2,2.4L70.5,235.2z"/>
		<path fill="#3D3D3C" d="M74,230.2c-0.1-1.1,0.3-2,1.2-2.6l1.2,1.6c-1.3,0.8-1.6,2-0.9,3.1l2.1,2.9l-1.7,1.3l-4.4-6.1l1.7-1.3
			L74,230.2z"/>
		<path fill="#3D3D3C" d="M84.9,227.1l-4.7,2.7c0.7,0.7,1.6,0.8,2.4,0.3c0.6-0.4,1.1-0.9,1.3-1.6l1.6,0.4c-0.2,1.1-1,2.1-2.1,2.8
			c-2.1,1.2-4.2,0.6-5.3-1.4c-1.2-2-0.6-4.1,1.4-5.3C81.7,223.7,83.7,224.6,84.9,227.1z M82.5,227c-0.5-0.8-1.4-1.1-2.3-0.6
			c-0.8,0.5-1.1,1.4-0.7,2.3L82.5,227z"/>
		<path fill="#3D3D3C" d="M87,222.8c0.1-1.1,0.7-1.9,1.7-2.3l0.8,1.9c-1.5,0.5-2,1.6-1.5,2.8l1.5,3.3l-2,0.9l-3-6.9l2-0.9L87,222.8z
			"/>
	</g>
	<g>
		<path fill="#3D3D3C" d="M249.5,120.9l-7.6,2.1l5.9,2.3l-0.8,2l-9.1-3.6l0.7-1.9l7.6-2.1l-5.9-2.3l0.8-2l9.1,3.6L249.5,120.9z"/>
		<path fill="#3D3D3C" d="M251.6,109.8l-2.6,4.7c1,0.2,1.8-0.1,2.3-1c0.3-0.6,0.4-1.4,0.2-2.1l1.6-0.4c0.4,1.1,0.3,2.3-0.4,3.5
			c-1.2,2.1-3.2,2.7-5.2,1.6c-2-1.1-2.6-3.2-1.5-5.3C247.2,108.6,249.3,108.3,251.6,109.8z M249.5,111c-0.9-0.5-1.8-0.2-2.2,0.7
			c-0.5,0.8-0.2,1.7,0.6,2.3L249.5,111z"/>
		<path fill="#3D3D3C" d="M258.9,104.8l-5-1.7l3,4.3l-1.3,1.7l-7.7-2.3l1.3-1.8l5.3,1.9l-3.4-4.5l1.3-1.7l5.3,1.9l-3.4-4.5l1.3-1.7
			l4.4,6.7L258.9,104.8z"/>
		<path fill="#3D3D3C" d="M262.5,91.9l-0.3,1.8c-0.6-0.1-1.3,0.1-1.8,0.7c-0.7,0.8-0.7,1.9,0.2,2.7c0.9,0.8,2,0.9,2.7,0.1
			c0.5-0.6,0.7-1.2,0.6-1.9l1.8-0.4c0.3,1.2-0.1,2.5-1.1,3.6c-1.6,1.6-3.8,1.7-5.4,0.1c-1.7-1.6-1.7-3.8-0.1-5.5
			C260.1,92.1,261.3,91.7,262.5,91.9z"/>
		<path fill="#3D3D3C" d="M270.8,87.8c1.5,1.8,1.2,4-0.6,5.5c-1.9,1.5-4.1,1.4-5.6-0.4c-1.5-1.8-1.2-4,0.7-5.5
			C267.1,85.9,269.3,86.1,270.8,87.8z M266.2,91.6c0.8,0.9,1.9,1.1,2.8,0.4c0.8-0.7,0.9-1.8,0.1-2.8c-0.8-0.9-1.9-1.1-2.8-0.4
			C265.5,89.6,265.4,90.7,266.2,91.6z"/>
		<path fill="#3D3D3C" d="M282.4,79.4l2.4,4.1l-1.8,1.1l-2.1-3.5c-0.5-0.8-1.3-1-2-0.6c-0.9,0.5-1,1.6-0.4,2.5l1.9,3.2l-1.8,1.1
			l-2.1-3.5c-0.5-0.8-1.3-1-2-0.6c-0.9,0.6-1,1.6-0.5,2.5l1.9,3.2l-1.8,1.1l-3.9-6.5l1.8-1.1l0.7,1.1c0-1.1,0.5-1.9,1.5-2.5
			c1.1-0.7,2.2-0.6,3.1,0.2c-0.2-1.2,0.3-2.2,1.4-2.9C280,77.4,281.5,77.9,282.4,79.4z"/>
		<path fill="#3D3D3C" d="M291.5,77.5l-5,2.1c0.6,0.8,1.5,1,2.4,0.7c0.7-0.3,1.2-0.8,1.5-1.5l1.5,0.6c-0.4,1.1-1.2,1.9-2.5,2.5
			c-2.2,0.9-4.2,0.1-5.1-2c-0.9-2.2,0-4.2,2.1-5C288.8,73.7,290.6,74.9,291.5,77.5z M289.2,77c-0.4-0.9-1.2-1.3-2.2-0.9
			c-0.9,0.4-1.2,1.2-1,2.2L289.2,77z"/>
		<path fill="#3D3D3C" d="M294.1,73.5c0.2-1,0.9-1.8,2-2.1l0.6,1.9c-1.5,0.3-2.2,1.4-1.8,2.6l1.1,3.5l-2.1,0.6l-2.2-7.2l2.1-0.6
			L294.1,73.5z"/>
		<path fill="#3D3D3C" d="M303.2,70.6l-0.4,1.6c-0.9-0.3-1.8-0.4-2.4-0.2c-0.5,0.1-0.8,0.3-0.7,0.7c0.2,1.1,4-0.3,4.5,2.3
			c0.3,1.5-0.8,2.6-2.5,2.9c-1.2,0.3-2.4,0.1-3.4-0.3l0.4-1.6c0.9,0.4,1.9,0.5,2.8,0.4c0.5-0.1,0.9-0.4,0.8-0.8
			c-0.3-1.2-3.9,0.3-4.5-2.3c-0.3-1.5,0.8-2.6,2.4-2.9C301.2,70.2,302.3,70.3,303.2,70.6z"/>
	</g>
	<g>
		<path fill="#3D3D3C" d="M189.8,345c0.9-2.3,2.5-3.2,4.5-2.5c2.1,0.8,2.8,2.5,1.9,4.9l-0.8,2.1l2.8,1l-0.6,1.5l-9.2-3.4L189.8,345z
			 M194.1,349l0.8-2c0.5-1.4,0.2-2.4-1-2.9c-1.2-0.4-2.1,0.1-2.6,1.6l-0.8,2L194.1,349z"/>
		<path fill="#3D3D3C" d="M201.1,336.4l-2.5,5c1.1,0.3,2.2-0.2,2.7-1.2c0.4-0.7,0.4-1.5,0.2-2.3l1.2-0.4c0.4,1,0.3,2.2-0.2,3.3
			c-1,2.1-3.1,2.7-5.1,1.7c-2-1-2.7-3.1-1.7-5.1C196.8,335.2,198.8,335,201.1,336.4z M199.4,337.1c-1.1-0.5-2.1-0.1-2.7,1
			c-0.5,1.1-0.2,2.1,0.8,2.8L199.4,337.1z"/>
		<path fill="#3D3D3C" d="M205.3,328.6c1.9,1.2,2.3,3.4,1.1,5.3c-1.2,1.9-3.4,2.5-5.3,1.3c-1.9-1.2-2.3-3.4-1.1-5.3
			C201.3,327.9,203.4,327.4,205.3,328.6z M202,333.8c1.2,0.8,2.5,0.5,3.3-0.6c0.7-1.1,0.4-2.4-0.8-3.2c-1.2-0.8-2.5-0.5-3.3,0.6
			C200.5,331.7,200.8,333,202,333.8z"/>
		<path fill="#3D3D3C" d="M211.3,321c1.7,1.4,2,3.4,0.7,5.1c-0.7,0.9-1.7,1.3-2.7,1.2l3.1,2.5l-1,1.3l-7.9-6.4l1-1.3l1,0.8
			c-0.3-1-0.1-2,0.6-2.9C207.4,319.8,209.5,319.6,211.3,321z M210.2,322.3c-1.1-0.9-2.5-0.8-3.3,0.3c-0.8,1-0.6,2.4,0.5,3.3
			c1.1,0.9,2.5,0.8,3.3-0.2C211.5,324.5,211.4,323.2,210.2,322.3z"/>
		<path fill="#3D3D3C" d="M215.3,322.3l-7.5-7.2l1.1-1.2l7.5,7.2L215.3,322.3z"/>
		<path fill="#3D3D3C" d="M220.7,312.7l-4.2,3.8c1,0.7,2.1,0.6,3-0.2c0.6-0.5,0.9-1.3,1-2.1l1.2,0.1c0,1.1-0.5,2.1-1.4,3
			c-1.7,1.5-3.8,1.4-5.4-0.2c-1.5-1.7-1.4-3.8,0.2-5.3C217.1,310.1,219.1,310.6,220.7,312.7z M218.9,312.8c-0.9-0.9-1.9-0.9-2.8,0
			c-0.9,0.8-1,1.9-0.3,2.9L218.9,312.8z"/>
		<path fill="#3D3D3C" d="M232.6,308.2l-4.6-3.6l1.4,5.7l-1.4,0.9l-6.3-4.8l1.4-0.9l4.8,3.9l-1.6-5.9l1.4-0.9l4.7,3.9l-1.5-6
			l1.4-0.9l1.7,7.7L232.6,308.2z"/>
		<path fill="#3D3D3C" d="M234.4,296.3c0.3,0.5,0.1,1-0.4,1.3c-0.5,0.2-1,0.1-1.3-0.4c-0.3-0.5-0.1-1.1,0.4-1.3
			C233.6,295.6,234.1,295.8,234.4,296.3z M237.2,305.6l-3.4-6.6l1.4-0.7l3.4,6.6L237.2,305.6z"/>
		<path fill="#3D3D3C" d="M244.3,301.8c-0.4,0.6-0.9,1-1.5,1.2c-1,0.4-2.2,0.2-2.8-1.2l-1.5-3.5l-1,0.4l-0.5-1.1l1-0.4l-0.8-1.9
			l1.5-0.6l0.8,1.9l2-0.9l0.5,1.1l-2,0.9l1.4,3.3c0.3,0.7,0.7,0.8,1.1,0.6c0.3-0.1,0.6-0.4,0.9-0.7L244.3,301.8z"/>
		<path fill="#3D3D3C" d="M251,295.1l1.4,4.4L251,300l-1.3-4c-0.4-1.1-1.2-1.5-2.3-1.2c-1.3,0.4-1.7,1.6-1.3,2.9l1.1,3.5l-1.5,0.5
			l-3.2-9.9l1.5-0.5l1.4,4.2c0.2-1.2,0.9-1.9,2.1-2.3C249.2,292.7,250.5,293.4,251,295.1z"/>
		<path fill="#3D3D3C" d="M261.9,290.7l-0.5,1.6c-0.9-0.3-1.8-0.4-2.4-0.3c-0.5,0.1-0.8,0.3-0.8,0.7c0.2,1.1,4-0.1,4.5,2.5
			c0.3,1.5-0.9,2.6-2.6,2.8c-1.2,0.2-2.4,0.1-3.4-0.5l0.4-1.6c0.9,0.5,1.9,0.6,2.7,0.5c0.5-0.1,0.9-0.3,0.8-0.7
			c-0.2-1.2-3.9,0.1-4.4-2.5c-0.3-1.5,0.9-2.5,2.5-2.8C259.8,290.2,260.9,290.3,261.9,290.7z"/>
		<path fill="#3D3D3C" d="M272.1,292.9c0.2,2.3-1.1,3.9-3.2,4.1c-1,0.1-1.9-0.3-2.5-1l0.3,3.8l-2.2,0.2l-0.8-10.2l2.1-0.2l0.1,1.1
			c0.5-0.8,1.3-1.3,2.3-1.3C270.4,289.1,272,290.5,272.1,292.9z M269.9,293c-0.1-1.2-0.9-2-2-1.9c-1.1,0.1-1.8,1-1.7,2.2
			c0.1,1.2,0.9,2,2,1.9S270,294.2,269.9,293z"/>
		<path fill="#3D3D3C" d="M280.6,293.7l-5.4-0.2c0.2,1,0.9,1.5,1.9,1.6c0.7,0,1.4-0.2,1.9-0.7l1.1,1.2c-0.8,0.8-1.9,1.3-3.3,1.2
			c-2.4-0.1-3.9-1.7-3.8-3.9c0.1-2.3,1.7-3.8,4-3.7C279.7,289.2,280.9,291,280.6,293.7z M278.6,292.4c0-1-0.6-1.7-1.6-1.7
			c-1,0-1.6,0.6-1.8,1.6L278.6,292.4z"/>
		<path fill="#3D3D3C" d="M288.9,291.9l-1.6,0.9c-0.3-0.6-0.9-0.9-1.6-1c-1-0.1-1.9,0.6-2,1.8c-0.2,1.2,0.5,2.1,1.5,2.3
			c0.8,0.1,1.4-0.1,1.9-0.6l1.3,1.2c-0.8,1-2,1.4-3.5,1.2c-2.3-0.3-3.6-2-3.3-4.3c0.3-2.3,2-3.6,4.3-3.3
			C287.3,290.1,288.4,290.8,288.9,291.9z"/>
		<path fill="#3D3D3C" d="M289.3,298.1l1.5-7.4l2.1,0.4l-1.5,7.4L289.3,298.1z M293.5,289.1c-0.1,0.7-0.7,1.1-1.4,0.9
			s-1-0.7-0.9-1.4c0.1-0.7,0.7-1.1,1.4-0.9C293.2,287.8,293.6,288.4,293.5,289.1z"/>
		<path fill="#3D3D3C" d="M297.7,299.3c-0.7,0.5-1.5,0.6-2.5,0.3c-1.5-0.4-2.2-1.7-1.8-3c0.4-1.4,1.6-1.9,3.4-1.4l2,0.6l0-0.1
			c0.2-0.8-0.2-1.4-1.2-1.6c-0.6-0.2-1.5-0.2-2.3,0l-0.2-1.6c1.2-0.2,2.2-0.3,3.5,0.1c1.9,0.6,2.8,1.8,2.3,3.5l-1.3,4.7l-2-0.6
			L297.7,299.3z M298.2,297.7l0.2-0.6l-1.6-0.5c-0.8-0.2-1.3-0.1-1.4,0.5c-0.2,0.6,0.2,1,0.9,1.2
			C297.1,298.5,297.9,298.3,298.2,297.7z"/>
		<path fill="#3D3D3C" d="M301.1,301.4l3.6-9.7l2,0.8l-3.6,9.7L301.1,301.4z"/>
		<path fill="#3D3D3C" d="M316.9,303.4l-2.2,4.2l-1.9-1l1.9-3.6c0.4-0.8,0.2-1.6-0.6-2.1c-1-0.5-1.9-0.1-2.4,0.9l-1.7,3.3l-1.9-1
			l3.5-6.7l1.9,1l-0.6,1.2c0.9-0.6,1.9-0.6,3,0C317.3,300.4,317.7,301.9,316.9,303.4z"/>
		<path fill="#3D3D3C" d="M323.5,309.8l-4.5-3c-0.3,0.9,0,1.8,0.8,2.3c0.6,0.4,1.3,0.5,2,0.4l0.3,1.6c-1.1,0.3-2.3,0.1-3.4-0.7
			c-2-1.3-2.4-3.5-1.1-5.4c1.3-1.9,3.5-2.3,5.4-1C325.1,305.4,325.2,307.6,323.5,309.8z M322.5,307.6c0.5-0.8,0.4-1.7-0.5-2.3
			c-0.8-0.5-1.7-0.4-2.4,0.4L322.5,307.6z"/>
		<path fill="#3D3D3C" d="M330,315.1l-4.2-3.4c-0.4,0.9-0.2,1.8,0.5,2.4c0.6,0.5,1.2,0.7,2,0.6l0.1,1.6c-1.1,0.2-2.3-0.2-3.3-1
			c-1.9-1.5-2-3.7-0.6-5.5c1.5-1.8,3.7-2,5.5-0.5C332.1,311,331.9,313.1,330,315.1z M329.3,312.8c0.6-0.8,0.5-1.7-0.2-2.3
			c-0.7-0.6-1.6-0.5-2.4,0.1L329.3,312.8z"/>
		<path fill="#3D3D3C" d="M334.1,323.6l-1.5-1.5l0.8-0.8c-0.9,0.2-1.8-0.1-2.5-0.9c-1.5-1.5-1.4-3.6,0.3-5.3
			c1.6-1.6,3.7-1.7,5.2-0.2c0.7,0.8,1,1.6,0.8,2.6l2.8-2.8l1.5,1.5L334.1,323.6z M335.3,319.5c0.9-0.9,1-2,0.2-2.8
			c-0.8-0.8-1.9-0.8-2.8,0.1c-0.9,0.9-1,2-0.2,2.8C333.2,320.4,334.4,320.4,335.3,319.5z"/>
		<path fill="#3D3D3C" d="M344,325.2l-1.6,0.3c-0.2-0.9-0.5-1.8-0.9-2.3c-0.3-0.4-0.7-0.6-1-0.3c-0.9,0.7,2,3.5-0.1,5.1
			c-1.2,1-2.7,0.4-3.7-0.9c-0.8-1-1.2-2.1-1.2-3.2l1.6-0.4c0,1,0.4,2,0.9,2.6c0.3,0.4,0.7,0.6,1.1,0.4c0.9-0.7-2-3.4,0.1-5.1
			c1.2-1,2.7-0.4,3.7,0.9C343.5,323.2,343.9,324.2,344,325.2z"/>
	</g>
	<g>
		<path fill="#3D3D3C" d="M697.8,127.4l1.5,1.4l-0.8,2.1l-7.6-7.5l0.8-2.1l10.7-0.3l-0.9,2.2l-2.1,0L697.8,127.4z M693.4,123.3
			l3,2.8l1.1-2.9L693.4,123.3z"/>
		<path fill="#3D3D3C" d="M700.4,112.1l0.2,1.8c-0.6,0.1-1.2,0.5-1.5,1.1c-0.5,0.9-0.1,2,0.9,2.5c1.1,0.6,2.2,0.3,2.7-0.6
			c0.4-0.7,0.4-1.3,0-2l1.6-0.8c0.6,1.1,0.6,2.4-0.1,3.7c-1.1,2-3.2,2.7-5.2,1.6c-2-1.1-2.7-3.2-1.6-5.2
			C698.2,113,699.2,112.2,700.4,112.1z"/>
		<path fill="#3D3D3C" d="M708.6,109.9c0,0.6-0.3,1.3-0.7,1.9c-0.7,1.1-1.9,1.5-3.2,0.7l-2.9-1.9l-0.6,0.9l-1.2-0.8l0.6-0.9
			l-1.7-1.1l1.2-1.8l1.7,1.1l1.1-1.7l1.2,0.8l-1.1,1.7l2.6,1.7c0.5,0.3,0.9,0.3,1.1-0.1c0.2-0.2,0.3-0.6,0.3-1L708.6,109.9z"/>
		<path fill="#3D3D3C" d="M703.4,101.5c0.6,0.4,0.7,1.1,0.2,1.7s-1.1,0.6-1.7,0.2s-0.7-1.1-0.2-1.7
			C702.1,101.2,702.8,101.1,703.4,101.5z M709.7,109.2l-6-4.6l1.3-1.7l6,4.6L709.7,109.2z"/>
		<path fill="#3D3D3C" d="M713.3,104.7l-7.5-2.9l1.5-1.7l5.3,2.4l-2.9-5l1.4-1.6l3.7,7.2L713.3,104.7z"/>
		<path fill="#3D3D3C" d="M720.2,93.7l-4,3.6c0.8,0.5,1.7,0.5,2.5-0.2c0.5-0.5,0.8-1.1,0.9-1.9l1.6,0.1c0,1.1-0.5,2.2-1.5,3.1
			c-1.8,1.6-4,1.5-5.5-0.2c-1.5-1.7-1.4-3.9,0.3-5.5C716.4,91.1,718.5,91.5,720.2,93.7z M717.8,94.1c-0.7-0.7-1.6-0.8-2.3-0.1
			c-0.7,0.6-0.8,1.5-0.2,2.4L717.8,94.1z"/>
		<path fill="#3D3D3C" d="M730.8,85.9c1.2,1.9,0.8,3.9-1,5.1c-1,0.6-2,0.7-2.9,0.3l2.1,3.4l-1.4,0.9l-5.4-8.6l1.4-0.9l0.7,1.1
			c0-1,0.5-1.9,1.5-2.5C727.5,83.4,729.6,83.9,730.8,85.9z M729.4,86.7c-0.7-1.2-2.1-1.5-3.2-0.8c-1.1,0.7-1.4,2.1-0.6,3.2
			c0.8,1.2,2.1,1.6,3.2,0.9C729.9,89.2,730.1,87.9,729.4,86.7z"/>
		<path fill="#3D3D3C" d="M738.6,82.8l-5.1,2.4c0.7,0.9,1.8,1.2,2.9,0.7c0.7-0.3,1.3-0.9,1.5-1.7l1.2,0.5c-0.3,1-1.1,1.9-2.2,2.5
			c-2.1,1-4.1,0.2-5-1.8c-1-2-0.2-4.1,1.8-5C735.9,79.2,737.6,80.3,738.6,82.8z M736.8,82.3c-0.6-1.1-1.6-1.4-2.7-0.9
			c-1.1,0.5-1.5,1.5-1.2,2.7L736.8,82.3z"/>
		<path fill="#3D3D3C" d="M746.8,79.3c0.7,2.1-0.3,4.1-2.5,4.8c-2.2,0.7-4.2-0.2-4.9-2.3c-0.7-2.1,0.3-4.1,2.5-4.8
			C744,76.2,746,77.2,746.8,79.3z M740.9,81.3c0.5,1.4,1.7,2,2.9,1.6c1.3-0.4,1.8-1.7,1.4-3c-0.5-1.4-1.7-2-2.9-1.6
			C741,78.7,740.5,79.9,740.9,81.3z"/>
		<path fill="#3D3D3C" d="M756.2,77.3c0.4,2.2-0.6,4-2.7,4.4c-1.2,0.2-2.1,0-2.8-0.8l0.8,3.9l-1.6,0.3l-2-10l1.6-0.3l0.3,1.3
			c0.4-1,1.1-1.6,2.3-1.8C754.1,73.9,755.8,75.1,756.2,77.3z M754.6,77.6c-0.3-1.4-1.4-2.2-2.7-1.9c-1.3,0.3-2,1.4-1.7,2.8
			c0.3,1.4,1.4,2.2,2.7,1.9C754.2,80.2,754.9,79,754.6,77.6z"/>
		<path fill="#3D3D3C" d="M758.5,80.9l-1.1-10.3l1.6-0.2l1.1,10.3L758.5,80.9z"/>
		<path fill="#3D3D3C" d="M768.8,77.2l-5.6,0.1c0.3,1.1,1.2,1.8,2.4,1.8c0.8,0,1.5-0.3,2.1-0.9l0.9,0.9c-0.7,0.8-1.8,1.3-3,1.3
			c-2.3,0.1-3.8-1.4-3.9-3.7c-0.1-2.3,1.5-3.8,3.7-3.9C767.8,72.8,768.9,74.5,768.8,77.2z M767.4,76c-0.1-1.2-0.9-1.9-2.1-1.9
			c-1.2,0-2,0.8-2.1,2L767.4,76z"/>
	</g>
	<g>
		<path fill="#3D3D3C" d="M727.9,348.6l2,0.7l1.7-4.4l1.7,0.6l-1.7,4.4l2,0.8l1.9-5.1l1.7,0.6l-2.7,7.1l-9.2-3.4l2.6-7l1.7,0.6
			L727.9,348.6z"/>
		<path fill="#3D3D3C" d="M738,344.9l-9.4-4.4l0.9-2l9.4,4.4L738,344.9z"/>
		<path fill="#3D3D3C" d="M743.4,334.7l-1.1,1.9l-1-0.6c0.4,0.8,0.4,1.8-0.2,2.7c-1.1,1.9-3.1,2.3-5.1,1.1c-2-1.2-2.6-3.1-1.5-4.9
			c0.5-0.9,1.3-1.4,2.3-1.5l-3.4-2l1.1-1.9L743.4,334.7z M739.1,334.7c-1.1-0.6-2.2-0.4-2.7,0.6c-0.6,1-0.2,2.1,0.8,2.7
			c1.1,0.6,2.2,0.4,2.8-0.6C740.5,336.4,740.2,335.3,739.1,334.7z"/>
		<path fill="#3D3D3C" d="M746.1,325.7l-3.2,4.3c0.9,0.4,1.8,0.1,2.4-0.7c0.4-0.6,0.6-1.3,0.5-2l1.6-0.2c0.2,1.1,0,2.3-0.8,3.4
			c-1.4,1.9-3.6,2.2-5.4,0.9c-1.9-1.4-2.2-3.6-0.8-5.4C741.9,323.9,744,324,746.1,325.7z M743.9,326.6c-0.8-0.6-1.7-0.4-2.3,0.4
			c-0.6,0.8-0.4,1.7,0.3,2.4L743.9,326.6z"/>
		<path fill="#3D3D3C" d="M746.2,321c-0.4-1-0.2-2,0.6-2.8l1.5,1.3c-1.1,1.1-1.1,2.3-0.2,3.2l2.7,2.4l-1.4,1.6l-5.6-5l1.4-1.6
			L746.2,321z"/>
		<path fill="#3D3D3C" d="M753.3,322.4l-7.3-7.3l1.5-1.5l7.3,7.3L753.3,322.4z"/>
		<path fill="#3D3D3C" d="M759.6,317.8c0.5,1.4,0.2,2.4-0.8,3.3c-0.6,0.5-1.2,0.8-2,0.8l-0.3-1.8c0.4,0,0.7-0.1,1-0.3
			c0.3-0.3,0.4-0.7,0.3-1.2l-0.1-0.5l-7.2-3.6l1.7-1.5l4.9,2.6l-2-5.1l1.6-1.4L759.6,317.8z"/>
		<path fill="#3D3D3C" d="M769.7,305.1c1.2,1.9,0.8,3.9-1,5.1c-1,0.6-2,0.7-2.9,0.3l2.1,3.4l-1.4,0.9l-5.4-8.6l1.4-0.9l0.7,1.1
			c0-1,0.5-1.9,1.5-2.5C766.4,302.7,768.5,303.2,769.7,305.1z M768.3,305.9c-0.7-1.2-2.1-1.5-3.2-0.8c-1.1,0.7-1.4,2.1-0.6,3.2
			c0.8,1.2,2.1,1.6,3.2,0.9C768.8,308.5,769,307.1,768.3,305.9z"/>
		<path fill="#3D3D3C" d="M777.5,302l-5.1,2.5c0.7,0.9,1.8,1.2,2.9,0.7c0.7-0.4,1.3-1,1.5-1.7l1.2,0.4c-0.3,1-1.1,1.9-2.2,2.5
			c-2.1,1-4.1,0.3-5.1-1.7c-1-2-0.3-4.1,1.7-5.1C774.8,298.4,776.5,299.5,777.5,302z M775.7,301.5c-0.6-1.1-1.6-1.4-2.7-0.8
			c-1.1,0.5-1.5,1.5-1.1,2.7L775.7,301.5z"/>
		<path fill="#3D3D3C" d="M785.6,298.3c0.8,2.1-0.2,4.1-2.4,4.9c-2.2,0.8-4.2-0.1-4.9-2.2c-0.8-2.1,0.2-4.1,2.4-4.9
			C782.8,295.3,784.8,296.2,785.6,298.3z M779.8,300.4c0.5,1.4,1.7,2,3,1.5c1.3-0.5,1.8-1.7,1.3-3c-0.5-1.3-1.7-1.9-3-1.5
			C779.8,297.8,779.3,299.1,779.8,300.4z"/>
		<path fill="#3D3D3C" d="M794.9,296c0.5,2.2-0.5,4-2.6,4.5c-1.2,0.3-2.1,0-2.9-0.7l0.9,3.9l-1.6,0.4l-2.4-9.9l1.6-0.4l0.3,1.3
			c0.3-1,1.1-1.6,2.2-1.9C792.6,292.6,794.4,293.8,794.9,296z M793.3,296.3c-0.3-1.3-1.5-2.1-2.8-1.8c-1.3,0.3-2,1.5-1.6,2.9
			c0.3,1.4,1.5,2.1,2.8,1.8C793,298.9,793.7,297.7,793.3,296.3z"/>
		<path fill="#3D3D3C" d="M797.4,299.4l-1.6-10.3l1.6-0.2l1.6,10.3L797.4,299.4z"/>
		<path fill="#3D3D3C" d="M807.5,295.3l-5.6,0.4c0.3,1.1,1.3,1.8,2.4,1.7c0.8-0.1,1.5-0.4,2-1l0.9,0.8c-0.7,0.9-1.7,1.4-3,1.5
			c-2.3,0.2-3.9-1.2-4.1-3.5c-0.2-2.2,1.3-3.9,3.5-4.1C806.3,291,807.5,292.6,807.5,295.3z M806,294.2c-0.1-1.2-1-1.9-2.2-1.8
			c-1.2,0.1-1.9,0.9-2,2.1L806,294.2z"/>
	</g>
	<g>
		<path fill="#3D3D3C" d="M933.4,264l-0.8,2.1l-2.9-1.1l-7.6,1l0.8-2.1l5-0.7l-3.2-3.9l0.8-2.1l4.9,5.7L933.4,264z"/>
		<path fill="#3D3D3C" d="M935,252.5c2,1.1,2.6,3.3,1.5,5.4c-1.2,2.1-3.3,2.8-5.3,1.7c-2-1.1-2.6-3.3-1.4-5.4
			C930.8,252.1,933,251.4,935,252.5z M932.2,257.7c1.1,0.6,2.2,0.3,2.7-0.7c0.5-1,0.2-2-0.9-2.6c-1.1-0.6-2.2-0.3-2.7,0.7
			C930.7,256,931.1,257.1,932.2,257.7z"/>
		<path fill="#3D3D3C" d="M943.2,247.6l-1.3,1.7l-1.1-0.8c0.5,1,0.3,2-0.4,2.9c-1,1.3-2.5,1.5-3.9,0.5l-3.8-2.8l1.3-1.7l3.3,2.5
			c0.8,0.6,1.5,0.5,2.1-0.2c0.6-0.8,0.3-1.8-0.5-2.5l-3-2.2l1.3-1.7L943.2,247.6z"/>
		<path fill="#3D3D3C" d="M946.3,237.6l3.4,3.3l-1.5,1.5l-2.9-2.9c-0.7-0.7-1.5-0.7-2.1,0c-0.8,0.8-0.6,1.8,0.2,2.6l2.6,2.6
			l-1.5,1.5L939,241l1.5-1.5l0.9,0.9c-0.3-1,0-2,0.8-2.8C943.5,236.4,945,236.4,946.3,237.6z"/>
		<path fill="#3D3D3C" d="M956,235.2c1.3,1.7,0.8,3.8-1.1,5.2c-1,0.8-2.2,1.1-3.2,1.2l-0.3-1.7c0.8,0,1.6-0.3,2.3-0.8
			c1-0.7,1.2-1.7,0.6-2.6l-0.5-0.7c0,0.9-0.4,1.6-1.2,2.2c-1.6,1.2-3.5,0.8-4.8-0.9c-1.3-1.7-1.1-3.6,0.4-4.8
			c0.8-0.6,1.7-0.8,2.5-0.5l-0.6-0.8l1.7-1.3L956,235.2z M952.3,233.8c-0.7-0.9-1.8-1.1-2.6-0.5s-0.9,1.7-0.2,2.6
			c0.7,0.9,1.7,1.1,2.6,0.5C952.9,235.8,953,234.8,952.3,233.8z"/>
		<path fill="#3D3D3C" d="M966.2,226.3c1,2,0.4,4-1.5,4.9c-1.1,0.5-2.1,0.5-3-0.1l1.7,3.6l-1.4,0.7l-4.4-9.2l1.4-0.7l0.6,1.2
			c0.1-1,0.7-1.8,1.8-2.3C963.2,223.5,965.2,224.3,966.2,226.3z M964.7,227c-0.6-1.2-1.9-1.8-3.1-1.2c-1.2,0.6-1.6,1.9-1,3.2
			c0.6,1.3,1.9,1.8,3.1,1.2C964.9,229.6,965.3,228.3,964.7,227z"/>
		<path fill="#3D3D3C" d="M974.4,224.3L969,226c0.6,1,1.7,1.4,2.8,1.1c0.8-0.3,1.4-0.8,1.7-1.5l1.1,0.6c-0.4,1-1.3,1.8-2.5,2.1
			c-2.2,0.7-4.1-0.3-4.8-2.4c-0.7-2.1,0.3-4.1,2.4-4.8C972.2,220.4,973.7,221.7,974.4,224.3z M972.7,223.6c-0.4-1.1-1.4-1.6-2.6-1.2
			c-1.1,0.4-1.7,1.3-1.5,2.5L972.7,223.6z"/>
		<path fill="#3D3D3C" d="M982.9,222c0.4,2.2-0.9,4-3.1,4.4c-2.3,0.4-4.1-0.8-4.5-3c-0.4-2.2,0.9-4,3.1-4.4
			C980.7,218.6,982.5,219.8,982.9,222z M976.9,223.1c0.3,1.4,1.4,2.2,2.7,2c1.3-0.2,2.1-1.4,1.8-2.8c-0.3-1.4-1.4-2.2-2.7-2
			C977.4,220.6,976.6,221.7,976.9,223.1z"/>
		<path fill="#3D3D3C" d="M992.7,221.5c0.1,2.2-1.2,3.8-3.4,3.9c-1.2,0-2.1-0.4-2.7-1.2l0.2,4l-1.6,0.1l-0.4-10.2l1.6-0.1l0.1,1.3
			c0.5-0.9,1.4-1.4,2.5-1.4C991.1,217.8,992.6,219.2,992.7,221.5z M991,221.5c-0.1-1.4-1-2.4-2.4-2.3s-2.2,1.1-2.2,2.5
			c0.1,1.4,1,2.4,2.4,2.3S991.1,222.9,991,221.5z"/>
		<path fill="#3D3D3C" d="M994.3,225.4L995,215l1.6,0.1l-0.7,10.4L994.3,225.4z"/>
		<path fill="#3D3D3C" d="M1005.1,223.6l-5.6-0.9c0.1,1.2,0.8,2,2,2.2c0.8,0.1,1.6-0.1,2.2-0.5l0.7,1c-0.8,0.7-2,1-3.2,0.8
			c-2.3-0.4-3.5-2.1-3.2-4.3c0.4-2.2,2.1-3.5,4.3-3.2C1004.9,219.1,1005.7,221,1005.1,223.6z M1003.9,222.2c0.1-1.2-0.5-2-1.7-2.2
			c-1.2-0.2-2.1,0.4-2.5,1.6L1003.9,222.2z"/>
	</g>
	<g>
		<path fill="#3D3D3C" d="M222.3,1271l2.7-6.7l-5.9,4.3l-1.8-1.4l3.5-9.7l1.9,1.5l-2.9,7.1l6.2-4.6l1.7,1.3l-2.9,7.1l6.2-4.6
			l1.8,1.4l-8.6,5.7L222.3,1271z"/>
		<path fill="#3D3D3C" d="M235.8,1275.2c-1.2,2-3.3,2.5-5.4,1.3c-2.1-1.2-2.7-3.4-1.6-5.4c1.2-2,3.3-2.5,5.4-1.3
			C236.4,1271,237,1273.2,235.8,1275.2z M230.7,1272.2c-0.6,1.1-0.4,2.2,0.6,2.7c1,0.6,2,0.2,2.7-0.8c0.6-1.1,0.4-2.2-0.6-2.7
			C232.4,1270.8,231.3,1271.2,230.7,1272.2z"/>
		<path fill="#3D3D3C" d="M240.3,1274.6c0.9-0.6,1.8-0.7,2.9-0.3l-0.9,1.8c-1.3-0.8-2.5-0.4-3.1,0.7l-1.5,3.3l-2-0.9l3.2-6.8l2,0.9
			L240.3,1274.6z"/>
		<path fill="#3D3D3C" d="M244.4,1280.7l-0.7,1.9l-2-0.7l3.5-9.8l2,0.7l-1.9,5.4l3.6-1.7l2.3,0.8l-3.6,1.8l1.2,5.3l-2.4-0.9
			l-0.7-3.5L244.4,1280.7z"/>
		<path fill="#3D3D3C" d="M257.1,1279.6l-1.1,1.2c-0.7-0.7-1.4-1.1-2-1.3c-0.5-0.1-0.9-0.1-1,0.3c-0.3,1.1,3.7,1.5,3,4.1
			c-0.4,1.5-1.9,1.9-3.6,1.5c-1.2-0.3-2.2-0.9-2.9-1.8l1-1.2c0.6,0.8,1.5,1.4,2.3,1.6c0.5,0.1,1,0.1,1.1-0.3c0.3-1.2-3.6-1.5-3-4.1
			c0.4-1.5,1.9-2,3.5-1.5C255.5,1278.3,256.5,1278.9,257.1,1279.6z"/>
		<path fill="#3D3D3C" d="M265.8,1283l-0.7,4.7l-2.1-0.3l0.6-4.1c0.1-0.9-0.3-1.6-1.2-1.7c-1.1-0.1-1.8,0.6-2,1.7l-0.5,3.7l-2.1-0.3
			l1.5-10.3l2.1,0.3l-0.6,4.1c0.7-0.9,1.6-1.2,2.8-1C265.1,1280,266,1281.3,265.8,1283z"/>
		<path fill="#3D3D3C" d="M275.2,1284.4c-0.1,2.3-1.8,3.8-4.2,3.7c-2.4-0.1-4-1.7-3.9-4c0.1-2.3,1.8-3.8,4.2-3.7
			C273.7,1280.5,275.2,1282.1,275.2,1284.4z M269.2,1284.2c0,1.2,0.7,2.1,1.8,2.1c1.1,0,1.9-0.8,1.9-2s-0.7-2.1-1.8-2.1
			C270.1,1282.2,269.3,1283,269.2,1284.2z"/>
		<path fill="#3D3D3C" d="M285,1283.8c0.2,2.3-1.1,3.9-3.2,4.1c-1,0.1-1.9-0.3-2.5-1l0.3,3.8l-2.1,0.2l-0.8-10.2l2.1-0.2l0.1,1.1
			c0.5-0.8,1.3-1.3,2.3-1.4C283.3,1280,284.8,1281.5,285,1283.8z M282.8,1283.9c-0.1-1.2-0.9-2-2-1.9c-1.1,0.1-1.8,1-1.7,2.2
			c0.1,1.2,0.9,2,2,1.9C282.2,1286,282.9,1285.1,282.8,1283.9z"/>
		<path fill="#3D3D3C" d="M291.5,1279.5l-0.5,1.6c-0.9-0.3-1.8-0.4-2.4-0.3c-0.5,0.1-0.8,0.3-0.8,0.7c0.2,1.1,4-0.2,4.5,2.5
			c0.3,1.5-0.9,2.6-2.6,2.9c-1.2,0.2-2.4,0.1-3.4-0.4l0.4-1.6c0.9,0.5,1.9,0.6,2.7,0.5c0.5-0.1,0.9-0.4,0.8-0.8
			c-0.2-1.2-3.9,0.2-4.4-2.5c-0.3-1.5,0.9-2.6,2.5-2.8C289.4,1279,290.6,1279.1,291.5,1279.5z"/>
	</g>
	<g>
		<path fill="#3D3D3C" d="M60.5,1157.5l5.1-4.1l-6,1.5l-0.9-1.1l2.7-5.5l-5.1,4.1l-1.3-1.6l7.6-6.1l1.5,1.9l-2.9,6l6.4-1.5l1.5,1.9
			l-7.6,6.1L60.5,1157.5z"/>
		<path fill="#3D3D3C" d="M71.2,1163.5l-4-3.6c-0.5,0.9-0.3,1.8,0.4,2.4c0.5,0.5,1.2,0.7,1.9,0.7l0.1,1.6c-1.1,0.1-2.3-0.3-3.3-1.2
			c-1.8-1.6-1.9-3.8-0.4-5.5c1.6-1.7,3.8-1.8,5.5-0.3C73.4,1159.5,73.2,1161.6,71.2,1163.5z M70.6,1161.2c0.6-0.8,0.6-1.7-0.1-2.3
			c-0.7-0.6-1.6-0.6-2.4,0L70.6,1161.2z"/>
		<path fill="#3D3D3C" d="M78.4,1168.6l-4.4-3.1c-0.3,0.9-0.1,1.8,0.7,2.4c0.6,0.4,1.3,0.6,2,0.4l0.3,1.6c-1.1,0.3-2.3,0-3.4-0.7
			c-2-1.4-2.4-3.5-1.1-5.4c1.3-1.9,3.5-2.3,5.4-1C80.1,1164.3,80.1,1166.4,78.4,1168.6z M77.4,1166.4c0.5-0.8,0.4-1.7-0.4-2.3
			c-0.8-0.5-1.7-0.4-2.4,0.3L77.4,1166.4z"/>
		<path fill="#3D3D3C" d="M82.7,1174c-0.6,0-1.4-0.1-2-0.5c-1.2-0.6-1.7-1.8-1-3.2l1.7-3.1l-0.9-0.5l0.7-1.3l0.9,0.5l1-1.8l1.9,1
			l-1,1.8l1.8,1l-0.7,1.3l-1.8-1l-1.5,2.7c-0.3,0.6-0.2,0.9,0.2,1.1c0.2,0.1,0.6,0.2,1,0.2L82.7,1174z"/>
		<path fill="#3D3D3C" d="M84.2,1175.1l3.1-6.9l2,0.9l-3.1,6.9L84.2,1175.1z M90.1,1167.2c-0.3,0.6-0.9,0.9-1.6,0.6
			c-0.6-0.3-0.9-0.9-0.6-1.6c0.3-0.6,0.9-0.9,1.6-0.6C90.2,1165.9,90.4,1166.5,90.1,1167.2z"/>
		<path fill="#3D3D3C" d="M97.2,1174.9l-1.5,4.5l-2.1-0.7l1.3-3.9c0.3-0.9-0.1-1.6-0.9-1.9c-1-0.3-1.9,0.3-2.2,1.3l-1.1,3.5
			l-2.1-0.7l2.3-7.2l2.1,0.7l-0.4,1.3c0.8-0.7,1.8-0.9,2.9-0.5C97.1,1171.8,97.8,1173.2,97.2,1174.9z"/>
		<path fill="#3D3D3C" d="M105.5,1180.6c-0.4,2.1-2.2,3.2-4.6,2.8c-1.3-0.2-2.3-0.8-3.1-1.5l1-1.4c0.6,0.6,1.3,1,2.2,1.1
			c1.2,0.2,2.1-0.3,2.3-1.3l0.1-0.8c-0.6,0.6-1.4,0.9-2.4,0.7c-1.9-0.3-3-2-2.6-4.2c0.4-2.1,1.9-3.3,3.8-3c1,0.2,1.7,0.7,2.1,1.5
			l0.2-1l2.1,0.4L105.5,1180.6z M103.9,1177c0.2-1.1-0.4-2.1-1.4-2.2c-1-0.2-1.9,0.5-2.1,1.6c-0.2,1.1,0.4,2,1.4,2.2
			C102.9,1178.8,103.7,1178.1,103.9,1177z"/>
		<path fill="#3D3D3C" d="M113.9,1175l-0.8,1.4c-0.8-0.5-1.6-0.8-2.3-0.8c-0.5,0-0.9,0.1-0.9,0.5c-0.1,1.1,3.9,0.8,3.8,3.4
			c-0.1,1.5-1.5,2.3-3.2,2.2c-1.2-0.1-2.4-0.5-3.2-1.2l0.8-1.4c0.8,0.6,1.7,1,2.6,1.1c0.5,0,1-0.1,1-0.5c0.1-1.2-3.9-0.8-3.7-3.4
			c0.1-1.6,1.4-2.3,3.1-2.2C112,1174,113.1,1174.4,113.9,1175z"/>
	</g>
	<g>
		<path fill="#3D3D3C" d="M267.5,1024c1.8,1.8,1.9,3.7,0.3,5.2c-1.6,1.6-3.6,1.5-5.3-0.3l-1.4-1.4l-2,2l-1.6-1.6l7-6.9L267.5,1024z
			 M262.5,1026.2l1.3,1.3c0.9,0.9,1.8,1,2.6,0.2c0.8-0.8,0.7-1.7-0.2-2.5l-1.3-1.3L262.5,1026.2z"/>
		<path fill="#3D3D3C" d="M270.5,1031.5c1-0.4,2-0.2,2.8,0.5l-1.3,1.6c-1.1-1.1-2.4-1.1-3.2-0.1l-2.3,2.8l-1.7-1.4l4.8-5.8l1.7,1.4
			L270.5,1031.5z"/>
		<path fill="#3D3D3C" d="M278.2,1040c-1.3,1.9-3.5,2.3-5.5,1c-2-1.3-2.5-3.5-1.2-5.4c1.3-1.9,3.5-2.3,5.5-0.9
			C278.9,1035.9,279.4,1038,278.2,1040z M273.2,1036.7c-0.7,1-0.5,2.1,0.4,2.8c0.9,0.6,2,0.3,2.7-0.7c0.7-1,0.5-2.2-0.4-2.8
			C275,1035.4,273.9,1035.7,273.2,1036.7z"/>
		<path fill="#3D3D3C" d="M282.2,1045.9c-0.6,0-1.4-0.1-2-0.5c-1.2-0.6-1.7-1.8-1-3.2l1.6-3.1l-0.9-0.5l0.7-1.3l0.9,0.5l1-1.8l1.9,1
			l-1,1.8l1.8,1l-0.7,1.3l-1.8-1l-1.5,2.7c-0.3,0.6-0.2,0.9,0.2,1.1c0.2,0.1,0.6,0.2,1,0.2L282.2,1045.9z"/>
		<path fill="#3D3D3C" d="M292,1046.4c-0.9,2.1-3,2.9-5.2,2c-2.2-0.9-3.2-3-2.3-5.1c0.9-2.1,3-2.9,5.2-2
			C291.9,1042.2,292.9,1044.2,292,1046.4z M286.5,1044.2c-0.5,1.1-0.1,2.2,1,2.6c1,0.4,2.1-0.1,2.5-1.2c0.5-1.1,0.1-2.2-1-2.6
			C288,1042.5,287,1043,286.5,1044.2z"/>
		<path fill="#3D3D3C" d="M297.1,1051.4c-0.6,0.2-1.4,0.1-2-0.1c-1.3-0.4-2.1-1.4-1.6-2.9l1-3.3l-1-0.3l0.4-1.4l1,0.3l0.6-2l2.1,0.6
			l-0.6,2l2,0.6l-0.4,1.4l-2-0.6l-0.9,3c-0.2,0.6,0,0.9,0.5,1c0.3,0.1,0.6,0.1,1,0L297.1,1051.4z"/>
		<path fill="#3D3D3C" d="M302.2,1053.7c-0.8,1.2-1.8,1.7-3.1,1.4c-0.8-0.2-1.4-0.5-1.9-1.1l1.2-1.3c0.3,0.3,0.5,0.5,0.9,0.6
			c0.4,0.1,0.8-0.1,1.1-0.5l0.3-0.4l-1.6-7.8l2.2,0.4l0.9,5.5l2.7-4.7l2.1,0.4L302.2,1053.7z"/>
		<path fill="#3D3D3C" d="M315.7,1050.7c-0.2,2.3-1.7,3.7-3.8,3.5c-1-0.1-1.8-0.6-2.3-1.4l-0.3,3.8l-2.2-0.2l0.8-10.2l2.2,0.2
			l-0.1,1.1c0.6-0.7,1.4-1.1,2.5-1C314.6,1046.7,315.9,1048.3,315.7,1050.7z M313.5,1050.4c0.1-1.2-0.6-2.1-1.7-2.2
			c-1.1-0.1-1.9,0.7-2,1.9c-0.1,1.2,0.6,2.1,1.7,2.2C312.6,1052.4,313.4,1051.7,313.5,1050.4z"/>
		<path fill="#3D3D3C" d="M324.3,1050.9l-5.4,0.2c0.3,0.9,1,1.5,2,1.4c0.7,0,1.4-0.3,1.9-0.9l1.2,1.1c-0.7,0.9-1.8,1.4-3.2,1.5
			c-2.4,0.1-4-1.4-4.1-3.6c-0.1-2.3,1.4-3.9,3.7-4C323.1,1046.5,324.4,1048.2,324.3,1050.9z M322.3,1049.7c-0.1-1-0.7-1.6-1.7-1.6
			c-1,0-1.6,0.7-1.7,1.7L322.3,1049.7z"/>
		<path fill="#3D3D3C" d="M331,1046.2l-0.5,1.6c-0.9-0.3-1.8-0.5-2.4-0.4c-0.5,0.1-0.8,0.3-0.8,0.7c0.2,1.1,4,0,4.4,2.6
			c0.2,1.5-1,2.5-2.7,2.8c-1.2,0.2-2.4,0-3.4-0.6l0.5-1.5c0.9,0.5,1.9,0.7,2.7,0.5c0.5-0.1,0.9-0.3,0.9-0.7c-0.2-1.2-3.9,0-4.3-2.6
			c-0.2-1.5,1-2.5,2.6-2.8C328.9,1045.7,330,1045.8,331,1046.2z"/>
	</g>
	<g>
		<path fill="#3D3D3C" d="M721,1027.9l-1.9,0.7c-0.3-1.2-0.9-2.3-1.5-2.9c-0.5-0.5-1.1-0.7-1.5-0.3c-1.3,1.3,3.2,4.2,0.7,6.7
			c-1.3,1.4-3.3,1-4.8-0.6c-1.2-1.1-1.9-2.7-2-4.1l1.9-0.7c0.1,1.3,0.7,2.8,1.5,3.5c0.7,0.6,1.3,0.8,1.7,0.3
			c1.3-1.3-3.2-4.2-0.8-6.7c1.2-1.3,3.1-1,4.7,0.6C720.1,1025.5,720.8,1026.8,721,1027.9z"/>
		<path fill="#3D3D3C" d="M725.5,1036.6l-2.9,3.8l-1.7-1.3l2.5-3.3c0.6-0.8,0.5-1.6-0.3-2.1c-0.9-0.6-1.9-0.4-2.6,0.5l-2.2,3
			l-1.7-1.3l6.3-8.3l1.7,1.3l-2.5,3.3c1-0.4,2-0.3,2.9,0.4C726.4,1033.6,726.6,1035.2,725.5,1036.6z"/>
		<path fill="#3D3D3C" d="M729.1,1043.2c-0.8,0.3-1.6,0.2-2.5-0.4c-1.4-0.8-1.7-2.2-1-3.3c0.7-1.2,2-1.4,3.6-0.5l1.8,1l0.1-0.1
			c0.4-0.7,0.2-1.4-0.7-1.9c-0.6-0.3-1.4-0.5-2.3-0.6l0.2-1.6c1.3,0.1,2.2,0.3,3.4,1c1.7,1,2.2,2.5,1.4,3.9l-2.5,4.2l-1.8-1.1
			L729.1,1043.2z M729.9,1041.7l0.3-0.6l-1.5-0.9c-0.7-0.4-1.2-0.4-1.5,0.1c-0.3,0.5-0.1,1,0.5,1.4
			C728.6,1042.3,729.5,1042.2,729.9,1041.7z"/>
		<path fill="#3D3D3C" d="M737.2,1041.4c0.9-0.6,1.8-0.7,2.9-0.3l-0.9,1.8c-1.3-0.8-2.6-0.4-3.1,0.7l-1.5,3.3l-2-0.9l3.2-6.8l2,0.9
			L737.2,1041.4z"/>
		<path fill="#3D3D3C" d="M746.1,1048.1l-5.1-1.8c-0.1,1,0.4,1.8,1.3,2.1c0.7,0.2,1.4,0.2,2.1-0.1l0.7,1.5c-1,0.5-2.2,0.6-3.5,0.2
			c-2.3-0.8-3.2-2.8-2.5-4.9c0.8-2.2,2.8-3.1,4.9-2.4C746.6,1043.5,747.1,1045.6,746.1,1048.1z M744.6,1046.2c0.3-0.9-0.1-1.8-1-2.1
			c-0.9-0.3-1.7,0.1-2.2,1L744.6,1046.2z"/>
		<path fill="#3D3D3C" d="M754.4,1053.2l-2.1-0.5l0.2-1.1c-0.7,0.6-1.6,0.9-2.6,0.7c-2.1-0.5-3.1-2.3-2.6-4.5c0.5-2.2,2.2-3.4,4.2-3
			c1,0.2,1.8,0.8,2.1,1.7l0.8-3.9l2.1,0.5L754.4,1053.2z M753.1,1049.1c0.3-1.2-0.3-2.2-1.4-2.4c-1.1-0.2-2,0.4-2.3,1.6
			c-0.3,1.2,0.3,2.2,1.4,2.4C751.9,1051,752.8,1050.3,753.1,1049.1z"/>
		<path fill="#3D3D3C" d="M762.9,1048.1c0.6-1,1.5-1.4,2.7-1.4l-0.1,1.5c-1.5-0.2-2.5,0.6-2.7,1.9l-0.3,3.9l-1.6-0.1l0.5-7.4
			l1.6,0.1L762.9,1048.1z"/>
		<path fill="#3D3D3C" d="M773.4,1051.1l-5.6,0.1c0.3,1.1,1.2,1.8,2.4,1.8c0.8,0,1.5-0.3,2.1-0.9l0.9,0.9c-0.7,0.8-1.8,1.3-3,1.3
			c-2.3,0.1-3.8-1.4-3.9-3.7c-0.1-2.3,1.5-3.8,3.7-3.9C772.5,1046.7,773.6,1048.4,773.4,1051.1z M772,1049.9
			c-0.1-1.2-0.9-1.9-2.1-1.9c-1.2,0-2,0.8-2.1,2L772,1049.9z"/>
		<path fill="#3D3D3C" d="M775,1045.9c-0.2-1.4,0.7-2.6,2.2-2.8c0.5-0.1,1,0,1.4,0.1l0.2,1.4c-0.3-0.2-0.7-0.3-1.1-0.2
			c-0.7,0.1-1.2,0.7-1.1,1.5l0.1,0.7l1.9-0.3l0.2,1.2l-1.9,0.3l0.8,5.9l-1.6,0.2l-0.8-5.9l-1,0.1l-0.2-1.2l1-0.1L775,1045.9z
			 M782.4,1053l-1.6,0.2l-1.4-10.3l1.6-0.2L782.4,1053z"/>
		<path fill="#3D3D3C" d="M791.1,1047.7l-5.4,1.4c0.5,1,1.6,1.5,2.7,1.2c0.8-0.2,1.4-0.7,1.8-1.4l1.1,0.7c-0.5,1-1.4,1.7-2.7,2
			c-2.2,0.6-4.1-0.5-4.6-2.7c-0.6-2.2,0.5-4,2.7-4.6C789.2,1043.7,790.6,1045.1,791.1,1047.7z M789.5,1046.9
			c-0.4-1.2-1.3-1.7-2.5-1.3c-1.1,0.3-1.7,1.2-1.6,2.4L789.5,1046.9z"/>
		<path fill="#3D3D3C" d="M797.6,1041.9l-0.5,1.3c-0.7-0.3-1.5-0.4-2.3,0c-1.2,0.5-1.7,1.7-1.2,3c0.5,1.3,1.7,1.9,2.9,1.4
			c0.9-0.3,1.5-0.9,1.7-1.6l1.2,0.5c-0.3,1.1-1.1,1.9-2.5,2.4c-2.1,0.8-4-0.1-4.9-2.2c-0.8-2.1,0.1-4.1,2.1-4.9
			C795.5,1041.4,796.7,1041.4,797.6,1041.9z"/>
		<path fill="#3D3D3C" d="M805.5,1044.5c-0.4,0.6-0.8,1-1.4,1.3c-1,0.5-2.2,0.3-2.8-1l-1.7-3.5l-0.9,0.5l-0.5-1.1l0.9-0.5l-0.9-1.8
			l1.4-0.7l0.9,1.8l2-1l0.5,1.1l-2,1l1.6,3.2c0.3,0.7,0.7,0.8,1.2,0.5c0.3-0.1,0.6-0.4,0.9-0.8L805.5,1044.5z"/>
		<path fill="#3D3D3C" d="M804,1034.8c0.3,0.5,0.1,1-0.3,1.3c-0.5,0.3-1,0.1-1.3-0.4c-0.3-0.5-0.1-1.1,0.3-1.3
			C803.2,1034.1,803.8,1034.3,804,1034.8z M807.3,1043.9l-3.7-6.4l1.4-0.8l3.7,6.4L807.3,1043.9z"/>
		<path fill="#3D3D3C" d="M814.9,1034.6c1.3,1.8,0.9,4-1,5.3c-1.9,1.3-4.1,1-5.4-0.9c-1.3-1.8-0.9-4,1-5.3
			C811.4,1032.4,813.6,1032.7,814.9,1034.6z M809.8,1038.1c0.8,1.2,2.2,1.4,3.3,0.7c1.1-0.8,1.3-2.1,0.5-3.3
			c-0.8-1.2-2.1-1.4-3.2-0.7C809.2,1035.6,809,1036.9,809.8,1038.1z"/>
		<path fill="#3D3D3C" d="M821.1,1027.9l3.1,3.4l-1.2,1.1l-2.8-3.1c-0.7-0.8-1.7-0.9-2.5-0.1c-0.9,0.8-0.9,2-0.2,2.9l2.6,2.9
			l-1.2,1.1l-5-5.5l1.2-1.1l1,1.1c-0.3-1.1,0.1-2.1,1-2.9C818.4,1026.4,819.9,1026.5,821.1,1027.9z"/>
		<path fill="#3D3D3C" d="M824.3,1021.2l0.5,1.2c-0.7,0.2-1.5,0.7-1.9,1.2c-0.4,0.5-0.6,1-0.2,1.3c1,0.9,3.1-2.5,5.1-0.7
			c1.1,1,0.7,2.5-0.3,3.6c-0.7,0.8-1.8,1.4-2.8,1.5l-0.5-1.2c0.9-0.1,1.8-0.6,2.4-1.2c0.5-0.5,0.6-1.1,0.2-1.4
			c-1.1-1-3.1,2.5-5.1,0.7c-1.1-1-0.7-2.4,0.2-3.5C822.7,1021.9,823.5,1021.3,824.3,1021.2z"/>
	</g>
	<g>
		<path fill="#3D3D3C" d="M741.1,1255.2c-2.3,1.6-5.4,1-7.1-1.5c-1.7-2.5-1.2-5.6,1.1-7.2c2.3-1.6,5.4-1,7.1,1.5
			C743.9,1250.5,743.4,1253.5,741.1,1255.2z M736.4,1248.4c-1.4,1-1.7,2.9-0.8,4.2c0.9,1.3,2.8,1.7,4.2,0.7c1.4-1,1.7-2.8,0.8-4.2
			C739.7,1247.8,737.8,1247.4,736.4,1248.4z"/>
		<path fill="#3D3D3C" d="M747,1262.1l-3.5,3.1l-1.4-1.6l3.1-2.7c0.7-0.6,0.8-1.4,0.2-2.1c-0.7-0.8-1.8-0.7-2.6,0l-2.8,2.5l-1.4-1.6
			l5.6-5l1.4,1.6l-1,0.9c1.1-0.2,2,0.2,2.8,1C748.4,1259.3,748.3,1260.9,747,1262.1z"/>
		<path fill="#3D3D3C" d="M745.2,1266.9l7.2-7.5l1.6,1.5l-7.2,7.5L745.2,1266.9z"/>
		<path fill="#3D3D3C" d="M748.5,1270l5-5.7l1.6,1.4l-5,5.7L748.5,1270z M756.6,1264.2c-0.5,0.5-1.2,0.6-1.7,0.1
			c-0.5-0.5-0.5-1.1-0.1-1.7c0.5-0.5,1.2-0.6,1.7-0.1S757,1263.7,756.6,1264.2z"/>
		<path fill="#3D3D3C" d="M760.9,1273.8l-2.8,3.8l-1.7-1.3l2.5-3.3c0.6-0.8,0.5-1.6-0.3-2.1c-0.9-0.6-1.9-0.4-2.5,0.5l-2.2,3
			l-1.7-1.3l4.5-6l1.7,1.3l-0.8,1.1c1-0.4,2-0.3,2.9,0.4C761.8,1270.9,762,1272.4,760.9,1273.8z"/>
		<path fill="#3D3D3C" d="M767.7,1279.9l-4.6-2.8c-0.3,0.9,0.1,1.8,0.9,2.3c0.6,0.4,1.3,0.5,2,0.3l0.4,1.6c-1.1,0.3-2.3,0.2-3.4-0.5
			c-2.1-1.2-2.6-3.3-1.4-5.3c1.2-2,3.3-2.5,5.3-1.3C769.1,1275.5,769.3,1277.6,767.7,1279.9z M766.7,1277.7c0.5-0.9,0.3-1.8-0.6-2.3
			c-0.8-0.5-1.7-0.3-2.4,0.5L766.7,1277.7z"/>
		<path fill="#3D3D3C" d="M779.4,1281.7l-1.2,0.6c-0.3-0.7-0.8-1.3-1.6-1.6c-1.2-0.5-2.4,0-3,1.3s-0.1,2.6,1.1,3.1
			c0.9,0.4,1.7,0.4,2.4,0l0.5,1.2c-1,0.5-2.2,0.6-3.5,0c-2-0.9-2.9-2.9-2-4.9c0.9-2.1,2.9-2.9,4.9-2
			C778.3,1279.9,779.1,1280.7,779.4,1281.7z"/>
		<path fill="#3D3D3C" d="M786.7,1286.8c-0.7,2.1-2.7,3.1-4.9,2.4c-2.2-0.7-3.2-2.7-2.5-4.8c0.7-2.1,2.7-3.1,4.9-2.4
			C786.4,1282.7,787.4,1284.7,786.7,1286.8z M780.9,1285c-0.4,1.4,0.2,2.6,1.4,3c1.3,0.4,2.5-0.2,2.9-1.6c0.4-1.4-0.2-2.6-1.4-3
			C782.5,1282.9,781.3,1283.6,780.9,1285z"/>
		<path fill="#3D3D3C" d="M795.8,1287.9l-0.9,4.5l-1.6-0.3l0.9-4.1c0.2-1.1-0.3-1.9-1.4-2.1c-1.2-0.2-2.1,0.4-2.5,1.6l-0.8,3.9
			l-1.6-0.3l1.5-7.3l1.6,0.3l-0.3,1.4c0.7-0.9,1.8-1.2,3-0.9C795.3,1284.8,796.1,1286.1,795.8,1287.9z"/>
		<path fill="#3D3D3C" d="M799,1292.9l-2-7.7l1.7,0.2l1.4,6.1l2.7-5.6l1.6,0.2l-3.7,7.1L799,1292.9z"/>
		<path fill="#3D3D3C" d="M811.5,1290.5l-5.6-0.1c0.2,1.2,1.1,1.9,2.3,1.9c0.8,0,1.6-0.3,2.1-0.8l0.8,0.9c-0.7,0.8-1.8,1.2-3.1,1.2
			c-2.3-0.1-3.8-1.6-3.7-3.9c0.1-2.3,1.6-3.7,3.9-3.7C810.7,1286.1,811.8,1287.9,811.5,1290.5z M810.1,1289.3c0-1.2-0.8-2-2-2
			c-1.2,0-2,0.7-2.2,1.9L810.1,1289.3z"/>
		<path fill="#3D3D3C" d="M814.9,1287.5c0.4-1,1.3-1.6,2.5-1.7l0.1,1.5c-1.5,0-2.4,0.9-2.5,2.2l0.2,3.9l-1.6,0.1l-0.4-7.4l1.6-0.1
			L814.9,1287.5z"/>
		<path fill="#3D3D3C" d="M823.5,1285.8l-0.4,1.3c-0.7-0.3-1.6-0.5-2.2-0.4c-0.6,0.1-1.1,0.3-1,0.9c0.2,1.4,4,0.1,4.3,2.8
			c0.2,1.5-1.1,2.4-2.6,2.5c-1.1,0.1-2.3-0.1-3.1-0.7l0.4-1.2c0.7,0.5,1.8,0.7,2.6,0.6c0.7-0.1,1.2-0.4,1.1-0.9
			c-0.2-1.5-4-0.2-4.3-2.9c-0.2-1.5,1-2.3,2.5-2.5C821.7,1285.3,822.7,1285.5,823.5,1285.8z"/>
		<path fill="#3D3D3C" d="M830.7,1290.4c-0.4,0.8-1.2,1.2-2.2,1.5c-1.6,0.3-2.8-0.4-3-1.7c-0.3-1.3,0.5-2.4,2.3-2.8l2.2-0.5l0-0.2
			c-0.2-0.9-0.9-1.3-2.1-1.1c-0.7,0.1-1.4,0.5-2,1.2l-0.9-1c0.9-0.8,1.6-1.3,2.9-1.6c1.9-0.4,3.1,0.3,3.5,1.9l1,4.8l-1.5,0.3
			L830.7,1290.4z M830.4,1288.7l-0.1-0.7l-2,0.4c-1,0.2-1.4,0.6-1.3,1.3c0.1,0.7,0.8,1,1.6,0.8
			C829.7,1290.3,830.4,1289.5,830.4,1288.7z"/>
		<path fill="#3D3D3C" d="M838.9,1288.6c-0.5,0.5-1,0.9-1.6,1c-1.1,0.3-2.2,0-2.6-1.5l-1.1-3.7l-1,0.3l-0.3-1.2l1-0.3l-0.6-2
			l1.5-0.5l0.6,2l2.1-0.6l0.3,1.2l-2.1,0.6l1,3.4c0.2,0.7,0.6,0.9,1.1,0.7c0.3-0.1,0.6-0.3,1-0.6L838.9,1288.6z"/>
		<path fill="#3D3D3C" d="M839.2,1278.8c0.2,0.5-0.1,1-0.6,1.2c-0.5,0.2-1-0.1-1.2-0.6c-0.2-0.5,0-1.1,0.5-1.2
			C838.5,1278,839,1278.3,839.2,1278.8z M840.8,1288.4l-2.5-7l1.5-0.5l2.5,7L840.8,1288.4z"/>
		<path fill="#3D3D3C" d="M849.9,1280.6c0.9,2,0.1,4.1-2,5c-2.1,0.9-4.2,0.2-5.1-1.9c-0.9-2.1-0.1-4.1,2-5
			C846.9,1277.8,849,1278.5,849.9,1280.6z M844.3,1283.1c0.6,1.3,1.8,1.8,3.1,1.3c1.2-0.5,1.7-1.8,1.1-3.1c-0.6-1.3-1.8-1.8-3.1-1.3
			C844.1,1280.6,843.7,1281.8,844.3,1283.1z"/>
		<path fill="#3D3D3C" d="M857.3,1275.3l2.3,4l-1.4,0.8l-2.1-3.6c-0.6-1-1.5-1.2-2.5-0.7c-1.1,0.6-1.3,1.8-0.8,2.8l2,3.4l-1.4,0.8
			l-3.7-6.4l1.4-0.8l0.7,1.2c-0.1-1.2,0.5-2,1.6-2.7C855,1273.4,856.4,1273.8,857.3,1275.3z"/>
		<path fill="#3D3D3C" d="M861.9,1269.5l0.2,1.3c-0.8,0-1.6,0.3-2.1,0.7c-0.5,0.4-0.8,0.8-0.5,1.2c0.8,1.1,3.6-1.8,5.1,0.4
			c0.9,1.2,0.2,2.6-1,3.5c-0.9,0.6-2,1-3,0.9l-0.2-1.3c0.9,0.1,1.9-0.2,2.6-0.7c0.6-0.4,0.9-0.9,0.5-1.4c-0.9-1.2-3.6,1.7-5.1-0.5
			c-0.9-1.2-0.2-2.5,1-3.3C860.1,1269.9,861.1,1269.5,861.9,1269.5z"/>
	</g>
	<g>
		<path fill="#3D3D3C" d="M947.9,1152.4c2.1,2.2,2.2,5.1,0.1,7.1c-2.1,2-5,1.9-7.2-0.3l-2.9-2.9l7-6.9L947.9,1152.4z M940.8,1156.6
			l1.4,1.4c1.1,1.2,2.9,1.2,4.2-0.1c1.3-1.3,1.3-3,0.1-4.2l-1.3-1.4L940.8,1156.6z"/>
		<path fill="#3D3D3C" d="M950.3,1166.3c-0.8,0.2-1.6,0-2.5-0.6c-1.3-1-1.5-2.3-0.6-3.4c0.9-1.1,2.2-1.2,3.7-0.1l1.7,1.2l0.1-0.1
			c0.5-0.6,0.3-1.3-0.5-2c-0.5-0.4-1.3-0.7-2.2-0.8l0.4-1.6c1.2,0.2,2.2,0.6,3.2,1.4c1.6,1.2,1.9,2.7,0.9,4.1l-3,3.9l-1.7-1.3
			L950.3,1166.3z M951.3,1164.9l0.4-0.5l-1.4-1c-0.7-0.5-1.1-0.5-1.5-0.1c-0.3,0.5-0.2,1,0.4,1.5
			C950,1165.3,950.8,1165.4,951.3,1164.9z"/>
		<path fill="#3D3D3C" d="M957.9,1171.6c-0.6,0-1.3-0.2-2-0.6c-1.2-0.7-1.6-1.9-0.8-3.2l1.8-3l-0.9-0.5l0.8-1.3l0.9,0.5l1.1-1.8
			l1.8,1.1l-1.1,1.8l1.8,1l-0.8,1.3l-1.8-1l-1.6,2.7c-0.3,0.5-0.2,0.9,0.2,1.1c0.2,0.1,0.6,0.2,1,0.3L957.9,1171.6z"/>
		<path fill="#3D3D3C" d="M963.7,1173.9c-0.7,0.4-1.6,0.4-2.6-0.1c-1.5-0.7-2-2-1.4-3.2c0.6-1.3,1.9-1.6,3.5-0.9l1.9,0.9l0.1-0.1
			c0.3-0.7,0-1.4-0.9-1.8c-0.6-0.3-1.4-0.4-2.3-0.3l0-1.6c1.3,0,2.3,0.1,3.5,0.6c1.8,0.8,2.5,2.2,1.8,3.8l-2,4.5l-1.9-0.9
			L963.7,1173.9z M964.4,1172.4l0.3-0.6l-1.5-0.7c-0.8-0.3-1.2-0.3-1.5,0.3c-0.2,0.5,0,1.1,0.7,1.4
			C963.2,1173.1,964,1172.9,964.4,1172.4z"/>
		<path fill="#3D3D3C" d="M978.9,1173.1l-1.1,0.8c-0.4-0.6-1-1.1-1.9-1.3c-1.3-0.3-2.4,0.4-2.7,1.8s0.3,2.5,1.6,2.8
			c0.9,0.2,1.7,0.1,2.4-0.3l0.7,1.1c-0.9,0.7-2,0.9-3.4,0.6c-2.1-0.5-3.3-2.4-2.7-4.6c0.5-2.2,2.4-3.3,4.6-2.8
			C977.6,1171.5,978.5,1172.1,978.9,1173.1z"/>
		<path fill="#3D3D3C" d="M987.1,1176.7c-0.3,2.2-2,3.6-4.3,3.3c-2.3-0.3-3.7-2-3.4-4.2c0.3-2.2,2-3.6,4.3-3.3
			C986,1172.7,987.3,1174.4,987.1,1176.7z M981,1176c-0.2,1.4,0.7,2.5,2,2.7c1.3,0.2,2.4-0.7,2.5-2.1c0.2-1.4-0.7-2.5-2-2.7
			C982.2,1173.7,981.1,1174.6,981,1176z"/>
		<path fill="#3D3D3C" d="M989,1180.4l0.2-10.4l1.6,0l-0.2,10.4L989,1180.4z"/>
		<path fill="#3D3D3C" d="M993.5,1180.4l-0.5-10.4l1.6-0.1l0.5,10.4L993.5,1180.4z"/>
		<path fill="#3D3D3C" d="M1004.2,1176.1l-5.6,0.8c0.4,1.1,1.4,1.7,2.5,1.5c0.8-0.1,1.5-0.5,2-1.2l1,0.8c-0.6,0.9-1.6,1.5-2.9,1.7
			c-2.3,0.3-4-1-4.3-3.2c-0.3-2.2,1-4,3.2-4.3C1002.7,1171.9,1004,1173.4,1004.2,1176.1z M1002.6,1175.2c-0.2-1.2-1.1-1.8-2.3-1.6
			c-1.2,0.2-1.9,1-1.9,2.2L1002.6,1175.2z"/>
		<path fill="#3D3D3C" d="M1011.3,1171l-0.6,1.2c-0.6-0.4-1.4-0.5-2.3-0.2c-1.2,0.3-1.9,1.5-1.5,2.9c0.4,1.4,1.5,2.1,2.8,1.7
			c0.9-0.2,1.6-0.7,1.9-1.4l1.1,0.6c-0.4,1-1.3,1.8-2.7,2.2c-2.1,0.6-4-0.5-4.6-2.6c-0.6-2.2,0.5-4.1,2.6-4.6
			C1009.3,1170.3,1010.5,1170.4,1011.3,1171z"/>
		<path fill="#3D3D3C" d="M1019,1174.2c-0.4,0.5-0.9,0.9-1.5,1.2c-1,0.4-2.2,0.2-2.7-1.3l-1.4-3.6l-1,0.4l-0.4-1.1l1-0.4l-0.7-1.9
			l1.5-0.6l0.7,1.9l2-0.8l0.4,1.1l-2,0.8l1.3,3.3c0.3,0.7,0.6,0.8,1.1,0.6c0.3-0.1,0.6-0.4,0.9-0.7L1019,1174.2z"/>
		<path fill="#3D3D3C" d="M1018.3,1164.4c0.2,0.5,0.1,1-0.4,1.3s-1,0-1.3-0.5c-0.3-0.5-0.1-1.1,0.4-1.3S1018.1,1163.9,1018.3,1164.4
			z M1020.9,1173.8l-3.2-6.7l1.4-0.7l3.2,6.7L1020.9,1173.8z"/>
		<path fill="#3D3D3C" d="M1029.1,1164.9c1.2,1.9,0.6,4.1-1.3,5.3c-2,1.2-4.1,0.7-5.3-1.2c-1.2-1.9-0.6-4.1,1.3-5.3
			C1025.8,1162.5,1027.9,1163,1029.1,1164.9z M1023.9,1168.1c0.8,1.2,2.1,1.6,3.2,0.9c1.1-0.7,1.4-2,0.7-3.3
			c-0.7-1.2-2.1-1.6-3.2-0.9C1023.4,1165.6,1023.1,1166.9,1023.9,1168.1z"/>
		<path fill="#3D3D3C" d="M1035.7,1158.5l2.9,3.6l-1.2,1l-2.7-3.2c-0.7-0.9-1.7-1-2.5-0.3c-0.9,0.8-1,1.9-0.3,2.9l2.5,3.1l-1.2,1
			l-4.7-5.7l1.2-1l0.9,1.1c-0.2-1.1,0.2-2.1,1.2-2.9C1033,1156.9,1034.5,1157.1,1035.7,1158.5z"/>
	</g>
	<g>
		<path fill="#3D3D3C" d="M482.4,1402.6c-2,2-5.2,1.9-7.3-0.3s-2.1-5.3-0.1-7.3c2-2,5.1-1.9,7.2,0.3
			C484.4,1397.5,484.5,1400.6,482.4,1402.6z M476.6,1396.7c-1.2,1.2-1.2,3.1-0.1,4.3c1.1,1.2,3,1.2,4.3,0s1.2-3.1,0.1-4.2
			C479.8,1395.5,477.9,1395.5,476.6,1396.7z"/>
		<path fill="#3D3D3C" d="M489.3,1409.6c-1.4,1.8-3.5,2.1-5.1,0.8c-0.8-0.7-1.2-1.5-1.2-2.4l-2.4,3l-1.7-1.3l6.4-8l1.7,1.3l-0.7,0.9
			c0.9-0.3,1.8-0.1,2.6,0.6C490.6,1405.7,490.7,1407.8,489.3,1409.6z M487.6,1408.2c0.8-0.9,0.7-2.1-0.2-2.8c-0.9-0.7-2-0.5-2.8,0.4
			c-0.8,1-0.7,2.1,0.2,2.8C485.7,1409.3,486.9,1409.1,487.6,1408.2z"/>
		<path fill="#3D3D3C" d="M496.2,1414.8l-4.5-2.9c-0.3,0.9,0,1.8,0.8,2.3c0.6,0.4,1.3,0.5,2,0.4l0.3,1.6c-1.1,0.3-2.3,0.1-3.4-0.6
			c-2-1.3-2.5-3.4-1.2-5.3c1.3-2,3.4-2.4,5.4-1.1C497.7,1410.4,497.8,1412.6,496.2,1414.8z M495.2,1412.6c0.5-0.9,0.3-1.7-0.5-2.3
			c-0.8-0.5-1.7-0.3-2.4,0.4L495.2,1412.6z"/>
		<path fill="#3D3D3C" d="M505.1,1417.6l-2.1,4.2l-1.9-1l1.9-3.7c0.4-0.8,0.2-1.6-0.6-2c-1-0.5-1.9,0-2.4,0.9l-1.7,3.3l-1.9-1
			l3.4-6.7l1.9,1l-0.6,1.2c0.9-0.6,1.9-0.6,3-0.1C505.5,1414.5,505.9,1416,505.1,1417.6z"/>
		<path fill="#3D3D3C" d="M518.4,1418.1l-1.4,1.5c-0.8-0.9-1.8-1.7-2.6-1.9c-0.7-0.2-1.3-0.1-1.4,0.4c-0.6,1.7,4.7,2.4,3.6,5.8
			c-0.6,1.8-2.5,2.3-4.6,1.6c-1.5-0.5-2.9-1.6-3.6-2.9l1.4-1.4c0.7,1.2,1.8,2.2,2.8,2.5c0.9,0.3,1.5,0.1,1.7-0.4
			c0.6-1.8-4.7-2.4-3.6-5.7c0.6-1.7,2.4-2.3,4.5-1.5C516.5,1416.4,517.7,1417.2,518.4,1418.1z"/>
		<path fill="#3D3D3C" d="M525.8,1425c-0.5,2.2-2.4,3.4-4.8,2.9c-2.4-0.5-3.6-2.4-3.1-4.6c0.5-2.3,2.4-3.4,4.8-2.9
			C525.1,1420.9,526.3,1422.8,525.8,1425z M520,1423.7c-0.3,1.2,0.3,2.2,1.4,2.4c1.1,0.2,2-0.4,2.3-1.6c0.3-1.2-0.3-2.2-1.4-2.4
			C521.2,1421.9,520.3,1422.5,520,1423.7z"/>
		<path fill="#3D3D3C" d="M534.1,1429.8l-2.1-0.3l0.2-1.3c-0.6,0.9-1.5,1.2-2.7,1.1c-1.7-0.2-2.6-1.4-2.4-3.2l0.6-4.7l2.1,0.3
			l-0.5,4.1c-0.1,0.9,0.4,1.6,1.2,1.7c1,0.1,1.8-0.6,1.9-1.7l0.4-3.7l2.1,0.3L534.1,1429.8z"/>
		<path fill="#3D3D3C" d="M539.1,1423.9c0.5-0.9,1.4-1.4,2.5-1.4l-0.1,2c-1.5-0.2-2.5,0.6-2.6,1.9l-0.1,3.6l-2.2-0.1l0.2-7.5
			l2.2,0.1L539.1,1423.9z"/>
		<path fill="#3D3D3C" d="M549.2,1423.8l-1.4,1.1c-0.4-0.5-1-0.8-1.8-0.7c-1,0-1.8,0.9-1.7,2.1c0.1,1.2,0.8,2,1.9,2
			c0.8,0,1.4-0.4,1.7-1l1.5,0.9c-0.6,1.1-1.7,1.7-3.3,1.8c-2.3,0.1-3.9-1.4-4-3.6c-0.1-2.3,1.4-3.9,3.7-4
			C547.3,1422.3,548.5,1422.8,549.2,1423.8z"/>
		<path fill="#3D3D3C" d="M557.7,1425.6l-5.4,0.7c0.4,0.9,1.2,1.4,2.1,1.2c0.7-0.1,1.3-0.5,1.8-1.1l1.3,1c-0.6,0.9-1.7,1.6-3,1.8
			c-2.4,0.3-4.1-1-4.4-3.2c-0.3-2.3,1-4,3.3-4.4C556,1421.3,557.5,1422.8,557.7,1425.6z M555.5,1424.6c-0.2-1-0.9-1.5-1.9-1.4
			c-0.9,0.1-1.5,0.9-1.5,1.9L555.5,1424.6z"/>
		<path fill="#3D3D3C" d="M570.1,1425.6l-1.1-3.7l-4.3,1.3l1.1,3.7l-2.1,0.6l-2.8-9.4l2.1-0.6l1.2,3.9l4.3-1.3l-1.2-3.9l2.1-0.6
			l2.8,9.4L570.1,1425.6z"/>
		<path fill="#3D3D3C" d="M578.5,1421.4c-0.2,0.8-0.8,1.4-1.8,1.8c-1.5,0.6-2.8,0.1-3.3-1.2c-0.6-1.3,0.1-2.5,1.8-3.2l1.9-0.8
			l-0.1-0.1c-0.3-0.7-1-1-1.9-0.5c-0.6,0.3-1.3,0.8-1.8,1.5l-1.2-1.1c0.8-1,1.6-1.6,2.8-2.1c1.9-0.8,3.3-0.3,4,1.2l1.9,4.5l-1.9,0.8
			L578.5,1421.4z M577.8,1419.9l-0.3-0.6l-1.6,0.7c-0.8,0.3-1,0.7-0.8,1.3c0.2,0.5,0.8,0.7,1.5,0.4
			C577.5,1421.3,578,1420.5,577.8,1419.9z"/>
		<path fill="#3D3D3C" d="M582,1413.9c0-1.1,0.5-1.9,1.5-2.4l0.9,1.8c-1.4,0.6-1.9,1.8-1.3,2.9l1.7,3.2l-1.9,1l-3.5-6.7l1.9-1
			L582,1413.9z"/>
		<path fill="#3D3D3C" d="M594.8,1413.3l-1.8,1.2l-0.6-0.9c0,0.9-0.5,1.7-1.4,2.3c-1.8,1.2-3.8,0.6-5.1-1.3c-1.2-1.9-0.9-4,0.9-5.1
			c0.9-0.6,1.8-0.7,2.7-0.3l-2.1-3.3l1.8-1.2L594.8,1413.3z M590.9,1411.4c-0.7-1-1.8-1.3-2.7-0.7c-0.9,0.6-1.1,1.8-0.5,2.8
			c0.7,1,1.8,1.3,2.7,0.7C591.4,1413.5,591.6,1412.4,590.9,1411.4z"/>
		<path fill="#3D3D3C" d="M602.6,1407.1l-4.4-2.7l2,4.8l-1.6,1.4l-7-4l1.7-1.4l4.8,3l-2.2-5.2l1.6-1.4l4.7,3.1l-2.2-5.2l1.6-1.4
			l2.8,7.5L602.6,1407.1z"/>
		<path fill="#3D3D3C" d="M609.6,1399c0.1,0.8-0.2,1.6-0.9,2.4c-1.1,1.2-2.5,1.2-3.5,0.3c-1-1-1-2.3,0.3-3.6l1.4-1.5l-0.1-0.1
			c-0.6-0.5-1.3-0.5-2,0.3c-0.5,0.5-0.8,1.2-1,2.1l-1.5-0.5c0.4-1.2,0.8-2.1,1.7-3.1c1.4-1.5,2.9-1.6,4.2-0.5l3.6,3.3l-1.4,1.5
			L609.6,1399z M608.4,1397.8l-0.5-0.5l-1.2,1.2c-0.6,0.6-0.7,1.1-0.2,1.5c0.4,0.4,1,0.3,1.5-0.2
			C608.6,1399.2,608.8,1398.4,608.4,1397.8z"/>
		<path fill="#3D3D3C" d="M609.7,1390.7c-0.4-1-0.3-2,0.4-2.8l1.6,1.3c-1.1,1.1-1,2.4,0,3.2l2.8,2.2l-1.3,1.7l-5.9-4.7l1.3-1.7
			L609.7,1390.7z"/>
		<path fill="#3D3D3C" d="M618.3,1383.7l-3,4.5c0.9,0.3,1.8,0,2.3-0.8c0.4-0.6,0.5-1.3,0.4-2l1.6-0.3c0.3,1.1,0.1,2.3-0.7,3.4
			c-1.3,2-3.5,2.4-5.4,1.2c-1.9-1.3-2.3-3.5-1.1-5.4C614,1382.1,616.2,1382,618.3,1383.7z M616.2,1384.7c-0.8-0.5-1.7-0.3-2.3,0.5
			c-0.5,0.8-0.3,1.7,0.4,2.4L616.2,1384.7z"/>
	</g>
</g>
</svg>
